<?xml version="1.0" encoding="utf-8"?>
<!-- Generator: Adobe Illustrator 16.0.0, SVG Export Plug-In . SVG Version: 6.00 Build 0)  -->
<!DOCTYPE svg PUBLIC "-//W3C//DTD SVG 1.1//EN" "http://www.w3.org/Graphics/SVG/1.1/DTD/svg11.dtd">
<svg version="1.1" id="Layer_1" xmlns="http://www.w3.org/2000/svg" xmlns:xlink="http://www.w3.org/1999/xlink" x="0px" y="0px"
	 width="672px" height="367.59px" viewBox="0 0 672 367.59" enable-background="new 0 0 672 367.59" xml:space="preserve">
<path fill="#F9ED32" d="M441.812,24.671c60.917,1.898,50.647,3.534,70.282,18.814c10.996,15.086,146.668,228.188,142.151,252.998
	s-35.188,27.847-35.188,27.847S176,358.919,151.729,357.834c-50.943-1.184-61.544-63.563-68.068-85.622l-17.912-61.873
	L31.873,95.421c0,0-11.374-41.059-12.299-45.398c-2.535-11.906-5.098-27.449,10.055-37.707c15.878-10.75,41.186-6.898,63.584-5.42
	c83.965,5.547,168.518,8.512,252.573,13.7C377.562,22.558,408.394,23.63,441.812,24.671z"/>
<g>
	<path d="M319.438,167.444c-0.466,5.417-1.439,10.771-2.92,16.06c-1.481,5.291-3.682,10.369-6.602,15.234
		c-1.354,2.371-2.931,4.688-4.729,6.951s-3.776,4.274-5.935,6.029c-2.158,1.757-4.507,3.164-7.046,4.222s-5.227,1.544-8.062,1.46
		c-2.751,0.041-5.279-0.424-7.585-1.396c-2.308-0.973-4.392-2.285-6.253-3.936c-1.862-1.65-3.491-3.544-4.888-5.682
		c-1.396-2.136-2.561-4.326-3.491-6.569c-1.989-4.612-3.312-9.458-3.968-14.536s-0.751-10.22-0.285-15.425
		c0.465-4.824,1.492-9.585,3.078-14.282c1.588-4.697,3.841-9.119,6.761-13.267c1.396-2.073,3.015-3.988,4.856-5.745
		c1.84-1.755,3.84-3.269,5.998-4.538s4.433-2.243,6.824-2.92c2.39-0.677,4.812-0.974,7.268-0.889
		c2.369-0.085,4.654,0.181,6.855,0.794c2.2,0.613,4.253,1.491,6.157,2.634s3.618,2.539,5.142,4.189s2.793,3.491,3.809,5.522
		c1.1,1.904,2.01,3.914,2.729,6.03c0.719,2.116,1.279,4.284,1.683,6.507c0.401,2.221,0.645,4.465,0.729,6.729
		C319.648,162.885,319.606,165.159,319.438,167.444z M300.775,161.731c0.127-1.608,0.169-3.374,0.127-5.3
		c-0.043-1.926-0.308-3.734-0.794-5.428c-0.486-1.691-1.28-3.12-2.38-4.285c-1.101-1.163-2.666-1.809-4.697-1.936
		c-2.328,0.086-4.349,0.594-6.062,1.523c-1.715,0.932-3.196,2.137-4.443,3.618c-1.249,1.481-2.297,3.174-3.143,5.078
		c-0.847,1.904-1.545,3.872-2.095,5.903c-0.551,2.031-0.974,4.062-1.27,6.094c-0.297,2.031-0.529,3.914-0.698,5.649
		c-0.212,2.412-0.35,4.835-0.412,7.269c-0.064,2.434,0.073,4.814,0.412,7.141c0.169,1.229,0.391,2.466,0.666,3.713
		c0.275,1.249,0.667,2.381,1.175,3.396s1.152,1.863,1.937,2.539c0.782,0.678,1.809,1.079,3.078,1.206
		c1.904-0.042,3.597-0.528,5.078-1.46c1.48-0.93,2.793-2.115,3.936-3.555c1.143-1.438,2.127-3.004,2.951-4.697
		c0.826-1.691,1.534-3.301,2.127-4.824c1.312-3.555,2.327-7.141,3.047-10.76C300.034,169,300.521,165.371,300.775,161.731z"/>
	<path d="M386.786,208.26c-0.127,0.762-0.36,1.523-0.698,2.285c-0.339,0.762-0.772,1.45-1.301,2.062
		c-0.53,0.614-1.143,1.122-1.842,1.523c-0.697,0.403-1.471,0.625-2.316,0.667c-1.989,0.423-3.84,0.19-5.555-0.698
		c-1.713-0.889-3.078-2.031-4.094-3.428c-0.974-1.691-1.968-3.354-2.983-4.982s-2.011-3.291-2.983-4.983
		c-2.243-3.428-4.486-6.802-6.729-10.124c-2.243-3.322-4.486-6.654-6.729-9.998c-0.085,1.863-0.148,3.682-0.19,5.459
		c-0.043,1.777-0.106,3.598-0.19,5.459c-0.085,1.863-0.158,3.703-0.223,5.522c-0.062,1.819-0.138,3.618-0.222,5.396
		c-0.17,1.609-0.455,3.228-0.856,4.855c-0.403,1.63-1.069,3.164-2,4.603c-0.762,0.974-1.577,1.745-2.443,2.317
		c-0.868,0.57-1.736,0.983-2.604,1.237s-1.745,0.403-2.634,0.444c-0.889,0.043-1.757,0-2.603-0.127
		c-1.059-0.338-1.884-0.889-2.476-1.65c-0.593-0.762-1.048-1.619-1.364-2.57c-0.318-0.953-0.54-1.957-0.667-3.016
		c-0.127-1.057-0.254-2.072-0.381-3.047c-0.043-1.607-0.054-3.215-0.032-4.824c0.021-1.607,0.074-3.215,0.159-4.824
		c0.084-1.1,0.127-2.18,0.127-3.237s0.042-2.136,0.127-3.237c0.084-1.143,0.116-2.264,0.095-3.364s0.011-2.222,0.096-3.364
		c0.084-1.016,0.169-2.062,0.254-3.143c0.084-1.078,0.19-2.126,0.317-3.142c0.169-1.101,0.327-2.222,0.476-3.364
		s0.307-2.264,0.477-3.364c0.211-1.946,0.35-3.851,0.412-5.713c0.064-1.862,0.18-3.786,0.35-5.776c0.084-1.904,0.2-3.798,0.35-5.682
		c0.147-1.882,0.349-3.776,0.603-5.681c0.338-1.481,0.667-3.079,0.983-4.792c0.318-1.715,0.772-3.375,1.365-4.983
		c0.592-1.608,1.386-3.067,2.381-4.38c0.993-1.311,2.337-2.307,4.03-2.983c1.016-0.169,2.021-0.19,3.015-0.063
		s1.904,0.424,2.73,0.889c0.824,0.467,1.512,1.079,2.062,1.841c0.55,0.762,0.909,1.65,1.079,2.666
		c0.211,2.158,0.327,4.307,0.349,6.442c0.021,2.138,0.032,4.285,0.032,6.443c2.115-2.031,4.242-4.02,6.38-5.967
		c2.136-1.945,4.305-3.936,6.506-5.967c1.058-0.762,2.168-1.502,3.332-2.222s2.359-1.322,3.587-1.81
		c1.227-0.485,2.485-0.834,3.776-1.047c1.291-0.211,2.592-0.211,3.904,0c1.143,0,2.168,0.244,3.078,0.73s1.683,1.133,2.317,1.936
		c0.635,0.805,1.1,1.725,1.396,2.762c0.296,1.037,0.381,2.084,0.254,3.142c-0.085,2.031-0.72,3.872-1.904,5.522
		c-1.186,1.65-2.539,3.09-4.062,4.316c-1.904,1.312-3.788,2.603-5.649,3.872c-1.862,1.27-3.725,2.624-5.586,4.062
		c-0.678,0.508-1.376,1.026-2.095,1.556c-0.72,0.529-1.396,1.101-2.031,1.713c-0.635,0.614-1.186,1.27-1.65,1.969
		c-0.466,0.697-0.783,1.471-0.952,2.316c0.127,1.229,0.391,2.402,0.793,3.523s0.889,2.211,1.461,3.269
		c0.57,1.058,1.184,2.085,1.84,3.079s1.28,1.999,1.873,3.015c1.904,2.751,3.798,5.449,5.682,8.093
		c1.882,2.646,3.776,5.344,5.681,8.094c0.635,1.102,1.248,2.212,1.841,3.332c0.592,1.122,1.111,2.285,1.555,3.492
		c0.445,1.205,0.762,2.443,0.953,3.713C387.008,205.594,386.997,206.906,386.786,208.26z"/>
</g>
</svg>
