<?xml version="1.0" encoding="utf-8"?>
<!-- Generator: Adobe Illustrator 16.0.0, SVG Export Plug-In . SVG Version: 6.00 Build 0)  -->
<!DOCTYPE svg PUBLIC "-//W3C//DTD SVG 1.1//EN" "http://www.w3.org/Graphics/SVG/1.1/DTD/svg11.dtd">
<svg version="1.1" id="Layer_1" xmlns="http://www.w3.org/2000/svg" xmlns:xlink="http://www.w3.org/1999/xlink" x="0px" y="0px"
	 width="672px" height="367.59px" viewBox="0 0 672 367.59" enable-background="new 0 0 672 367.59" xml:space="preserve">
<path fill="#19A9E1" d="M441.812,24.671c60.917,1.898,50.647,3.534,70.282,18.814c10.996,15.086,146.668,228.188,142.151,252.998
	c-4.517,24.811-35.188,27.847-35.188,27.847S176,358.919,151.729,357.834c-50.943-1.184-61.544-63.564-68.068-85.622l-17.912-61.873
	L31.873,95.421c0,0-11.374-41.058-12.299-45.398c-2.535-11.906-5.098-27.449,10.055-37.707c15.878-10.75,41.186-6.899,63.584-5.42
	c83.965,5.547,168.518,8.511,252.573,13.7C377.562,22.557,408.394,23.629,441.812,24.671z"/>
<g>
	<path fill="#FFFFFF" d="M252.089,210.101c-0.381,0.889-0.879,1.661-1.491,2.317c-0.614,0.657-1.312,1.217-2.096,1.682
		c-0.783,0.466-1.629,0.836-2.539,1.111c-0.91,0.276-1.809,0.455-2.697,0.54c-1.101,0.085-2.201,0.138-3.301,0.159
		c-1.101,0.022-2.158-0.137-3.174-0.476c-0.932-0.719-1.598-1.619-2-2.698s-0.772-2.168-1.11-3.269
		c-1.523-6.051-2.38-12.229-2.571-18.535c-0.189-6.305-0.138-12.653,0.159-19.043c0.169-1.777,0.243-3.501,0.222-5.173
		c-0.021-1.671,0.011-3.374,0.096-5.11c-3.217,4.951-6.052,10.04-8.506,15.266c-2.455,5.227-4.677,10.611-6.665,16.155
		c-0.593,1.355-1.164,2.751-1.714,4.189c-0.551,1.439-1.059,2.856-1.523,4.253c-0.297,0.593-0.625,1.206-0.984,1.841
		s-0.772,1.228-1.237,1.777c-0.466,0.55-0.995,1.016-1.587,1.396c-0.593,0.381-1.27,0.593-2.031,0.635
		c-1.312,0.127-2.55,0.022-3.713-0.317c-1.165-0.338-2.233-0.846-3.206-1.523c-0.974-0.676-1.831-1.492-2.571-2.444
		s-1.344-1.978-1.809-3.079c-0.805-1.989-1.45-3.977-1.936-5.967c-0.487-1.989-0.921-4.062-1.302-6.221
		c-0.254-2.116-0.562-4.231-0.921-6.348c-0.359-2.116-0.729-4.253-1.11-6.411v0.889c-0.17,0.931-0.275,1.863-0.317,2.793
		c-0.043,0.931-0.17,1.863-0.381,2.793c-0.043,0.931-0.106,1.841-0.19,2.729c-0.085,0.889-0.127,1.799-0.127,2.729
		c-0.085,1.185-0.17,2.391-0.254,3.618c-0.085,1.228-0.106,2.434-0.063,3.618c0,1.058,0.073,2.095,0.223,3.11
		c0.147,1.016,0.264,2.031,0.349,3.047c0.084,1.058,0.18,2.095,0.286,3.11c0.104,1.016,0.115,2.053,0.031,3.11
		c0.042,1.101-0.074,2.264-0.35,3.491c-0.275,1.228-0.729,2.349-1.364,3.364s-1.439,1.799-2.412,2.349
		c-0.974,0.55-2.158,0.698-3.555,0.444c-1.904-0.211-3.64-0.803-5.205-1.777c-1.566-0.973-2.729-2.263-3.491-3.872
		c-1.566-3.342-2.349-6.813-2.349-10.41c-0.381-4.231-0.54-8.495-0.476-12.791c0.062-4.294,0.285-8.579,0.666-12.854
		c0.296-3.936,0.782-7.829,1.46-11.68c0.677-3.85,1.523-7.702,2.539-11.553c0.592-2.116,1.259-4.21,1.999-6.284
		c0.74-2.073,1.661-4.083,2.762-6.03c0.508-0.93,1.047-1.894,1.619-2.888c0.57-0.994,1.205-1.925,1.904-2.793
		c0.697-0.867,1.48-1.619,2.348-2.253s1.873-1.057,3.016-1.27c1.692-0.254,3.216-0.095,4.57,0.476
		c1.354,0.571,2.539,1.396,3.555,2.476s1.873,2.307,2.57,3.682c0.699,1.375,1.217,2.761,1.556,4.158
		c0.677,3.386,1.322,6.729,1.937,10.029c0.612,3.301,1.301,6.602,2.062,9.902c0.169,0.847,0.434,1.672,0.793,2.476
		c0.359,0.804,0.646,1.609,0.857,2.412c2.115-3.639,4.253-7.257,6.411-10.854c2.158-3.596,4.358-7.194,6.602-10.791
		c1.058-1.396,2.104-2.888,3.142-4.475s2.158-3.088,3.365-4.507c1.205-1.417,2.527-2.666,3.967-3.745
		c1.438-1.079,3.067-1.787,4.888-2.126c2.327,0.212,4.358,0.804,6.094,1.777c1.734,0.974,3.216,2.222,4.443,3.745
		c1.227,1.523,2.211,3.248,2.952,5.173c0.739,1.926,1.301,3.936,1.682,6.03s0.613,4.221,0.698,6.379
		c0.084,2.158,0.063,4.211-0.063,6.157c0,1.355-0.085,2.688-0.254,3.999c-0.17,1.312-0.339,2.645-0.508,3.999
		c-0.254,1.355-0.466,2.708-0.635,4.062c-0.17,1.355-0.317,2.708-0.444,4.062c-0.254,3.216-0.233,6.37,0.063,9.458
		c0.296,3.089,0.635,6.179,1.016,9.268c0.381,2.92,0.719,5.808,1.016,8.665C252.067,204.292,252.173,207.181,252.089,210.101z"/>
	<path fill="#FFFFFF" d="M331.371,209.339c-0.339,1.65-1.133,3.069-2.381,4.253c-1.248,1.185-2.697,1.904-4.348,2.158
		c-1.354,0.212-2.74,0.201-4.158-0.032c-1.418-0.232-2.592-0.878-3.522-1.936c-0.72-1.227-1.196-2.571-1.429-4.031
		s-0.434-2.888-0.603-4.285c-0.17-1.354-0.339-2.708-0.508-4.062c-0.17-1.354-0.402-2.708-0.698-4.062
		c-0.678-0.254-1.376-0.465-2.095-0.635c-0.72-0.168-1.46-0.211-2.222-0.127c-2.031,0-4.021,0.127-5.967,0.381
		c-1.947,0.254-3.894,0.571-5.84,0.952c-1.862,0.423-3.725,0.868-5.586,1.333c-1.862,0.466-3.576,1.312-5.142,2.539
		c-0.847,0.72-1.407,1.566-1.683,2.539c-0.275,0.974-0.519,1.926-0.729,2.856c-0.17,1.101-0.339,2.201-0.508,3.301
		c-0.17,1.101-0.529,2.137-1.079,3.11c-0.593,1.101-1.471,1.82-2.635,2.158c-1.164,0.339-2.274,0.444-3.332,0.317
		c-1.523-0.254-2.878-0.857-4.062-1.809c-1.186-0.952-2.18-2.041-2.983-3.269c-0.762-1.227-1.354-2.549-1.777-3.967
		c-0.424-1.417-0.635-2.866-0.635-4.348c0.127-2.624,0.592-5.194,1.396-7.712c0.804-2.517,1.756-5.004,2.856-7.458
		c1.185-2.75,2.391-5.427,3.618-8.03c1.227-2.603,2.433-5.237,3.618-7.903c1.354-4.316,2.813-8.579,4.38-12.791
		c1.565-4.21,3.11-8.432,4.634-12.664c0.846-1.692,1.724-3.523,2.635-5.491c0.909-1.968,1.956-3.809,3.142-5.522
		c1.185-1.714,2.56-3.215,4.126-4.507c1.565-1.291,3.428-2.126,5.586-2.507c1.946,0,3.809,0.403,5.586,1.206
		c1.777,0.804,3.343,1.82,4.697,3.047c1.48,1.228,2.719,2.677,3.713,4.348c0.994,1.672,1.852,3.438,2.571,5.3
		c0.465,1.777,0.867,3.534,1.206,5.269c0.338,1.736,0.74,3.47,1.206,5.205c1.396,6.941,2.761,13.86,4.095,20.757
		c1.332,6.898,2.549,13.86,3.649,20.884c0.338,1.185,0.571,2.402,0.698,3.65c0.127,1.249,0.338,2.486,0.635,3.713
		c0.169,1.228,0.243,2.466,0.223,3.713c-0.022,1.249-0.139,2.507-0.35,3.777V209.339z M308.202,175.442
		c0.042-2.031-0.074-4.041-0.349-6.03c-0.276-1.989-0.635-3.957-1.08-5.903c-0.443-1.946-0.931-3.882-1.459-5.808
		c-0.53-1.925-1.048-3.84-1.556-5.745c-1.354,1.863-2.529,3.799-3.522,5.808c-0.995,2.01-1.916,4.073-2.762,6.189
		c-0.762,2.074-1.45,4.189-2.062,6.348c-0.614,2.158-1.006,4.316-1.175,6.475l-0.127,1.206v1.079v-0.254
		c1.1,0.085,2.222,0.127,3.364,0.127s2.264,0.042,3.364,0.127h1.841c0.55,0,1.143-0.053,1.777-0.159
		c0.635-0.105,1.227-0.307,1.777-0.603c0.55-0.295,1.016-0.676,1.396-1.143C308.012,176.691,308.202,176.12,308.202,175.442z"/>
	<path fill="#FFFFFF" d="M406.908,203.436c-0.127,0.72-0.424,1.323-0.889,1.809c-0.466,0.487-0.974,0.92-1.523,1.301
		c-1.523,1.058-3.09,1.968-4.697,2.729c-1.608,0.762-3.259,1.428-4.951,2c-1.693,0.571-3.407,1.101-5.142,1.587
		c-1.735,0.487-3.449,0.984-5.142,1.492c-3.428,0.847-6.866,1.534-10.315,2.063s-6.908,0.708-10.378,0.54
		c-1.735-0.127-3.322-0.571-4.761-1.333c-1.439-0.762-2.729-1.714-3.872-2.856s-2.138-2.444-2.983-3.904
		c-0.847-1.46-1.523-2.952-2.031-4.475c-1.186-3.047-1.958-6.21-2.316-9.49c-0.36-3.279-0.456-6.611-0.286-9.998
		c0-1.057,0.073-2.126,0.222-3.206s0.18-2.147,0.096-3.206c0.338-3.977,0.782-7.924,1.333-11.838
		c0.55-3.914,1.227-7.839,2.031-11.775c0.931-4.993,2.349-9.733,4.253-14.219c0.423-1.016,0.867-2.104,1.333-3.269
		c0.465-1.164,0.994-2.274,1.587-3.333c0.592-1.057,1.312-2.009,2.158-2.856c0.846-0.846,1.861-1.481,3.047-1.904
		c1.143-0.254,2.168-0.2,3.078,0.159c0.91,0.36,1.661,0.899,2.254,1.619c0.592,0.72,1.016,1.577,1.27,2.571
		c0.254,0.995,0.317,2,0.19,3.015c-0.085,2.666-0.233,5.3-0.444,7.903c-0.212,2.603-0.487,5.237-0.825,7.903
		c-0.17,2.371-0.435,4.708-0.794,7.014c-0.359,2.307-0.646,4.645-0.856,7.014c-0.339,2.328-0.593,4.666-0.762,7.014
		c-0.17,2.349-0.339,4.708-0.508,7.078c-0.085,1.566-0.17,3.164-0.254,4.792c-0.085,1.629-0.095,3.237-0.032,4.824
		c0.064,1.587,0.275,3.142,0.635,4.666s0.963,2.962,1.81,4.316c2.412-0.254,4.803-0.667,7.173-1.238
		c2.369-0.571,4.781-1.089,7.236-1.555c2.285-0.549,4.58-1.057,6.887-1.523c2.307-0.465,4.603-0.803,6.888-1.016
		c1.396-0.042,2.729,0.244,3.999,0.857c1.27,0.614,2.391,1.344,3.364,2.19c0.931,0.72,1.714,1.661,2.349,2.825
		C406.972,200.887,407.162,202.125,406.908,203.436z"/>
	<path fill="#FFFFFF" d="M477.748,193.216c-0.297,1.228-0.688,2.391-1.175,3.491c-0.486,1.101-1.153,2.117-1.999,3.047
		c-1.439,1.439-2.983,2.708-4.634,3.809c-1.65,1.101-3.375,2.117-5.174,3.047c-1.799,0.931-3.629,1.788-5.49,2.571
		c-1.862,0.784-3.703,1.577-5.522,2.38c-1.82,0.635-3.649,1.28-5.491,1.936c-1.84,0.657-3.692,1.249-5.554,1.777
		c-1.862,0.53-3.725,0.941-5.586,1.238c-1.862,0.295-3.745,0.422-5.649,0.381c-1.523-0.296-3.037-0.688-4.539-1.174
		s-2.74-1.322-3.713-2.507c-1.143-1.143-1.989-2.454-2.539-3.936c-0.551-1.481-1.079-2.961-1.587-4.443
		c-0.72-3.428-1.069-6.919-1.048-10.474s0.096-7.13,0.223-10.728c0.465-4.316,0.898-8.696,1.301-13.14s0.984-8.844,1.746-13.203
		c0.762-4.358,1.819-8.643,3.174-12.854c1.354-4.21,3.237-8.262,5.649-12.156c2.92-1.057,5.86-1.787,8.823-2.19
		c2.962-0.402,5.945-0.688,8.95-0.857c3.428-0.381,6.812-0.561,10.156-0.54c3.343,0.022,6.644,0.159,9.902,0.413
		c1.354,0.042,2.634,0.339,3.841,0.889c1.205,0.55,2.231,1.292,3.078,2.222c0.846,0.931,1.48,2.01,1.904,3.237
		c0.423,1.228,0.55,2.539,0.381,3.936c0.127,1.863-0.339,3.491-1.396,4.888c-0.339,0.847-0.92,1.471-1.746,1.873
		c-0.824,0.403-1.661,0.603-2.507,0.603c-4.782-0.381-9.564-0.624-14.346-0.73c-4.782-0.105-9.606-0.073-14.473,0.095
		c-0.551,1.355-1.059,2.729-1.523,4.126c-0.466,1.396-0.741,2.835-0.825,4.316v0.889c2.285-0.168,4.57-0.317,6.855-0.444
		s4.57-0.275,6.855-0.444c2.285-0.168,4.527-0.286,6.729-0.349c2.2-0.063,4.443-0.053,6.729,0.032
		c1.396-0.084,2.762,0.106,4.094,0.571c1.334,0.466,2.477,1.153,3.428,2.063c0.953,0.911,1.661,2,2.127,3.269
		c0.465,1.27,0.571,2.666,0.317,4.189c-0.043,1.312-0.424,2.423-1.143,3.333c-0.72,0.911-1.608,1.65-2.666,2.222
		c-1.059,0.571-2.19,1.006-3.396,1.301c-1.207,0.296-2.339,0.508-3.396,0.635c-3.301,0.339-6.602,0.646-9.902,0.92
		c-3.301,0.276-6.602,0.646-9.902,1.111c-1.481,0.254-2.92,0.752-4.316,1.492c-1.396,0.741-2.635,1.661-3.713,2.761
		c-1.08,1.101-1.947,2.349-2.604,3.745s-0.983,2.878-0.983,4.443c-0.212,1.904-0.148,3.745,0.19,5.522
		c0.338,1.777,0.74,3.555,1.206,5.332c3.004-0.338,5.893-1.132,8.665-2.38c2.771-1.248,5.511-2.592,8.22-4.031
		c2.793-1.523,5.681-2.846,8.665-3.967c2.982-1.121,6.019-1.809,9.108-2.063c1.227-0.168,2.285-0.021,3.174,0.444
		c0.889,0.466,1.597,1.122,2.126,1.968c0.529,0.847,0.878,1.809,1.048,2.888C478.044,191.089,478.002,192.159,477.748,193.216z"/>
</g>
</svg>
