<?xml version="1.0" encoding="utf-8"?>
<!-- Generator: Adobe Illustrator 16.0.0, SVG Export Plug-In . SVG Version: 6.00 Build 0)  -->
<!DOCTYPE svg PUBLIC "-//W3C//DTD SVG 1.1//EN" "http://www.w3.org/Graphics/SVG/1.1/DTD/svg11.dtd">
<svg version="1.1" id="Layer_1" xmlns="http://www.w3.org/2000/svg" xmlns:xlink="http://www.w3.org/1999/xlink" x="0px" y="0px"
	 width="207.333px" height="128.362px" viewBox="0 0 207.333 128.362" enable-background="new 0 0 207.333 128.362"
	 xml:space="preserve">
<g>
	<path fill="#FFFFFF" d="M168.156,120.369c0.603-0.056,1.212-0.075,1.807-0.178c0.603-0.104,1.183-0.354,1.786-0.432
		c1.896-0.241,3.822-0.315,5.694-0.674c1.785-0.342,3.567-0.692,5.361-0.988c0.451-0.073,0.876-0.333,1.325-0.38
		c0.59-0.062,1.208,0.094,1.787-0.003c1.704-0.286,3.407-0.603,5.09-0.996c1.695-0.397,3.371-0.885,5.045-1.368
		c0.882-0.255,1.744-0.512,2.36-0.163c2.208-0.479,3.242-2.025,4.139-3.686c0.911-1.689,1.84-3.388,1.571-5.5
		c0.756-0.099,0.237-0.66,0.246-1.021c0.046-1.842,0.052-3.686,0.034-5.527c-0.007-0.739-0.092-1.479-0.177-2.214
		c-0.027-0.235-0.308-0.582-0.233-0.665c0.628-0.709,0.222-1.542,0.24-2.276c0.039-1.532-0.138-3.074-0.297-4.604
		c-0.069-0.666-0.315-1.312-0.471-1.97c-0.02-0.085,0.025-0.186,0.041-0.279c0.086-0.517,0.206-1.031,0.241-1.552
		c0.014-0.193-0.267-0.407-0.251-0.6c0.072-0.869,0.076-1.714-0.354-2.512c-0.044-0.081,0.022-0.226,0.045-0.339
		c0.081-0.401,0.225-0.802,0.233-1.204c0.012-0.587-0.057-1.178-0.121-1.763c-0.086-0.786-0.01-1.667-0.351-2.329
		c-0.449-0.875,0.279-1.977-0.647-2.681c-0.008-0.006,0.02-0.047,0.018-0.071c-0.051-0.608-0.08-1.22-0.161-1.824
		c-0.066-0.49-0.196-0.972-0.266-1.304c0.062-0.391,0.167-0.663,0.132-0.917c-0.11-0.794-0.337-1.575-0.402-2.371
		c-0.15-1.839-0.204-3.686-0.355-5.523c-0.061-0.735-0.312-1.453-0.408-2.188c-0.154-1.199-0.19-2.415-0.388-3.606
		c-0.287-1.731-1.2-3.324-1.194-5.125c0.002-0.455,0.197-0.925,0.132-1.361c-0.201-1.328-0.476-2.646-0.745-3.962
		c-0.079-0.388-0.285-0.75-0.346-1.138c-0.054-0.34,0.051-0.701,0.021-1.048c-0.041-0.471-0.178-0.934-0.21-1.405
		c-0.037-0.546,0.026-1.1-0.012-1.646c-0.042-0.616-0.181-1.226-0.22-1.842c-0.071-1.133-0.005-2.281-0.169-3.397
		c-0.278-1.887-0.544-3.765-0.603-5.677c-0.055-1.761-0.321-3.511-0.186-5.285c0.05-0.647,0.014-1.408-0.288-1.947
		c-0.328-0.587-0.183-1.056-0.116-1.596c0.045-0.365,0.112-0.752,0.043-1.104c-0.166-0.845,0.085-1.782-0.534-2.536
		c-0.04-0.049,0.075-0.219,0.108-0.335c0.039-0.14,0.124-0.298,0.092-0.424c-0.464-1.813-0.931-3.627-1.437-5.429
		c-0.087-0.311-0.438-0.547-0.525-0.857c-0.378-1.336-1.146-2.313-2.434-2.865c-0.588-0.251-1.17-0.517-1.761-0.762
		c-1.124-0.467-2.235-0.972-3.384-1.367c-0.783-0.27-1.617-0.407-2.437-0.558c-1.174-0.216-2.358-0.373-3.533-0.584
		c-1.116-0.2-2.226-0.444-3.341-0.657c-0.84-0.16-1.685-0.301-2.526-0.453c-0.361-0.065-0.718-0.158-1.081-0.208
		c-1.072-0.145-2.144-0.332-3.222-0.394c-1.5-0.086-3.007-0.109-4.51-0.093c-1.258,0.015-2.514,0.149-3.771,0.184
		c-1.232,0.032-2.466-0.01-3.699,0.008c-1.163,0.016-2.326,0.111-3.488,0.091c-1.635-0.029-3.268-0.142-4.902-0.202
		c-0.66-0.024-1.322-0.016-1.982-0.008c-2.198,0.025-4.397,0.027-6.594,0.098c-1.292,0.041-2.582,0.179-3.869,0.31
		c-0.276,0.027-0.471-0.038-0.723-0.114c-0.372-0.111-0.828,0.101-1.244,0.082c-1.374-0.062-2.751-0.273-4.12-0.226
		c-1.805,0.063-3.604,0.31-5.402,0.499c-0.531,0.056-1.052,0.244-1.582,0.267c-1.018,0.045-2.038-0.01-3.057,0.019
		c-2.086,0.06-4.17,0.158-6.256,0.22c-1.023,0.029-2.052-0.033-3.073,0.028c-2.054,0.124-4.104,0.33-6.158,0.453
		c-1.553,0.093-3.111,0.088-4.665,0.163c-1.667,0.08-3.333,0.307-4.995,0.275c-1.322-0.024-2.548,0.48-3.881,0.416
		c-1.11-0.053-2.239,0.269-3.358,0.431c-2.348,0.339-4.685,0.781-7.078,0.624c-1.07-0.07-2.103,0.271-3.222,0.087
		c-0.986-0.162-2.058,0.238-3.097,0.341c-0.688,0.068-1.385,0.032-2.077,0.074c-1.707,0.104-3.412,0.235-5.119,0.334
		c-1.32,0.075-2.646,0.07-3.962,0.186c-1.859,0.164-3.711,0.42-5.568,0.608c-0.847,0.086-1.706,0.065-2.55,0.168
		c-0.896,0.109-1.783,0.296-2.668,0.472c-0.412,0.082-0.809,0.29-1.22,0.315c-0.72,0.044-1.462-0.112-2.167-0.002
		c-1.945,0.304-3.882,0.608-5.857,0.702c-1.118,0.054-2.217,0.417-3.333,0.592c-1.117,0.175-2.243,0.289-3.365,0.43
		c-0.041-0.065-0.082-0.131-0.123-0.196c0.326-0.401,0.69-0.779,0.955-1.217c0.093-0.153-0.062-0.456-0.103-0.69
		c-0.183,0.056-0.42,0.058-0.537,0.177c-0.265,0.271-0.438,0.637-0.71,0.898c-0.396,0.38-0.842,0.711-1.278,1.047
		c-0.228,0.176-0.51,0.288-0.714,0.484c-0.212,0.204-0.542,0.517-0.499,0.71c0.099,0.443,0.155,1.105,0.873,1.011
		c0.709-0.095,1.405-0.287,2.207-0.458c0.376,2.185,0.901,4.213,2.275,5.928c-0.439,0.149-0.774,0.318-1.126,0.37
		c-0.61,0.091-1.234,0.087-1.847,0.163c-0.492,0.062-1.057,0.057-1.445,0.306c-0.49,0.315-0.962,0.293-1.292,0.019
		c-0.646-0.537-1.314-1.111-1.32-2.102c-0.003-0.469-0.126-0.939-0.222-1.404c-0.069-0.334-0.223-0.654-0.268-0.99
		c-0.093-0.692-0.139-1.391-0.199-2.033c0.33-0.109,0.7-0.126,0.874-0.319c0.187-0.208,0.264-0.586,0.244-0.88
		c-0.013-0.189-0.258-0.457-0.453-0.516c-0.307-0.094-0.659-0.03-0.991-0.053c-2.087-0.144-4.093,0.412-6.128,0.712
		c-0.643,0.096-1.267,0.315-1.91,0.403c-0.774,0.105-1.57,0.069-2.338,0.201c-2.454,0.424-4.905,0.867-7.345,1.362
		c-1.147,0.232-2.316,0.224-3.397-0.034c-0.75-0.179-1.269-0.103-1.844,0.273C9.086,13.835,8.724,14.1,8.697,14.07
		c-0.67-0.75-0.92,0.209-1.339,0.346c-1.016,0.331-1.474,1.192-1.816,2.155c-0.185,0.521-0.413,1.006-0.555,1.557
		c-0.146,0.565-0.369,1.173-0.578,1.756c-0.362,1.014,0.134,2.148-0.495,3.106c-0.027,0.041-0.042,0.097-0.044,0.146
		c-0.044,1.468-0.117,2.936-0.121,4.403c-0.004,1.4,0.053,2.801,0.109,4.201c0.015,0.375,0.127,0.745,0.188,1.119
		c0.056,0.351,0.267,0.812,0.12,1.032c-0.364,0.547-0.117,1.096-0.119,1.606c-0.004,1.346,0.182,2.69,0.259,4.038
		c0.086,1.508,0.1,3.02,0.213,4.524c0.125,1.667,0.339,3.327,0.491,4.992c0.169,1.854,0.286,3.714,0.477,5.565
		c0.132,1.281,0.375,2.551,0.523,3.83c0.125,1.081,0.18,2.171,0.277,3.256c0.092,1.028,0.267,2.054,0.286,3.084
		c0.033,1.779-0.063,3.562-0.036,5.342c0.022,1.44,0.128,2.882,0.231,4.32c0.182,2.53,0.386,5.059,0.589,7.587
		c0.102,1.273,0.271,2.543,0.322,3.818c0.06,1.51-0.052,3.029,0.052,4.535c0.119,1.727,0.389,3.444,0.604,5.164
		c0.045,0.361,0.164,0.714,0.206,1.076c0.08,0.695,0.114,1.396,0.195,2.092c0.129,1.112,0.299,2.221,0.416,3.335
		c0.076,0.719,0.067,1.447,0.136,2.167c0.063,0.659,0.238,1.31,0.263,1.968c0.078,2.047,0.535,4.028,0.982,6.01
		c0.294,1.302,0.689,2.58,1.024,3.872c0.455,1.755,1.481,3.095,2.815,4.301c0.384,0.347,0.847,0.518,1.213,0.88
		c1.082,1.071,2.216,2.108,3.81,2.372c0.261,0.044,0.533,0.024,0.797,0.054c1.781,0.201,3.56,0.424,5.342,0.609
		c1.796,0.187,3.596,0.343,5.395,0.501c0.552,0.049,1.108,0.091,1.662,0.079c0.721-0.015,1.44-0.091,2.162-0.13
		c0.894-0.049,1.774,0.493,2.684,0.069c0.056-0.026,0.166,0.081,0.256,0.104c0.382,0.102,0.762,0.243,1.152,0.283
		c1.614,0.169,3.231,0.318,4.85,0.452c1.3,0.107,2.607,0.137,3.902,0.283c1.595,0.181,3.201,0.138,4.791,0.158
		c1.534,0.019,2.947,0.708,4.524,0.491c1.037-0.142,2.138,0.217,3.213,0.307c0.678,0.057,1.362,0.049,2.043,0.038
		c0.362-0.007,0.806-0.238,1.072-0.099c1.282,0.673,2.693,0.463,4.034,0.646c1.313,0.18,2.67,0.047,4.008,0.052
		c0.051,0,0.103,0.003,0.154,0.003c0.894,0.005,1.789,0.024,2.683,0.009c0.632-0.012,1.266-0.123,1.895-0.099
		c0.953,0.036,1.902,0.164,2.854,0.231c0.883,0.062,1.778,0.192,2.651,0.113c0.808-0.073,1.486-0.007,2.118,0.537
		c0.114,0.099,0.618-0.002,0.648-0.1c0.213-0.695,0.766-0.531,1.253-0.587c0.573-0.066,1.139-0.215,1.713-0.253
		c0.442-0.028,0.896,0.111,1.338,0.083c0.638-0.04,1.271-0.235,1.907-0.239c1.47-0.01,2.941,0.089,4.412,0.077
		c0.812-0.006,1.621-0.163,2.433-0.224c1.014-0.075,2.03-0.131,3.045-0.175c0.536-0.023,1.075,0.021,1.61-0.01
		c2.47-0.14,4.939-0.298,7.409-0.44c0.665-0.038,1.334-0.016,1.997-0.08c0.176-0.018,0.331-0.253,0.441-0.344
		c0.346,0.094,0.647,0.244,0.947,0.241c0.786-0.007,1.57-0.104,2.356-0.123c1.231-0.028,2.463-0.02,3.695-0.032
		c0.066-0.001,0.131-0.053,0.198-0.068c0.781-0.181,1.6-0.597,2.335-0.482c1.175,0.183,2.28,0.147,3.448-0.005
		c2.384-0.312,4.787-0.483,7.184-0.694c1.254-0.11,2.511-0.17,3.766-0.271c2.087-0.169,4.176-0.327,6.259-0.542
		c0.856-0.088,1.694-0.333,2.547-0.47c1.159-0.187,2.319-0.394,3.488-0.489c1.142-0.093,2.294-0.042,3.44-0.087
		c0.466-0.018,0.928-0.123,1.393-0.183c1.478-0.192,2.966-0.324,4.431-0.59c1.137-0.205,2.229-0.661,3.367-0.852
		c1.917-0.322,3.855-0.519,5.783-0.776c0.228-0.03,0.517-0.228,0.658-0.145C167.588,120.725,167.852,120.587,168.156,120.369z"/>
	<path fill-rule="evenodd" clip-rule="evenodd" d="M168.156,120.369c-0.305,0.218-0.568,0.355-1.018,0.093
		c-0.142-0.083-0.431,0.114-0.658,0.145c-1.928,0.258-3.866,0.454-5.783,0.776c-1.138,0.19-2.23,0.646-3.367,0.852
		c-1.465,0.266-2.953,0.397-4.431,0.59c-0.465,0.06-0.927,0.165-1.393,0.183c-1.146,0.045-2.299-0.006-3.44,0.087
		c-1.169,0.096-2.329,0.303-3.488,0.489c-0.853,0.137-1.69,0.382-2.547,0.47c-2.083,0.215-4.172,0.373-6.259,0.542
		c-1.255,0.102-2.512,0.161-3.766,0.271c-2.396,0.211-4.8,0.383-7.184,0.694c-1.168,0.152-2.273,0.188-3.448,0.005
		c-0.735-0.114-1.554,0.302-2.335,0.482c-0.067,0.016-0.132,0.067-0.198,0.068c-1.231,0.013-2.464,0.004-3.695,0.032
		c-0.786,0.019-1.57,0.116-2.356,0.123c-0.3,0.003-0.601-0.147-0.947-0.241c-0.111,0.091-0.266,0.326-0.441,0.344
		c-0.662,0.064-1.332,0.042-1.997,0.08c-2.47,0.143-4.938,0.301-7.409,0.44c-0.535,0.03-1.074-0.014-1.61,0.01
		c-1.016,0.044-2.031,0.1-3.045,0.175c-0.812,0.061-1.621,0.218-2.433,0.224c-1.47,0.012-2.941-0.087-4.412-0.077
		c-0.636,0.004-1.269,0.199-1.907,0.239c-0.442,0.028-0.896-0.111-1.338-0.083c-0.574,0.038-1.14,0.187-1.713,0.253
		c-0.487,0.056-1.04-0.108-1.253,0.587c-0.03,0.098-0.534,0.198-0.648,0.1c-0.632-0.544-1.31-0.61-2.118-0.537
		c-0.873,0.079-1.768-0.051-2.651-0.113c-0.953-0.067-1.902-0.195-2.854-0.231c-0.629-0.024-1.263,0.087-1.895,0.099
		c-0.894,0.016-1.789-0.004-2.683-0.009c-0.051,0-0.103-0.003-0.154-0.003c-1.338-0.005-2.694,0.128-4.008-0.052
		c-1.341-0.184-2.752,0.026-4.034-0.646c-0.266-0.14-0.709,0.092-1.072,0.099c-0.681,0.011-1.366,0.019-2.043-0.038
		c-1.076-0.09-2.176-0.448-3.213-0.307c-1.578,0.217-2.99-0.473-4.524-0.491c-1.59-0.021-3.196,0.022-4.791-0.158
		c-1.294-0.146-2.602-0.176-3.902-0.283c-1.618-0.134-3.235-0.283-4.85-0.452c-0.39-0.04-0.77-0.182-1.152-0.283
		c-0.09-0.023-0.2-0.131-0.256-0.104c-0.91,0.424-1.79-0.118-2.684-0.069c-0.721,0.039-1.44,0.115-2.162,0.13
		c-0.553,0.012-1.109-0.03-1.662-0.079c-1.799-0.158-3.598-0.314-5.395-0.501c-1.783-0.186-3.562-0.408-5.342-0.609
		c-0.265-0.029-0.536-0.01-0.797-0.054c-1.594-0.264-2.729-1.301-3.81-2.372c-0.366-0.362-0.829-0.533-1.213-0.88
		c-1.334-1.206-2.36-2.546-2.815-4.301c-0.335-1.292-0.73-2.57-1.024-3.872c-0.447-1.981-0.904-3.963-0.982-6.01
		c-0.025-0.658-0.2-1.309-0.263-1.968c-0.069-0.72-0.06-1.448-0.136-2.167c-0.117-1.114-0.287-2.223-0.416-3.335
		c-0.081-0.695-0.115-1.396-0.195-2.092c-0.042-0.362-0.16-0.715-0.206-1.076c-0.215-1.72-0.485-3.438-0.604-5.164
		c-0.104-1.506,0.008-3.025-0.052-4.535c-0.051-1.275-0.22-2.545-0.322-3.818C7.156,79.509,6.952,76.98,6.77,74.45
		c-0.103-1.438-0.208-2.88-0.231-4.32c-0.028-1.78,0.068-3.562,0.036-5.342c-0.019-1.03-0.193-2.056-0.286-3.084
		c-0.097-1.085-0.152-2.175-0.277-3.256c-0.148-1.279-0.392-2.549-0.523-3.83c-0.19-1.852-0.307-3.711-0.477-5.565
		c-0.152-1.665-0.366-3.325-0.491-4.992c-0.113-1.505-0.126-3.017-0.213-4.524c-0.077-1.348-0.264-2.692-0.259-4.038
		c0.001-0.511-0.246-1.06,0.119-1.606c0.147-0.22-0.064-0.682-0.12-1.032c-0.06-0.374-0.173-0.744-0.188-1.119
		c-0.056-1.4-0.113-2.801-0.109-4.201c0.003-1.468,0.076-2.936,0.121-4.403c0.001-0.049,0.017-0.104,0.044-0.146
		c0.628-0.958,0.132-2.093,0.495-3.106c0.208-0.583,0.432-1.19,0.578-1.756c0.142-0.551,0.37-1.036,0.555-1.557
		c0.342-0.963,0.8-1.824,1.816-2.155c0.419-0.137,0.669-1.096,1.339-0.346c0.026,0.029,0.389-0.235,0.591-0.368
		c0.575-0.376,1.094-0.452,1.844-0.273c1.081,0.258,2.25,0.267,3.397,0.034c2.44-0.495,4.892-0.938,7.345-1.362
		c0.768-0.132,1.564-0.096,2.338-0.201c0.643-0.088,1.268-0.308,1.91-0.403c2.035-0.3,4.041-0.855,6.128-0.712
		c0.332,0.022,0.684-0.041,0.991,0.053c0.194,0.059,0.44,0.326,0.453,0.516c0.021,0.294-0.057,0.672-0.244,0.88
		c-0.174,0.193-0.544,0.21-0.874,0.319c0.06,0.643,0.105,1.341,0.199,2.033c0.045,0.336,0.199,0.656,0.268,0.99
		c0.096,0.465,0.219,0.936,0.222,1.404c0.006,0.99,0.673,1.564,1.32,2.102c0.329,0.274,0.802,0.297,1.292-0.019
		c0.388-0.249,0.953-0.244,1.445-0.306c0.613-0.076,1.237-0.072,1.847-0.163c0.352-0.052,0.687-0.221,1.126-0.37
		c-1.374-1.715-1.898-3.743-2.275-5.928c-0.802,0.171-1.498,0.363-2.207,0.458c-0.718,0.095-0.773-0.567-0.873-1.011
		c-0.043-0.193,0.287-0.506,0.499-0.71c0.204-0.196,0.487-0.309,0.714-0.484c0.437-0.336,0.882-0.667,1.278-1.047
		c0.272-0.262,0.445-0.627,0.71-0.898c0.117-0.119,0.354-0.121,0.537-0.177c0.042,0.234,0.196,0.537,0.103,0.69
		c-0.265,0.438-0.629,0.815-0.955,1.217c0.041,0.065,0.082,0.131,0.123,0.196c1.122-0.141,2.249-0.255,3.365-0.43
		c1.115-0.175,2.215-0.538,3.333-0.592c1.975-0.094,3.912-0.398,5.857-0.702c0.705-0.11,1.447,0.046,2.167,0.002
		c0.411-0.025,0.808-0.233,1.22-0.315c0.886-0.176,1.773-0.362,2.668-0.472c0.844-0.103,1.703-0.082,2.55-0.168
		c1.857-0.188,3.709-0.444,5.568-0.608c1.316-0.115,2.642-0.11,3.962-0.186c1.707-0.099,3.412-0.23,5.119-0.334
		c0.691-0.042,1.389-0.006,2.077-0.074c1.039-0.103,2.111-0.503,3.097-0.341c1.12,0.185,2.152-0.157,3.222-0.087
		c2.393,0.157,4.73-0.285,7.078-0.624c1.12-0.162,2.248-0.483,3.358-0.431c1.333,0.064,2.559-0.44,3.881-0.416
		c1.663,0.031,3.329-0.195,4.995-0.275c1.554-0.075,3.112-0.07,4.665-0.163c2.055-0.123,4.104-0.329,6.158-0.453
		c1.021-0.062,2.049,0.001,3.073-0.028c2.086-0.062,4.17-0.16,6.256-0.22c1.019-0.028,2.039,0.026,3.057-0.019
		c0.53-0.022,1.051-0.211,1.582-0.267c1.799-0.189,3.598-0.436,5.402-0.499c1.369-0.048,2.746,0.164,4.12,0.226
		c0.416,0.019,0.872-0.193,1.244-0.082c0.252,0.076,0.446,0.142,0.723,0.114c1.287-0.131,2.577-0.269,3.869-0.31
		c2.196-0.07,4.396-0.072,6.594-0.098c0.66-0.008,1.322-0.017,1.982,0.008c1.635,0.061,3.268,0.173,4.902,0.202
		c1.162,0.021,2.325-0.075,3.488-0.091c1.233-0.018,2.467,0.024,3.699-0.008c1.258-0.034,2.514-0.169,3.771-0.184
		c1.503-0.017,3.01,0.007,4.51,0.093c1.078,0.062,2.149,0.249,3.222,0.394c0.363,0.05,0.72,0.143,1.081,0.208
		c0.842,0.152,1.687,0.293,2.526,0.453c1.115,0.213,2.225,0.457,3.341,0.657c1.175,0.211,2.359,0.368,3.533,0.584
		c0.819,0.15,1.653,0.288,2.437,0.558c1.148,0.396,2.26,0.9,3.384,1.367c0.591,0.245,1.173,0.511,1.761,0.762
		c1.288,0.552,2.056,1.529,2.434,2.865c0.088,0.311,0.438,0.547,0.525,0.857c0.506,1.802,0.973,3.615,1.437,5.429
		c0.032,0.126-0.053,0.284-0.092,0.424c-0.033,0.116-0.148,0.286-0.108,0.335c0.619,0.754,0.368,1.691,0.534,2.536
		c0.069,0.352,0.002,0.738-0.043,1.104c-0.066,0.54-0.212,1.009,0.116,1.596c0.302,0.539,0.338,1.3,0.288,1.947
		c-0.136,1.774,0.131,3.524,0.186,5.285c0.059,1.912,0.324,3.79,0.603,5.677c0.164,1.116,0.098,2.265,0.169,3.397
		c0.039,0.616,0.178,1.226,0.22,1.842c0.038,0.547-0.025,1.101,0.012,1.646c0.032,0.472,0.169,0.935,0.21,1.405
		c0.03,0.347-0.074,0.708-0.021,1.048c0.061,0.388,0.267,0.75,0.346,1.138c0.27,1.316,0.544,2.634,0.745,3.962
		c0.065,0.437-0.13,0.906-0.132,1.361c-0.006,1.801,0.907,3.394,1.194,5.125c0.197,1.191,0.233,2.407,0.388,3.606
		c0.096,0.734,0.348,1.452,0.408,2.188c0.151,1.838,0.205,3.685,0.355,5.523c0.065,0.796,0.292,1.577,0.402,2.371
		c0.035,0.254-0.07,0.526-0.132,0.917c0.069,0.332,0.199,0.813,0.266,1.304c0.081,0.604,0.11,1.216,0.161,1.824
		c0.002,0.024-0.025,0.065-0.018,0.071c0.927,0.704,0.198,1.806,0.647,2.681c0.341,0.662,0.265,1.543,0.351,2.329
		c0.064,0.585,0.133,1.176,0.121,1.763c-0.009,0.402-0.152,0.803-0.233,1.204c-0.022,0.113-0.089,0.258-0.045,0.339
		c0.43,0.798,0.426,1.643,0.354,2.512c-0.016,0.192,0.265,0.406,0.251,0.6c-0.035,0.521-0.155,1.035-0.241,1.552
		c-0.016,0.094-0.061,0.194-0.041,0.279c0.155,0.657,0.401,1.304,0.471,1.97c0.159,1.53,0.336,3.072,0.297,4.604
		c-0.019,0.734,0.388,1.567-0.24,2.276c-0.074,0.083,0.206,0.43,0.233,0.665c0.085,0.735,0.17,1.475,0.177,2.214
		c0.018,1.842,0.012,3.686-0.034,5.527c-0.009,0.36,0.51,0.922-0.246,1.021c0.269,2.112-0.66,3.811-1.571,5.5
		c-0.896,1.66-1.931,3.206-4.139,3.686c-0.616-0.349-1.479-0.092-2.36,0.163c-1.674,0.483-3.35,0.971-5.045,1.368
		c-1.683,0.394-3.386,0.71-5.09,0.996c-0.579,0.097-1.197-0.059-1.787,0.003c-0.449,0.047-0.874,0.307-1.325,0.38
		c-1.794,0.296-3.576,0.646-5.361,0.988c-1.872,0.358-3.798,0.433-5.694,0.674c-0.604,0.077-1.184,0.327-1.786,0.432
		C169.368,120.294,168.759,120.313,168.156,120.369z M152.344,108.321c0.127-0.154,0.21-0.359,0.319-0.374
		c1.183-0.156,2.368-0.289,3.555-0.412c0.421-0.044,0.859,0.015,1.266-0.079c0.58-0.135,1.073-0.616,1.749-0.388
		c0.135,0.046,0.328-0.058,0.486-0.115c0.292-0.105,0.571-0.302,0.868-0.331c0.798-0.077,1.609-0.031,2.401-0.137
		c0.98-0.13,1.948-0.36,2.921-0.554c1.054-0.209,2.104-0.438,3.162-0.629c0.208-0.037,0.439,0.081,0.661,0.093
		c0.206,0.011,0.43,0.018,0.617-0.05c0.308-0.111,0.593-0.413,0.886-0.411c1.402,0.009,2.731-0.604,4.192-0.299
		c0.866,0.182,1.83-0.142,2.753-0.181c1.277-0.054,2.56-0.112,3.835-0.06c1.355,0.056,2.703,0.309,4.058,0.348
		c1.535,0.044,3.124,0.342,4.561-0.491c0.283-0.164,0.635-0.479,0.67-0.759c0.16-1.301,0.3-2.613,0.294-3.921
		c-0.008-1.56-0.145-3.12-0.278-4.676c-0.113-1.318-0.342-2.628-0.443-3.946c-0.078-1.011,0.02-2.036-0.064-3.046
		c-0.156-1.867-0.421-3.725-0.577-5.591c-0.093-1.106-0.048-2.225-0.095-3.335c-0.051-1.211-0.138-2.42-0.206-3.629
		c-0.059-1.047-0.083-2.096-0.175-3.139c-0.176-1.985-0.399-3.966-0.581-5.95c-0.085-0.938-0.115-1.88-0.18-2.819
		c-0.081-1.188-0.181-2.374-0.255-3.562c-0.068-1.104-0.097-2.209-0.174-3.312c-0.126-1.79-0.269-3.579-0.421-5.367
		c-0.102-1.196-0.235-2.39-0.352-3.585c-0.111-1.148-0.241-2.295-0.32-3.445c-0.074-1.092-0.071-2.189-0.143-3.282
		c-0.094-1.44-0.191-2.883-0.351-4.316c-0.162-1.446-0.327-2.9-0.626-4.322c-0.441-2.105-0.967-4.195-1.528-6.272
		c-0.291-1.072-0.628-2.16-1.143-3.137c-0.595-1.13-1.416-2.14-2.123-3.212c-0.533-0.809-1.004-1.682-2.085-1.862
		c-0.863-0.144-1.73-0.261-2.597-0.391c-0.295-0.044-0.604-0.175-0.882-0.125c-2.184,0.391-4.365,0.058-6.547,0.026
		c-0.4-0.006-0.805,0.134-1.204,0.117c-1.533-0.061-3.064-0.176-4.599-0.235c-1.31-0.051-2.622-0.047-3.933-0.081
		c-0.637-0.016-1.271-0.073-1.908-0.093c-1.149-0.034-2.299-0.077-3.449-0.076c-1.683,0-3.365,0.061-5.047,0.045
		c-0.946-0.009-1.946,0.29-2.82-0.37c-0.51,0.572-1.167,0.29-1.778,0.293c-1.024,0.005-2.05-0.019-3.072,0.021
		c-1.687,0.066-3.37,0.205-5.056,0.253c-1.403,0.04-2.81-0.021-4.215-0.011c-1.574,0.013-3.149,0.088-4.724,0.075
		c-2.155-0.016-4.31-0.13-6.464-0.122c-1.342,0.005-2.683,0.2-4.025,0.215c-0.383,0.005-0.971-0.23-1.107-0.522
		c-0.211-0.449-0.044-1.024,0.539-1.262c1.472-0.599,2.971-0.237,4.461-0.098c0.515,0.048,1.026,0.138,1.533,0.208
		c-0.335-1.104-0.645-2.011-0.879-2.935c-0.161-0.636-0.245-1.294-0.318-1.946c-0.124-1.107-0.226-2.218-0.31-3.329
		c-0.051-0.679-0.05-1.36-0.076-2.168c-5.179,0.224-10.171,0.44-15.228,0.659c0.13,1.047,0.389,1.896,0.307,2.709
		c-0.198,1.964-0.084,3.902,0.234,5.83c0.102,0.614,0.194,1.425,1.116,1.458c0.341,0.013,0.69-0.182,1.032-0.169
		c0.521,0.019,1.039,0.205,1.557,0.196c0.863-0.015,1.728-0.105,2.586-0.204c0.585-0.068,1.163-0.206,1.586-0.283
		c-0.225-0.646-0.509-1.146-0.561-1.668c-0.178-1.812-0.333-3.632-0.375-5.452c-0.016-0.696,0.244-1.42,0.489-2.09
		c0.088-0.239,0.503-0.357,0.77-0.531c0.184,0.307,0.499,0.604,0.523,0.923c0.05,0.641-0.071,1.292-0.101,1.939
		c-0.059,1.257-0.214,2.521-0.123,3.769c0.09,1.228,0.436,2.437,0.695,3.784c-0.531,0.469-1.374,0.616-2.24,0.669
		c-0.875,0.054-1.751,0.071-2.627,0.108c-1.26,0.053-2.522,0.073-3.778,0.176c-0.834,0.068-1.658,0.26-2.487,0.39
		c-0.169,0.026-0.343,0.041-0.513,0.033c-0.307-0.015-0.616-0.096-0.917-0.069c-0.526,0.048-1.044,0.176-1.57,0.235
		c-1.607,0.182-3.215,0.359-4.826,0.514c-1.427,0.137-2.876,0.134-4.282,0.383c-1.933,0.342-3.829,0.7-5.824,0.53
		c-1.661-0.143-3.346,0.014-5.021,0.021c-0.434,0.002-0.873-0.118-1.299-0.074c-0.772,0.079-1.533,0.315-2.305,0.348
		c-1.195,0.05-2.396-0.031-3.594-0.031c-1.655,0-3.311,0.031-4.965,0.036c-1.137,0.003-2.274-0.015-3.411-0.026
		c-1.832-0.018-3.643,0.281-5.498,0.148c-2.099-0.15-4.225,0.1-6.339,0.109c-1.557,0.007-3.114-0.085-4.671-0.146
		c-1.584-0.062-3.174-0.257-4.751-0.182c-1.377,0.064-2.743,0.408-4.108,0.655c-1.013,0.184-2.011,0.459-3.027,0.607
		c-1.554,0.227-3.122,0.353-4.677,0.571c-1.484,0.209-2.957,0.492-4.438,0.723c-1.453,0.226-2.92,0.374-4.363,0.653
		c-1.061,0.206-2.084,0.597-3.138,0.854c-1.406,0.343-2.484,1.083-3.104,2.413c-0.313,0.673-0.659,1.344-0.858,2.053
		c-0.201,0.716-0.25,1.477-0.347,2.22c-0.218,1.676-0.476,3.349-0.622,5.03c-0.124,1.427-0.123,2.865-0.162,4.299
		c-0.03,1.101-0.051,2.202-0.051,3.303c0,0.837,0.058,1.674,0.053,2.51c-0.006,1.033,0.016,2.073-0.1,3.096
		c-0.08,0.702-0.436,1.377,0.135,2.034c0.064,0.075-0.042,0.286-0.045,0.435c-0.024,1.048-0.094,2.098-0.051,3.143
		c0.053,1.295,0.322,2.59,0.274,3.876c-0.044,1.171,0.498,2.281,0.042,3.526c-0.295,0.806-0.032,1.842,0.08,2.763
		c0.181,1.484,0.458,2.957,0.663,4.438c0.11,0.792,0.176,1.592,0.226,2.391c0.058,0.924,0.017,1.856,0.129,2.771
		c0.122,1.001,0.392,1.982,0.55,2.98c0.066,0.419,0.011,0.857,0.011,1.508c-0.241,0.222-0.075,0.619,0.074,1.156
		c0.329,1.186,0.7,2.467,0.544,3.642c-0.104,0.777,0.055,1.333,0.266,1.975c0.094,0.285,0.19,0.574,0.235,0.869
		c0.135,0.875,0.223,1.758,0.371,2.63c0.216,1.273,0.499,2.537,0.695,3.813c0.134,0.869,0.078,1.773,0.266,2.627
		c0.401,1.814,0.951,3.597,1.351,5.411c0.258,1.166,0.474,2.366,0.476,3.552c0.001,0.543,0.442,0.639,0.514,1.043
		c0.236,1.323,0.505,2.643,0.808,3.952c0.531,2.291,2.084,3.624,4.268,4.186c1.675,0.432,3.398,0.679,5.107,0.971
		c0.915,0.157,1.89,0.095,2.755,0.381c1.524,0.503,3.056,0.813,4.656,0.922c1.849,0.125,3.688,0.503,5.534,0.519
		c2.916,0.025,5.834-0.168,8.751-0.25c0.678-0.02,1.365,0.111,2.037,0.049c2.078-0.194,4.147-0.494,6.227-0.664
		c1.458-0.119,2.926-0.098,4.391-0.128c0.277-0.006,0.555,0.038,0.833,0.06c0.186,0.045,0.383-0.142,0.581-0.143
		c1.281-0.005,2.562,0.045,3.842,0.048c0.814,0.002,1.631-0.011,2.441-0.078c1.465-0.122,2.922-0.349,4.389-0.422
		c1.529-0.077,3.065-0.011,4.597-0.034c1.015-0.015,2.03-0.073,3.045-0.118c0.73-0.032,1.46-0.067,2.189-0.113
		c1.009-0.064,2.017-0.177,3.026-0.2c1.155-0.027,2.289-0.255,3.459-0.224c0.867,0.024,1.744-0.486,2.618-0.49
		c1.446-0.006,2.868-0.41,4.347-0.085c0.724,0.159,1.548-0.152,2.329-0.238c0.369-0.04,0.742-0.08,1.111-0.062
		c0.662,0.029,1.325,0.171,1.982,0.142c1.103-0.049,2.201-0.187,3.3-0.303c0.582-0.062,1.158-0.18,1.74-0.231
		c1.033-0.092,2.068-0.163,3.103-0.225c0.783-0.045,1.591,0.25,2.338-0.302c0.206-0.152,0.618-0.033,0.936-0.023
		c0.166,0.005,0.33,0.06,0.496,0.064c0.136,0.003,0.271-0.044,0.408-0.053c0.296-0.021,0.593-0.039,0.889-0.041
		c0.147-0.001,0.295,0.044,0.442,0.056c0.199,0.017,0.439,0.1,0.594,0.021c1.22-0.629,2.502-0.548,3.801-0.405
		c0.37,0.04,0.749,0.006,1.019,0.006c0.614-0.131,1.124-0.287,1.644-0.341c1.275-0.131,2.558-0.196,3.833-0.325
		c0.544-0.055,1.078-0.197,1.614-0.312c0.181-0.038,0.349-0.135,0.528-0.17c0.402-0.078,0.811-0.125,1.212-0.204
		c0.219-0.042,0.481-0.237,0.635-0.167c0.804,0.367,1.563-0.062,2.342-0.066c0.25-0.002,0.566,0.02,0.736-0.116
		c0.812-0.646,1.623-0.722,2.535-0.218c0.171,0.095,0.518,0.029,0.704-0.088c0.68-0.428,1.309-0.297,1.938,0.076
		C145.017,108.817,151.53,107.814,152.344,108.321z M126.227,113.027c-0.963,0.304-2.126-0.009-3.289,0.2
		c-0.836,0.15-1.71,0.08-2.563,0.15c-1.788,0.146-3.573,0.347-5.362,0.477c-1.565,0.113-3.135,0.155-4.702,0.242
		c-0.633,0.036-1.264,0.122-1.898,0.157c-1.372,0.077-2.746,0.109-4.116,0.206c-2.301,0.164-4.597,0.389-6.898,0.539
		c-1.5,0.099-3.006,0.088-4.508,0.166c-1.814,0.096-3.625,0.238-5.438,0.352c-1.392,0.088-2.785,0.15-4.177,0.243
		c-1.755,0.116-3.508,0.251-5.262,0.379c-1.15,0.085-2.299,0.217-3.45,0.249c-1.724,0.05-3.45,0.012-5.175,0.045
		c-2.057,0.041-4.115,0.084-6.169,0.189c-2.248,0.115-4.492,0.312-6.738,0.454c-1.283,0.081-2.569,0.107-3.852,0.194
		c-0.361,0.024-0.714,0.179-1.07,0.273c0.624,2.294,0.647,2.725,0.357,3.146c0.058,0.68,0.154,1.15,0.126,1.614
		c-0.067,1.105,0.212,1.847,1.004,2.131c0.347,0.125,0.777,0.002,1.169,0.016c1.983,0.07,3.953,0.237,5.914,0.58
		c0.622,0.109,1.304-0.121,1.999-0.201c-0.156-0.385-0.296-0.607-0.336-0.848c-0.186-1.113-0.376-2.228-0.501-3.349
		c-0.086-0.779-0.06-1.571-0.103-2.356c-0.028-0.511,0.291-0.632,0.68-0.577c0.223,0.031,0.596,0.211,0.606,0.345
		c0.061,0.85,0.031,1.706,0.046,2.56c0.025,1.432,0.054,2.869,0.876,4.125c0.138,0.211,0.401,0.436,0.634,0.472
		c1.388,0.211,2.781,0.431,4.181,0.527c1.246,0.086,2.502,0.019,3.836,0.019c-0.23-1.041-0.467-2.072-0.684-3.107
		c-0.255-1.216-0.506-2.433-0.73-3.655c-0.104-0.566-0.138-1.146-0.204-1.725c0.994-0.069,1.288,0.096,1.434,0.702
		c0.275,1.143,0.546,2.287,0.799,3.436c0.061,0.276,0.09,0.576,0.054,0.854c-0.084,0.638-0.139,1.251,0.149,1.868
		c0.149,0.319,0.168,0.699,0.247,1.052c-0.058,0.056-0.116,0.112-0.174,0.168c1.964,1.005,4.16-0.007,6.199,0.606
		c0.915,0.275,1.98,0.047,3.108,0.047c-0.283-1.354-0.531-2.549-0.785-3.743c-0.236-1.111-0.506-2.217-0.691-3.336
		c-0.033-0.201,0.229-0.519,0.438-0.662c0.103-0.07,0.487,0.076,0.58,0.227c0.161,0.262,0.224,0.597,0.274,0.91
		c0.062,0.377-0.041,0.818,0.118,1.137c0.514,1.024,0.79,2.055,0.72,3.224c-0.034,0.571,0.248,1.178,0.465,1.738
		c0.065,0.168,0.396,0.342,0.597,0.332c1.371-0.064,2.739-0.19,4.11-0.269c0.43-0.024,0.865,0.049,1.298,0.053
		c0.954,0.01,1.908,0.003,2.832,0.003c-0.122-0.809-0.169-1.468-0.328-2.099c-0.333-1.318-0.729-2.62-1.088-3.933
		c-0.06-0.22-0.122-0.471-0.072-0.682c0.052-0.221,0.204-0.544,0.369-0.583c0.248-0.06,0.647,0.001,0.797,0.172
		c0.225,0.258,0.355,0.646,0.409,0.995c0.152,1.002,0.201,2.02,0.374,3.017c0.181,1.051,0.458,2.085,0.687,3.098
		c2.82-0.201,5.688-0.405,8.583-0.61c-0.075-0.251-0.201-0.531-0.24-0.824c-0.245-1.858-0.473-3.719-0.703-5.579
		c-0.09-0.729-0.209-1.457-0.228-2.188c-0.004-0.181,0.3-0.459,0.517-0.53c0.187-0.062,0.587,0.045,0.651,0.187
		c0.152,0.335,0.196,0.732,0.22,1.108c0.102,1.567,0.15,3.14,0.279,4.704c0.066,0.796,0.415,1.592,0.359,2.367
		c-0.057,0.794,0.37,0.824,0.851,0.819c1.391-0.015,2.782-0.062,4.171-0.139c0.686-0.038,1.367-0.172,2.028-0.26
		c0-0.271,0.02-0.426-0.003-0.573c-0.368-2.425-0.756-4.848-1.097-7.276c-0.056-0.398,0.014-0.862,0.18-1.227
		c0.085-0.187,0.506-0.279,0.78-0.29c0.096-0.004,0.285,0.363,0.294,0.566c0.033,0.718-0.042,1.441,0.02,2.155
		c0.04,0.466,0.3,0.91,0.366,1.377c0.189,1.349,0.275,2.714,0.505,4.055c0.202,1.177,0.56,1.304,1.761,1.188
		c1.582-0.152,3.173-0.193,4.76-0.289c0.515-0.031,1.027-0.085,1.517-0.126c-0.064-0.729-0.034-1.354-0.19-1.926
		c-0.281-1.025-0.698-2.012-1.017-3.028c-0.411-1.313-0.83-2.629-1.13-3.97c-0.057-0.255,0.36-0.727,0.67-0.924
		c0.379-0.241,0.568,0.076,0.646,0.468c0.189,0.949,0.381,1.9,0.621,2.839c0.418,1.627,0.875,3.243,1.31,4.865
		c0.05,0.189,0.011,0.413,0.095,0.58c0.201,0.4,0.131,1.035,0.874,0.994c2.043-0.113,4.089-0.188,6.132-0.308
		c0.57-0.033,1.136-0.165,1.577-0.232c-0.388-1.046-0.846-1.993-1.087-2.994c-0.418-1.739-0.725-3.506-1.029-5.27
		C126.271,114.613,126.284,113.901,126.227,113.027z M176.557,117.399c-0.47-1.144-0.992-2.057-1.215-3.038
		c-0.372-1.643-0.583-3.325-0.8-4.999c-0.066-0.507,0.039-1.046,0.132-1.558c0.032-0.178,0.242-0.414,0.41-0.452
		c0.213-0.05,0.623,0.012,0.674,0.137c0.238,0.587,0.5,1.205,0.533,1.823c0.062,1.123-0.167,2.271-0.026,3.376
		c0.156,1.233,0.547,2.445,0.926,3.639c0.129,0.405,0.261,0.995,1.01,0.847c1.343-0.267,2.7-0.462,4.052-0.687
		c2.02-0.336,4.069-0.484,6.05-1.076c1.013-0.302,2.086-0.396,3.119-0.638c1.205-0.282,2.396-0.623,3.838-1.003
		c-2.476-2.016-3.259-4.672-4.172-7.351c-2.16,0.959-4.518,0.072-6.839,0.37c0.65,0.592,0.958,1.271,0.771,2.149
		c-0.049,0.229,0.033,0.501,0.102,0.739c0.187,0.647,0.668,1.348,0.543,1.92c-0.26,1.189,0.779,1.713,0.976,2.684
		c-0.135,0.184-0.313,0.428-0.497,0.677c-1.479-1.438-3.362-6.411-2.056-8.174c-0.1-0.038-0.188-0.101-0.279-0.104
		c-1.906-0.069-3.812-0.169-5.719-0.184c-1.574-0.013-3.157-0.003-4.723,0.14c-2.089,0.19-4.169,0.495-6.245,0.798
		c-1.592,0.231-3.167,0.569-4.759,0.798c-1.473,0.211-2.966,0.295-4.438,0.518c-1.241,0.188-2.458,0.542-3.698,0.74
		c-2.126,0.338-4.259,0.636-6.395,0.898c-0.716,0.088-1.451,0.014-2.283,0.014c-0.127,0.331-0.481,0.512-1.033,0.264
		c-0.153-0.069-0.386-0.127-0.515-0.061c-0.645,0.335-1.285,0.313-2.003,0.276c-1.12-0.058-2.262,0.093-3.378,0.262
		c-0.933,0.141-1.843,0.434-2.635,0.627c0.262,0.59,0.627,1.147,0.756,1.756c0.221,1.044,0.247,2.127,0.441,3.178
		c0.297,1.603,0.666,3.191,1.005,4.791c-0.522,0.137-1.07-0.145-1.261-0.798c-0.282-0.97-0.597-1.944-0.736-2.939
		c-0.188-1.344-0.901-2.599-0.676-4.008c-0.694-0.661-0.189-1.279,0.138-1.927c-2.868,0.428-5.667,0.844-8.374,1.247
		c0.086,0.449,0.205,0.91,0.26,1.378c0.119,1.036,0.121,2.093,0.325,3.11c0.309,1.538,0.731,3.054,1.138,4.571
		c0.333,1.243,0.674,1.405,1.931,1.049c0.189-0.054,0.398-0.032,0.599-0.05c1.077-0.096,2.154-0.206,3.232-0.285
		c1.098-0.081,2.198-0.136,3.297-0.195c0.943-0.05,1.894-0.036,2.829-0.147c1.394-0.167,2.772-0.455,4.166-0.628
		c1.648-0.203,3.305-0.346,4.958-0.501c0.761-0.072,1.527-0.083,2.286-0.171c0.768-0.089,1.528-0.242,2.292-0.361
		c0.865-0.136,1.731-0.265,2.58-0.394c-0.686-1.325-1.287-2.487-1.893-3.657c0.086-0.14,0.182-0.296,0.224-0.364
		c-0.229-0.196-0.509-0.316-0.544-0.486c-0.294-1.443-0.607-2.889-0.789-4.35c-0.205-1.645,0.565-2.295,1.792-1.783
		c-0.068,0.501-0.099,0.971-0.205,1.423c-0.134,0.57,0.34,1.238-0.284,1.738c-0.052,0.041,0.027,0.285,0.087,0.416
		c0.611,1.345,0.588,2.902,1.438,4.173c0.461,0.688,0.857,1.423,1.233,2.161c0.255,0.5,0.643,0.274,0.994,0.27
		c0.693-0.01,1.385,0.137,2.043-0.345c0.26-0.189,0.774-0.03,1.195-0.03c1.356-0.302,2.767-0.614,4.175-0.928
		c-0.205-1.222-0.433-2.399-0.594-3.587c-0.231-1.699-0.431-3.402-0.612-5.108c-0.126-1.186,0.138-1.48,1.132-1.401
		c0.131,0.513,0.335,1.016,0.376,1.532c0.136,1.723,0.217,3.45,0.309,5.176c0.029,0.544,0.068,1.093,0.027,1.634
		c-0.045,0.587,0.841,1.655,1.401,1.576c0.738-0.104,1.468-0.269,2.206-0.374c0.965-0.138,1.936-0.238,2.902-0.362
		C174.66,117.657,175.536,117.536,176.557,117.399z M84.998,17.479c-0.252-0.764-0.495-1.251-0.569-1.763
		c-0.241-1.679-0.448-3.364-0.602-5.054c-0.034-0.37,0.124-0.834,0.356-1.125C84.332,9.35,85,9.274,85.052,9.365
		c0.212,0.376,0.321,0.828,0.383,1.265c0.052,0.365-0.048,0.749-0.019,1.119c0.043,0.553,0.195,1.1,0.203,1.649
		c0.013,0.903-0.065,1.809-0.079,2.713c-0.008,0.568,0.678,1.263,1.249,1.301c1.854,0.122,3.683-0.118,5.513-0.375
		c0.875-0.123,1.767-0.134,2.831-0.208c-0.031-0.662-0.065-1.422-0.102-2.183c-0.095-2.012-0.21-4.023-0.268-6.037
		c-0.011-0.387,0.133-0.822,0.337-1.155c0.126-0.206,0.497-0.345,0.764-0.355c0.202-0.007,0.595,0.246,0.588,0.366
		c-0.028,0.508-0.174,1.008-0.309,1.669c0.062,0.507,0.19,1.22,0.226,1.938c0.064,1.334,0.108,2.67,0.093,4.004
		c-0.008,0.728,0.602,1.456,1.327,1.384c1.041-0.103,2.076-0.266,3.118-0.352c0.812-0.066,1.684-0.239,2.432-0.024
		c0.725,0.209,1.151-0.074,1.535-0.285c-0.136-3.229-0.268-6.386-0.397-9.462c-1.136,0-2.36-0.036-3.582,0.01
		c-1.424,0.054-2.844,0.192-4.268,0.268c-0.764,0.04-1.533-0.015-2.295,0.043c-0.732,0.057-1.458,0.2-2.187,0.309
		c-1.116,0.166-2.232,0.331-3.347,0.504c-1.116,0.173-2.225,0.455-3.347,0.514c-2.167,0.114-4.342,0.085-6.513,0.155
		c-1.091,0.035-2.18,0.142-3.268,0.245c-1.968,0.187-3.933,0.422-5.902,0.584c-1.113,0.091-2.236,0.058-3.353,0.113
		c-1.896,0.096-3.797,0.165-5.687,0.346c-1.516,0.146-3.028,0.147-4.552,0.512c-1.941,0.465-3.989,0.479-5.992,0.688
		c-0.565,0.059-1.132,0.178-1.695,0.159c-0.989-0.032-1.918,0.672-2.934,0.221c-0.056-0.024-0.141,0.006-0.209,0.021
		c-0.63,0.145-1.257,0.304-1.89,0.434c-1.07,0.219-2.157,0.372-3.205,0.668c-0.222,0.062-0.472,0.646-0.42,0.938
		c0.133,0.753,0.43,1.477,0.654,2.215c0.021,0.067,0.021,0.177-0.019,0.22c-0.49,0.526-0.012,0.943,0.181,1.359
		c0.208,0.45,0.52,0.852,0.794,1.287c2.332-0.226,4.697-0.454,7.035-0.68c-0.245-0.758-0.587-1.554-0.746-2.385
		c-0.184-0.956-0.244-1.943-0.268-2.919c-0.005-0.227,0.315-0.558,0.561-0.662c0.184-0.079,0.527,0.082,0.72,0.235
		c0.065,0.052-0.113,0.406-0.174,0.624c-0.02,0.07-0.052,0.165-0.023,0.218c0.426,0.765,0.479,1.605,0.628,2.448
		c0.153,0.868,0.675,1.677,1.075,2.492c0.086,0.176,0.328,0.36,0.518,0.383c0.887,0.106,1.781,0.219,2.672,0.218
		c1.9-0.001,3.8-0.071,5.679-0.113c-0.024-0.056-0.047-0.296-0.166-0.361c-1.033-0.565-0.976-1.734-1.433-2.607
		c-0.298-0.57-0.329-1.287-0.445-1.944c-0.104-0.594-0.193-1.192-0.23-1.793c-0.035-0.57,0.423-0.71,0.857-0.748
		c0.205-0.018,0.58,0.114,0.614,0.246c0.163,0.632,0.259,1.284,0.328,1.935c0.022,0.213-0.2,0.464-0.153,0.66
		c0.111,0.474,0.368,0.914,0.469,1.388c0.225,1.056,0.391,2.123,0.582,3.192c2.413,0.26,4.81-0.183,7.135-0.396
		c-0.219-1.036-0.443-2.041-0.643-3.05c-0.264-1.334-0.553-2.666-0.733-4.012c-0.05-0.372,0.146-0.999,0.415-1.132
		c0.316-0.156,0.835,0.099,1.266,0.175c-0.172,0.529-0.354,0.916-0.235,1.15c0.268,0.527,0.147,0.829-0.249,0.988
		c0.286,0.899,0.618,1.727,0.799,2.585c0.156,0.737,0.084,1.521,0.225,2.265c0.066,0.354,0.324,0.843,0.613,0.948
		c0.544,0.199,1.173,0.21,1.768,0.22c1.315,0.021,2.63-0.007,3.946-0.013c0.78-0.003,1.561,0,2.368,0
		c-0.313-1.122-0.697-2.145-0.869-3.202c-0.233-1.44-0.309-2.908-0.442-4.365c-0.034-0.376,0.818-1.273,1.159-1.15
		c0.225,0.082,0.474,0.447,0.49,0.7c0.107,1.723,0.156,3.449,0.224,5.176c-0.161-0.008-0.321-0.015-0.661-0.031
		c0.809,0.598,1.397,1.143,1.12,2.109c-0.031,0.109,0.121,0.363,0.241,0.409c1.01,0.385,2.057,0.277,3.108,0.215
		c1.19-0.071,2.386-0.062,3.579-0.085C84.428,17.474,84.688,17.479,84.998,17.479z M7.615,60.849
		c0.202,1.218,0.44,2.537,0.621,3.863c0.032,0.234-0.179,0.501-0.278,0.753c-0.062-0.021-0.124-0.04-0.186-0.061
		c0.086,0.636,0.173,1.271,0.262,1.932c0.426-0.122,0.712-0.255,1.007-0.28c0.595-0.05,1.201,0.003,1.792-0.07
		c0.466-0.059,0.927-0.377,1.372-0.341c0.899,0.073,1.599-0.354,2.337-0.707c0.105-0.051,0.196-0.254,0.195-0.387
		c-0.01-1.49,0.021-2.984-0.076-4.47c-0.168-2.604-0.437-5.199-0.618-7.801c-0.05-0.73,0.102-1.473,0.089-2.209
		c-0.024-1.325-0.146-2.65-0.148-3.977c-0.002-1.622,0.083-3.244,0.117-4.867c0.034-1.682,0.014-3.364,0.086-5.044
		c0.079-1.857,0.207-3.714,0.37-5.565c0.094-1.062,0.216-2.137,0.48-3.167c0.3-1.171,0.881-2.273,1.14-3.45
		c0.26-1.183,1.037-1.894,1.881-2.578c0.204-0.165,0.726,0.023,0.887-0.149c0.506-0.544,1.213-0.507,1.814-0.719
		c0.637-0.225,1.377-0.136,2.049-0.286c0.978-0.22,1.931-0.548,2.903-0.797c0.62-0.159,1.25-0.316,1.885-0.377
		c1.61-0.151,3.227-0.238,4.838-0.377c0.197-0.018,0.379-0.197,0.494-0.261c-0.865-2.405-1.741-4.707-1.94-7.181
		c-2.422,0.015-4.886,0.158-7.354,1.113c0.365,0.939,0.711,1.867,1.087,2.781c0.185,0.447,0.352,0.937,0.659,1.291
		c0.629,0.725,1.207,1.574,2.331,1.535c-0.127,0.912-0.591,1.146-1.236,0.724c-0.137-0.09-0.296-0.151-0.419-0.256
		c-0.603-0.511-1.22-1.009-1.783-1.561c-0.237-0.232-0.343-0.595-0.525-0.888c-0.163-0.262-0.373-0.497-0.522-0.767
		c-0.47-0.851-0.92-1.712-1.374-2.559c-2.874,0.475-5.646,0.933-8.45,1.396c0.027,0.091,0.027,0.21,0.086,0.273
		c1.031,1.116,2.063,2.232,3.112,3.331c0.258,0.271,0.544,0.593,0.878,0.699c0.965,0.309,1.963,0.514,2.945,0.774
		c0.127,0.033,0.247,0.142,0.336,0.245c0.025,0.029-0.052,0.179-0.112,0.245c-0.487,0.531-1.539,0.455-1.874,0.035
		c-0.548,0.074-1.028,0.279-1.4,0.157c-0.601-0.196-1.135-0.602-1.689-0.933c-0.174-0.104-0.464-0.264-0.456-0.38
		c0.057-0.797-0.805-0.721-1.109-1.224c-0.535-0.883-1.303-1.626-1.978-2.424c-0.181-0.213-0.406-0.608-0.564-0.586
		c-1.121,0.155-2.231,0.395-3.342,0.62c-0.086,0.018-0.173,0.117-0.226,0.2c-0.493,0.782-1.207,1.512-1.418,2.365
		c-0.42,1.702-0.573,3.471-0.815,5.215c-0.084,0.604-0.125,1.217-0.148,1.827c-0.053,1.394-0.084,2.788-0.121,4.182
		c-0.022,0.855-0.056,1.71-0.05,2.564c0.004,0.56,0.072,1.118,0.111,1.677c-0.164,0.154-0.245,0.341-0.239,0.526
		c0.01,0.339,0.16,0.695,0.091,1.01c-0.145,0.665-0.196,1.282,0.168,1.9c0.149,0.255,0.246,0.563,0.279,0.858
		c0.066,0.584,0.071,1.176,0.103,1.79c2.685-0.386,4.933,0.938,7.377,1.21c-0.334,0.581-0.719,0.861-1.414,0.661
		c-0.532-0.153-1.121-0.096-1.676-0.181c-0.842-0.128-1.677-0.302-2.517-0.45c-0.103-0.019-0.218-0.016-0.318,0.011
		c-0.483,0.133-0.964,0.277-1.477,0.427c0.011,0.117,0.063,0.371,0.053,0.622c-0.046,1.138-0.026,2.255,0.412,3.344
		c0.163,0.403,0.209,0.95-0.7,0.8c1.126,0.837,0.884,2.008,1.003,3.031c0.278,0,0.499,0.004,0.718,0
		c1.222-0.026,2.417,0.619,3.667,0.115c0.333-0.134,0.737-0.116,1.109-0.117c0.14-0.001,0.28,0.144,0.419,0.222
		c-0.097,0.156-0.157,0.388-0.297,0.457c-1.747,0.863-3.557,1.286-5.571,0.7c0.33,2.753,0.659,5.499,0.966,8.062
		c1.896-0.298,3.704-0.583,5.512-0.867c0.03,0.09,0.06,0.18,0.09,0.27c-0.292,0.521-0.338,1.173-1.287,1.172
		c-0.733-0.001-1.473,0.324-2.197,0.546C9.128,60.291,8.43,60.562,7.615,60.849z M201.124,76.148
		c-1.728,0.611-3.344,0.262-4.907-0.046c-1.258-0.248-2.581-0.566-3.592-1.463c-0.287-0.255-0.577-0.795-0.499-1.114
		c0.149-0.608,0.795-0.795,1.32-0.469c1.395,0.866,2.906,1.402,4.521,1.63c0.958,0.135,1.931,0.167,2.973,0.252
		c-0.247-2.939-0.48-5.719-0.71-8.454c-0.662,0.067-1.199,0.099-1.728,0.181c-2.193,0.338-4.372,0.396-6.491-0.384
		c-0.343-0.127-0.607-0.469-0.908-0.712c0.044-0.062,0.088-0.123,0.132-0.185c-0.224-0.016-0.447-0.03-0.761-0.052
		c0.154,0.287,0.33,0.472,0.349,0.672c0.14,1.486,0.257,2.976,0.358,4.466c0.016,0.222-0.149,0.462-0.116,0.675
		c0.168,1.056,0.417,2.1,0.55,3.158c0.077,0.612-0.017,1.244-0.021,1.868c-0.001,0.212,0.079,0.431,0.047,0.635
		c-0.156,0.99-0.386,1.968-0.012,2.968c0.183,0.487,0.283,0.987-0.026,1.506c-0.12,0.202-0.088,0.528-0.047,0.785
		c0.121,0.768,0.333,1.522,0.416,2.292c0.176,1.618,0.255,3.247,0.444,4.864c0.252,2.156,0.586,4.303,0.845,6.458
		c0.038,0.313-0.143,0.654-0.222,0.982c0.205,0.636,0.384,1.319,0.373,1.999c-0.021,1.305-0.283,2.617-0.19,3.908
		c0.081,1.124-0.129,2.009-0.904,2.809c-0.139,0.143-0.151,0.521-0.076,0.74c0.379,1.109,0.772,2.218,1.227,3.299
		c0.471,1.123,1.12,2.147,2.143,2.856c0.275,0.19,0.829,0.126,0.961,0.351c0.623,1.065,1.259,0.205,1.875,0.074
		c0.373-0.079,0.728-0.246,1.089-0.377c0.234-0.084,0.565-0.105,0.682-0.273c0.455-0.656,0.951-1.318,1.228-2.056
		c0.484-1.293,1.021-2.622,1.165-3.975c0.207-1.938,0.082-3.911,0.094-5.869c0.006-1.124,0.001-2.247,0.001-3.314
		c-0.596,0.027-0.969,0.026-1.337,0.063c-1.386,0.141-2.479-0.744-3.728-1.085c-0.997-0.272-1.928-0.822-2.85-1.319
		c-0.454-0.245-0.892-0.599-1.198-1.007c-0.149-0.2-0.071-0.693,0.081-0.947c0.081-0.134,0.581-0.134,0.824-0.031
		c1.213,0.507,2.396,1.083,3.604,1.603c0.666,0.287,1.433,0.403,2.021,0.796c0.577,0.385,1.11,0.498,1.77,0.468
		c0.55-0.024,0.708-0.222,0.673-0.746c-0.124-1.858-0.198-3.721-0.33-5.579c-0.1-1.413-0.126-1.402-1.511-1.62
		c-0.29-0.046-0.575-0.155-0.849-0.269c-1.884-0.781-3.774-1.546-5.638-2.371c-0.686-0.304-0.679-0.683-0.131-1.179
		c0.088-0.08,0.071-0.276,0.11-0.45c0.201,0.054,0.382,0.076,0.54,0.148c1.602,0.729,3.235,1.396,4.787,2.218
		c1.895,1.003,2.371,0.881,2.45-0.885c0.004-0.074-0.021-0.15-0.028-0.226c-0.17-1.883-0.331-3.768-0.514-5.649
		C201.37,77.934,201.245,77.104,201.124,76.148z M15.062,116.349c-0.279,0.339-0.53,0.609-0.731,0.912
		c-0.058,0.088-0.023,0.316,0.055,0.402c0.431,0.478,0.85,0.978,1.344,1.383c1.023,0.84,1.986,1.887,3.169,2.366
		c1.389,0.563,2.979,0.661,4.493,0.872c1.021,0.144,2.065,0.116,3.096,0.197c0.923,0.073,1.84,0.243,2.763,0.275
		c0.914,0.031,1.757,0.384,2.716,0.325c1.539-0.096,3.101,0.069,4.645,0.211c1.671,0.153,3.331,0.435,5,0.608
		c1.384,0.145,2.774,0.25,4.165,0.309c1.638,0.068,3.278,0.067,4.918,0.095c0.659,0.012,0.837-0.301,0.573-0.924
		c-0.175-0.411-0.362-0.837-0.422-1.272c-0.207-1.5-0.36-3.007-0.538-4.549c-0.412-0.045-0.797-0.153-1.167-0.115
		c-1.703,0.178-3.399,0.285-5.095-0.063c-0.349-0.071-0.553,0.03-0.613,0.461c-0.21,1.499-0.348,2.986,0.08,4.475
		c0.044,0.155-0.066,0.385-0.17,0.535c-0.029,0.042-0.31-0.042-0.439-0.123c-1.062-0.668-0.614-1.831-0.851-2.761
		c-0.152-0.596,0.079-1.289-0.075-1.882c-0.103-0.395-0.09-1.115-0.914-1.02c-1.466,0.171-2.883-0.067-4.275-0.558
		c-0.648-0.229-1.343-0.326-2.134-0.511c-0.052,0.622-0.101,1.063-0.122,1.506c-0.047,0.977,0.004,1.967-0.147,2.925
		c-0.1,0.627,0.217,1.494-0.913,1.894c-0.146-2.187-0.287-4.316-0.433-6.517c-1.913-0.276-3.882-0.56-5.945-0.856
		c-0.203,0.857-0.348,1.714-0.611,2.531c-0.482,1.497-0.69,3.159-2.236,4.083c-0.832-0.575-0.843-0.673-0.156-1.3
		c0.068-0.062,0.095-0.173,0.132-0.265c0.42-1.036,0.871-2.061,1.243-3.113c0.208-0.59,0.318-1.223,0.401-1.846
		c0.025-0.186-0.136-0.484-0.302-0.591c-0.985-0.633-1.996-1.225-2.968-1.812c-0.266,0.267-0.594,0.735-1.04,1.018
		c-1.463,0.928-2.965,1.797-4.464,2.667c-0.232,0.135-0.526,0.172-0.797,0.225c-0.308,0.06-0.622,0.086-0.933,0.127
		c-0.015,0.077-0.029,0.153-0.043,0.229C15.244,116.742,15.169,116.581,15.062,116.349z M170.793,4.619
		c-0.405,0.782-0.707,1.357-0.999,1.938c-0.086,0.17-0.22,0.364-0.198,0.53c0.222,1.727-0.753,3.227-0.911,4.887
		c-0.076,0.797-0.303,1.552,0.072,2.334c0.067,0.141-0.106,0.396-0.168,0.6c-0.211-0.075-0.477-0.096-0.618-0.239
		c-0.169-0.17-0.327-0.446-0.325-0.676c0.012-1.177-0.042-2.373,0.149-3.525c0.281-1.692,0.731-3.358,1.153-5.024
		c0.09-0.354,0.366-0.659,0.558-0.99c-3.067,0-6.229,0-9.286,0c0,1.005,0.095,1.794-0.023,2.55
		c-0.152,0.968,0.309,1.962-0.259,2.931c-0.201,0.343,0.048,0.938,0.06,1.42c0.024,1.065,0.001,2.133,0.055,3.196
		c0.023,0.452,0.253,0.815,0.824,0.782c0.476-0.027,0.954-0.009,1.432-0.012c1.442-0.01,2.886-0.045,4.329-0.022
		c1.479,0.023,2.956,0.152,4.435,0.146c1.849-0.009,3.698-0.096,5.546-0.19c0.168-0.009,0.481-0.34,0.458-0.474
		c-0.319-1.81,0.355-3.5,0.604-5.236c0.175-1.222,0.495-2.422,0.795-3.845C175.787,5.32,173.175,4.954,170.793,4.619z
		 M11.272,93.102c-0.109,0.099-0.218,0.196-0.328,0.295c0.209-0.077,0.425-0.234,0.626-0.217c1.08,0.095,2.12-0.034,3.193-0.214
		c1.125-0.188,2.029-0.785,3.041-1.171c0.107-0.041,0.214-0.28,0.2-0.414c-0.063-0.592-0.194-1.176-0.257-1.768
		c-0.083-0.771-0.063-1.559-0.201-2.319c-0.189-1.043-0.562-2.055-0.716-3.101c-0.264-1.791-0.398-3.6-0.626-5.396
		c-0.228-1.795-0.54-3.579-0.751-5.375c-0.233-1.977-0.389-3.962-0.592-5.941c-0.02-0.193-0.138-0.375-0.21-0.562
		c-0.199,0.095-0.404,0.181-0.597,0.287c-0.38,0.21-0.731,0.521-1.136,0.626c-0.643,0.166-1.335,0.14-1.98,0.301
		c-0.932,0.233-1.847,0.543-2.751,0.869c-0.137,0.049-0.259,0.369-0.248,0.556c0.032,0.505,0.166,1.004,0.204,1.51
		c0.016,0.212-0.18,0.443-0.153,0.649c0.174,1.311,0.383,2.615,0.58,3.922c0.007,0.05,0.031,0.132,0.01,0.146
		c-0.65,0.445-0.104,0.981-0.173,1.354c0.438-0.153,0.845-0.36,1.274-0.428c0.386-0.061,0.798,0.072,1.194,0.044
		c0.392-0.029,0.774-0.171,1.166-0.234c1-0.163,2.076,0.003,2.954-0.692c0.038-0.03,0.134,0.013,0.203,0.021
		c0.046,0.06,0.092,0.12,0.138,0.18c-0.551,0.455-1.041,1.171-1.664,1.317c-1.69,0.396-3.345,1.192-5.117,0.772
		c0.051,1.021,0.117,2.028,0.142,3.037c0.006,0.257-0.216,0.539-0.165,0.771c0.197,0.88,0.464,1.743,0.726,2.688
		c1.246-0.063,2.562-0.178,3.877-0.18c0.963-0.002,1.889-0.01,2.727-0.575c0.135-0.091,0.371-0.031,0.565-0.042
		c0.095,0.65-0.077,1.072-0.664,1.256c-0.646,0.201-1.284,0.444-1.943,0.586c-1.291,0.277-2.594,0.499-3.893,0.736
		c-0.567,0.104-0.733,0.372-0.613,0.972c0.151,0.754,0.45,1.692,0.148,2.271c-0.455,0.875-0.061,1.509,0.123,2.211
		c0.091,0.351,0.43,0.683,0.738,0.916C10.575,92.961,10.95,92.996,11.272,93.102z M21.186,107.681
		c-0.369,0.32-0.624,0.565-0.902,0.778c-0.566,0.435-1.138,0.862-1.722,1.273c-0.501,0.352-1.15,0.182-1.699,0.505
		c-0.66,0.389-1.415,0.636-2.155,0.861c-0.345,0.104-0.786,0.104-1.112-0.027c-0.18-0.072-0.323-0.532-0.279-0.781
		c0.039-0.224,0.323-0.501,0.556-0.576c0.758-0.242,1.599-0.285,2.305-0.621c1.218-0.579,2.595-0.698,3.743-1.538
		c0.769-0.562,1.203-1.015,0.916-1.957c-0.082-0.269-0.145-0.543-0.203-0.817c-0.56-2.649-1.123-5.299-1.673-7.95
		c-0.334-1.608-0.649-3.22-0.914-4.532c-0.25,0.193-0.669,0.542-1.114,0.854c-1.1,0.771-2.338,1.183-3.648,1.463
		c-0.814,0.174-1.649,0.101-2.453,0.169c-0.761,0.064-0.992,0.239-1.011,0.851c-0.015,0.483,0.075,0.979,0.182,1.457
		c0.099,0.443,0.51,0.954,0.385,1.286c-0.343,0.914,0.137,1.669,0.243,2.489c0.075,0.572,0.175,1.142,0.257,1.664
		c0.32-0.317,0.596-0.817,0.988-0.936c1.041-0.314,2.141-0.426,3.2-0.691c0.875-0.22,1.717-0.564,2.585-0.813
		c0.527-0.151,1.076-0.226,1.717-0.355c-0.376,1.253-0.995,1.834-2.197,2.095c-0.748,0.161-1.545,0.131-2.273,0.346
		c-0.794,0.235-1.552,0.621-2.292,1.004c-0.472,0.244-0.856,0.281-1.239-0.113c-0.107-0.11-0.224-0.211-0.476-0.445
		c0.578,4.551,0.543,9.012,2.659,13.066c1.681,0.198,3.103-0.62,4.505-1.442c1.402-0.821,2.764-1.712,4.143-2.571
		C21.855,110.294,21.529,109.021,21.186,107.681z M195.109,26.14c0-1.455,0.005-2.997-0.003-4.539
		c-0.002-0.494-0.005-0.992-0.064-1.482c-0.105-0.874-0.235-1.745-0.388-2.612c-0.162-0.919-0.272-1.861-0.566-2.74
		c-0.444-1.325-0.945-2.646-1.584-3.886c-0.346-0.673-0.962-1.259-1.579-1.719c-0.358-0.268-0.961-0.208-1.459-0.297
		c-0.019,0.735-0.171,1.392-0.734,2.03c-0.612,0.693-0.93,1.639-1.434,2.438c-0.391,0.62-0.894,1.169-1.304,1.777
		c-0.417,0.62-0.742,1.306-1.182,1.908c-0.475,0.65-1.034,1.237-1.494,1.778c0.436,0.721,0.922,1.622,1.502,2.459
		c0.627,0.904,0.604,1.241,1.786,0.812c0.498-0.182,1-0.393,1.44-0.682c1.192-0.784,2.372-1.592,3.52-2.439
		c0.692-0.512,1.317-1.116,1.973-1.679c0.105,0.062,0.211,0.123,0.316,0.185c-0.038,0.314,0.044,0.751-0.132,0.924
		c-1.08,1.056-2.206,2.067-3.344,3.062c-0.385,0.336-0.909,0.52-1.267,0.876c-0.854,0.854-1.952,1.164-3.057,1.577
		c-0.024,0.203-0.151,0.502-0.07,0.725c0.521,1.434,1.09,2.852,1.611,4.192C190.06,27.934,192.614,27.026,195.109,26.14z
		 M189.707,48.941c0.182,5.168,0.532,10.536,1.236,16.038c0.432-0.841,0.443-0.786,1.155-0.533c0.807,0.286,1.65,0.53,2.497,0.627
		c1.407,0.159,2.831,0.183,4.247,0.27c0.36,0.022,0.719,0.067,1.136,0.107c-0.422-3.164-0.827-6.2-1.242-9.305
		c-0.841,0.216-1.537,0.366-2.215,0.574c-1.655,0.51-3.341,0.661-5.07,0.656c-0.779-0.002-0.847-0.459-0.842-0.912
		c0.005-0.544,0.344-0.979,0.967-0.993c1.272-0.029,2.549,0.29,3.819-0.042c0.099-0.025,0.22-0.095,0.293-0.061
		c0.986,0.445,1.795-0.184,2.647-0.343c-0.423-2.801-0.834-5.524-1.259-8.337c-0.938,0.334-1.686,0.611-2.44,0.866
		c-0.515,0.174-1.037,0.326-1.56,0.472C191.961,48.335,190.843,48.634,189.707,48.941z M150.6,15.092
		c2.798-0.005,5.612-0.214,8.343,0.205c0-1.032,0.002-1.847,0-2.66c-0.005-1.255-0.007-2.51-0.022-3.764
		c-0.008-0.661,0.042-1.338-0.083-1.979c-0.161-0.826-0.501-1.626,0.414-2.498c-0.751,0.027-1.261,0.061-1.771,0.062
		c-1.595,0.006-3.189,0.001-4.784,0c-0.632,0-1.265,0-1.847,0c-0.054,0.434-0.096,0.782-0.14,1.131
		c-0.114,0.904-0.214,1.811-0.354,2.71c-0.043,0.281-0.198,0.544-0.273,0.739c0,1.039-0.035,2.051,0.01,3.059
		C150.137,13.111,149.915,14.179,150.6,15.092z M122.646,15.565c0.059,0.055,0.116,0.108,0.175,0.162
		c0.146-0.044,0.295-0.128,0.44-0.124c0.653,0.016,1.306,0.087,1.958,0.082c1.766-0.015,3.53-0.053,5.294-0.095
		c0.561-0.013,1.119-0.066,1.82-0.11c-1.136-1.46-0.993-3.037-1.064-4.501c-0.091-1.868,0.138-3.752,0.223-5.63
		c0.021-0.498-0.521-0.888-1.044-0.819c-1.125,0.147-2.252,0.279-3.381,0.389c-1.408,0.136-2.818,0.242-4.341,0.371
		c0,0.547-0.035,1.042,0.009,1.53c0.066,0.74,0.506,1.506-0.232,2.165c-0.048,0.042,0.034,0.228,0.054,0.348
		c0.207,1.221,0.435,2.439,0.608,3.666c0.058,0.411-0.171,0.915-0.008,1.249C123.47,14.889,123.505,15.316,122.646,15.565z
		 M150.568,4.468c0-0.042,0-0.083,0-0.124c-1.305-0.062-2.609-0.183-3.914-0.172c-1.597,0.013-3.194,0.128-4.79,0.219
		c-0.156,0.009-0.439,0.162-0.436,0.238c0.032,0.688-0.501,1.334-0.138,2.051c0.079,0.156-0.009,0.392,0.006,0.588
		c0.063,0.819-0.472,1.499-0.413,2.374c0.075,1.125-0.331,2.273-0.344,3.415c-0.009,0.738,0.313,1.481,0.465,2.125
		c2.812,0,5.43,0,7.976,0c-0.526-3.517-0.416-7.029,0.331-10.616C149.735,4.532,150.152,4.5,150.568,4.468z M178.375,15.539
		c0.409,0.061,0.885,0.179,1.363,0.19c0.97,0.024,1.754,0.346,2.331,1.16c0.08,0.114,0.442,0.179,0.547,0.099
		c0.412-0.315,0.829-0.654,1.145-1.062c1.224-1.584,2.433-3.182,3.6-4.809c0.623-0.869,1.148-1.809,1.764-2.79
		c-2.868-1.078-5.755-1.697-8.714-1.998c-0.152-0.015-0.436,0.189-0.477,0.341c-0.186,0.675-0.294,1.37-0.452,2.054
		c-0.096,0.417-0.225,0.826-0.351,1.235c-0.205,0.673-0.527,1.331-0.605,2.017C178.396,13.126,178.419,14.293,178.375,15.539z
		 M139.988,4.538c-0.071-0.028-0.117-0.064-0.162-0.062c-1.939,0.068-3.884,0.256-5.814,0.16c-0.886-0.044-0.878,0.241-0.873,0.864
		c0.003,0.468-0.074,0.938-0.134,1.404c-0.126,0.979-0.277,1.954-0.393,2.935c-0.154,1.315,0.373,2.636-0.015,3.957
		c-0.043,0.147,0.025,0.37,0.117,0.507c0.72,1.071,1.826,1.184,2.979,1.177c1.277-0.006,2.555-0.001,3.763-0.001
		c-0.135-0.925-0.389-1.727-0.34-2.51c0.137-2.212,0.392-4.417,0.613-6.623C139.79,5.757,139.896,5.173,139.988,4.538z
		 M188.891,39.42c0.12,1.468,0.269,2.928,0.349,4.392c0.056,1,0.011,2.006,0.024,3.01c0.002,0.107,0.077,0.282,0.153,0.304
		c0.127,0.037,0.286-0.011,0.426-0.045c0.836-0.202,1.666-0.433,2.507-0.61c0.641-0.135,1.36-0.073,1.921-0.35
		c0.417-0.206,0.67-0.303,1.127-0.153c0.612,0.201,1.458-0.313,1.417-0.746c-0.096-1.008-0.208-2.015-0.287-3.024
		c-0.05-0.643-0.01-1.294-0.086-1.933c-0.151-1.271-0.355-2.534-0.545-3.85c-0.412,0.152-0.938,0.336-1.456,0.543
		c-0.926,0.37-1.866,0.712-2.764,1.144C190.739,38.552,189.996,39.41,188.891,39.42z M195.169,27.45
		c-0.312,0.114-0.598,0.196-0.864,0.32c-2.019,0.938-4.034,1.882-6.045,2.837c-0.146,0.069-0.343,0.249-0.34,0.373
		c0.02,0.691,0.058,1.387,0.158,2.07c0.106,0.72,0.325,1.423,0.431,2.143c0.107,0.734,0.136,1.48,0.212,2.372
		c2.394-0.917,4.59-2.08,7.074-2.242C195.59,32.748,195.382,30.13,195.169,27.45z"/>
	<path fill-rule="evenodd" clip-rule="evenodd" fill="#FFFFFF" d="M152.344,108.321c-0.813-0.507-7.327,0.496-7.778,1.154
		c-0.63-0.373-1.259-0.504-1.938-0.076c-0.187,0.117-0.533,0.183-0.704,0.088c-0.912-0.504-1.724-0.429-2.535,0.218
		c-0.17,0.136-0.486,0.114-0.736,0.116c-0.778,0.004-1.538,0.434-2.342,0.066c-0.153-0.07-0.416,0.125-0.635,0.167
		c-0.401,0.079-0.81,0.126-1.212,0.204c-0.18,0.035-0.348,0.132-0.528,0.17c-0.536,0.115-1.07,0.258-1.614,0.312
		c-1.275,0.129-2.558,0.194-3.833,0.325c-0.52,0.054-1.029,0.21-1.644,0.341c-0.27,0-0.648,0.034-1.019-0.006
		c-1.299-0.143-2.581-0.224-3.801,0.405c-0.154,0.079-0.395-0.004-0.594-0.021c-0.147-0.012-0.295-0.057-0.442-0.056
		c-0.296,0.002-0.593,0.021-0.889,0.041c-0.137,0.009-0.272,0.056-0.408,0.053c-0.166-0.005-0.33-0.06-0.496-0.064
		c-0.317-0.01-0.729-0.129-0.936,0.023c-0.747,0.552-1.555,0.257-2.338,0.302c-1.035,0.062-2.07,0.133-3.103,0.225
		c-0.583,0.052-1.158,0.17-1.74,0.231c-1.099,0.116-2.197,0.254-3.3,0.303c-0.657,0.029-1.32-0.112-1.982-0.142
		c-0.369-0.018-0.742,0.022-1.111,0.062c-0.78,0.086-1.605,0.397-2.329,0.238c-1.479-0.325-2.901,0.079-4.347,0.085
		c-0.874,0.004-1.751,0.515-2.618,0.49c-1.17-0.031-2.304,0.196-3.459,0.224c-1.009,0.023-2.017,0.136-3.026,0.2
		c-0.729,0.046-1.459,0.081-2.189,0.113c-1.015,0.045-2.03,0.104-3.045,0.118c-1.532,0.023-3.068-0.043-4.597,0.034
		c-1.466,0.073-2.924,0.3-4.389,0.422c-0.811,0.067-1.627,0.08-2.441,0.078c-1.281-0.003-2.562-0.053-3.842-0.048
		c-0.198,0.001-0.395,0.188-0.581,0.143c-0.278-0.021-0.556-0.065-0.833-0.06c-1.464,0.03-2.933,0.009-4.391,0.128
		c-2.08,0.17-4.149,0.47-6.227,0.664c-0.671,0.062-1.358-0.068-2.037-0.049c-2.917,0.082-5.835,0.275-8.751,0.25
		c-1.846-0.016-3.685-0.394-5.534-0.519c-1.6-0.108-3.131-0.419-4.656-0.922c-0.866-0.286-1.841-0.224-2.755-0.381
		c-1.708-0.292-3.432-0.539-5.107-0.971c-2.184-0.562-3.737-1.895-4.268-4.186c-0.303-1.31-0.572-2.629-0.808-3.952
		c-0.072-0.404-0.513-0.5-0.514-1.043c-0.002-1.186-0.218-2.386-0.476-3.552c-0.4-1.814-0.95-3.597-1.351-5.411
		c-0.188-0.854-0.132-1.758-0.266-2.627c-0.196-1.276-0.479-2.54-0.695-3.813c-0.148-0.872-0.236-1.755-0.371-2.63
		c-0.045-0.295-0.142-0.584-0.235-0.869c-0.21-0.642-0.369-1.197-0.266-1.975c0.156-1.175-0.215-2.456-0.544-3.642
		c-0.149-0.537-0.315-0.935-0.074-1.156c0-0.65,0.055-1.089-0.011-1.508c-0.158-0.998-0.428-1.979-0.55-2.98
		c-0.112-0.915-0.071-1.848-0.129-2.771c-0.05-0.799-0.116-1.599-0.226-2.391c-0.206-1.481-0.482-2.954-0.663-4.438
		c0.131,1.082-0.618-1.294-0.08-2.763c0.456-1.245-0.086-2.355-0.042-3.526c0.048-1.286-0.221-2.581-0.274-3.876
		c-0.043-1.045,0.026-2.095,0.051-3.143c0.003-0.148,0.11-0.359,0.045-0.435c-0.571-0.657-0.214-1.332-0.135-2.034
		c0.116-1.022,0.094-2.062,0.1-3.096c0.005-0.836-0.053-1.673-0.053-2.51c0-1.101,0.021-2.202,0.051-3.303
		c0.039-1.434,0.038-2.872,0.162-4.299c0.146-1.682,0.403-3.354,0.622-5.03c0.097-0.743,0.146-1.504,0.347-2.22
		c0.199-0.709,0.544-1.38,0.858-2.053c0.62-1.33,1.698-2.07,3.104-2.413c1.053-0.257,2.077-0.647,3.138-0.854
		c1.442-0.279,2.91-0.428,4.363-0.653c1.481-0.23,2.954-0.514,4.438-0.723c1.555-0.219,3.123-0.345,4.677-0.571
		c1.017-0.148,2.015-0.424,3.027-0.607c1.365-0.247,2.731-0.591,4.108-0.655c1.577-0.075,3.167,0.119,4.751,0.182
		c1.557,0.062,3.115,0.153,4.671,0.146c2.115-0.01,4.24-0.26,6.339-0.109c1.855,0.133,3.666-0.166,5.498-0.148
		c1.137,0.012,2.274,0.029,3.411,0.026c1.655-0.005,3.31-0.036,4.965-0.036c1.198,0,2.398,0.081,3.594,0.031
		c0.771-0.032,1.532-0.269,2.305-0.348c0.426-0.044,0.866,0.076,1.299,0.074c1.674-0.007,3.36-0.163,5.021-0.021
		c1.995,0.17,3.891-0.188,5.824-0.53c1.406-0.249,2.855-0.246,4.282-0.383c1.61-0.154,3.218-0.332,4.826-0.514
		c0.526-0.06,1.044-0.188,1.57-0.235c0.301-0.026,0.61,0.055,0.917,0.069c0.17,0.008,0.344-0.007,0.513-0.033
		c0.83-0.13,1.653-0.321,2.487-0.39c1.256-0.103,2.518-0.123,3.778-0.176c0.876-0.037,1.753-0.055,2.627-0.108
		c0.866-0.053,1.709-0.2,2.24-0.669c-0.259-1.348-0.605-2.557-0.695-3.784c-0.092-1.247,0.064-2.512,0.123-3.769
		c0.03-0.647,0.151-1.299,0.101-1.939c-0.024-0.319-0.339-0.616-0.523-0.923c-0.266,0.174-0.682,0.292-0.77,0.531
		c-0.245,0.67-0.505,1.394-0.489,2.09c0.042,1.82,0.197,3.64,0.375,5.452c0.052,0.522,0.336,1.022,0.561,1.668
		c-0.424,0.077-1.001,0.215-1.586,0.283c-0.859,0.099-1.723,0.189-2.586,0.204c-0.518,0.009-1.036-0.178-1.557-0.196
		c-0.342-0.013-0.691,0.182-1.032,0.169c-0.921-0.033-1.014-0.844-1.116-1.458c-0.318-1.928-0.432-3.866-0.234-5.83
		c0.082-0.813-0.176-1.662-0.307-2.709c5.056-0.219,10.049-0.436,15.228-0.659c0.026,0.808,0.025,1.489,0.076,2.168
		c0.084,1.111,0.186,2.222,0.31,3.329c0.073,0.652,0.157,1.311,0.318,1.946c0.234,0.924,0.544,1.83,0.879,2.935
		c-0.507-0.07-1.019-0.16-1.533-0.208c-1.49-0.14-2.989-0.501-4.461,0.098c-0.583,0.237-0.75,0.812-0.539,1.262
		c0.137,0.292,0.725,0.527,1.107,0.522c1.343-0.015,2.684-0.21,4.025-0.215c2.154-0.008,4.309,0.106,6.464,0.122
		c1.574,0.013,3.149-0.062,4.724-0.075c1.405-0.01,2.812,0.051,4.215,0.011c1.686-0.048,3.369-0.187,5.056-0.253
		c1.022-0.04,2.048-0.017,3.072-0.021c0.611-0.003,1.269,0.279,1.778-0.293c0.874,0.66,1.874,0.361,2.82,0.37
		c1.682,0.016,3.364-0.045,5.047-0.045c1.15-0.001,2.3,0.042,3.449,0.076c0.637,0.02,1.271,0.077,1.908,0.093
		c1.311,0.034,2.623,0.03,3.933,0.081c1.534,0.06,3.065,0.175,4.599,0.235c0.399,0.017,0.804-0.123,1.204-0.117
		c2.182,0.031,4.363,0.364,6.547-0.026c0.277-0.05,0.587,0.081,0.882,0.125c0.866,0.13,1.733,0.247,2.597,0.391
		c1.081,0.181,1.552,1.054,2.085,1.862c0.707,1.072,1.528,2.082,2.123,3.212c0.515,0.977,0.852,2.064,1.143,3.137
		c0.562,2.077,1.087,4.167,1.528,6.272c0.299,1.422,0.464,2.876,0.626,4.322c0.159,1.434,0.257,2.876,0.351,4.316
		c0.071,1.093,0.068,2.19,0.143,3.282c0.079,1.15,0.209,2.297,0.32,3.445c0.116,1.195,0.25,2.389,0.352,3.585
		c0.152,1.788,0.295,3.577,0.421,5.367c0.077,1.103,0.105,2.208,0.174,3.312c0.074,1.188,0.174,2.375,0.255,3.562
		c0.064,0.939,0.095,1.882,0.18,2.819c0.182,1.984,0.405,3.965,0.581,5.95c0.092,1.043,0.116,2.092,0.175,3.139
		c0.068,1.209,0.155,2.418,0.206,3.629c0.047,1.11,0.002,2.229,0.095,3.335c0.156,1.866,0.421,3.724,0.577,5.591
		c0.084,1.01-0.014,2.035,0.064,3.046c0.102,1.318,0.33,2.628,0.443,3.946c0.134,1.556,0.271,3.116,0.278,4.676
		c0.006,1.308-0.134,2.62-0.294,3.921c-0.035,0.28-0.387,0.595-0.67,0.759c-1.437,0.833-3.025,0.535-4.561,0.491
		c-1.354-0.039-2.702-0.292-4.058-0.348c-1.275-0.053-2.558,0.006-3.835,0.06c-0.923,0.039-1.887,0.362-2.753,0.181
		c-1.461-0.306-2.79,0.308-4.192,0.299c-0.293-0.002-0.578,0.3-0.886,0.411c-0.188,0.067-0.411,0.061-0.617,0.05
		c-0.222-0.012-0.453-0.13-0.661-0.093c-1.058,0.19-2.108,0.42-3.162,0.629c-0.973,0.193-1.94,0.424-2.921,0.554
		c-0.792,0.105-1.604,0.06-2.401,0.137c-0.297,0.029-0.576,0.226-0.868,0.331c-0.158,0.058-0.352,0.161-0.486,0.115
		c-0.676-0.229-1.169,0.253-1.749,0.388c-0.406,0.094-0.845,0.035-1.266,0.079c-1.187,0.123-2.372,0.256-3.555,0.412
		C152.554,107.962,152.471,108.167,152.344,108.321z"/>
	<path fill-rule="evenodd" clip-rule="evenodd" fill="#FFFFFF" d="M126.227,113.027c0.058,0.874,0.044,1.586,0.163,2.275
		c0.305,1.764,0.611,3.53,1.029,5.27c0.241,1.001,0.699,1.948,1.087,2.994c-0.441,0.067-1.007,0.199-1.577,0.232
		c-2.043,0.119-4.089,0.194-6.132,0.308c-0.743,0.041-0.673-0.594-0.874-0.994c-0.084-0.167-0.045-0.391-0.095-0.58
		c-0.435-1.622-0.892-3.238-1.31-4.865c-0.24-0.938-0.432-1.89-0.621-2.839c-0.078-0.392-0.268-0.709-0.646-0.468
		c-0.31,0.197-0.727,0.669-0.67,0.924c0.3,1.341,0.719,2.656,1.13,3.97c0.318,1.017,0.735,2.003,1.017,3.028
		c0.156,0.572,0.126,1.196,0.19,1.926c-0.489,0.041-1.002,0.095-1.517,0.126c-1.587,0.096-3.179,0.137-4.76,0.289
		c-1.201,0.115-1.56-0.012-1.761-1.188c-0.23-1.341-0.316-2.706-0.505-4.055c-0.065-0.467-0.326-0.911-0.366-1.377
		c-0.062-0.714,0.014-1.438-0.02-2.155c-0.009-0.203-0.199-0.57-0.294-0.566c-0.274,0.011-0.695,0.104-0.78,0.29
		c-0.166,0.364-0.235,0.828-0.18,1.227c0.341,2.429,0.729,4.852,1.097,7.276c0.022,0.147,0.003,0.303,0.003,0.573
		c-0.661,0.088-1.342,0.222-2.028,0.26c-1.389,0.077-2.78,0.124-4.171,0.139c-0.481,0.005-0.908-0.025-0.851-0.819
		c0.056-0.775-0.293-1.571-0.359-2.367c-0.129-1.564-0.178-3.137-0.279-4.704c-0.024-0.376-0.068-0.773-0.22-1.108
		c-0.064-0.142-0.464-0.248-0.651-0.187c-0.216,0.071-0.521,0.35-0.517,0.53c0.019,0.73,0.138,1.459,0.228,2.188
		c0.23,1.86,0.458,3.721,0.703,5.579c0.039,0.293,0.165,0.573,0.24,0.824c-2.896,0.205-5.763,0.409-8.583,0.61
		c-0.229-1.013-0.505-2.047-0.687-3.098c-0.172-0.997-0.222-2.015-0.374-3.017c-0.053-0.35-0.184-0.737-0.409-0.995
		c-0.149-0.171-0.549-0.231-0.797-0.172c-0.165,0.039-0.317,0.362-0.369,0.583c-0.049,0.211,0.012,0.462,0.072,0.682
		c0.359,1.312,0.756,2.614,1.088,3.933c0.159,0.631,0.206,1.29,0.328,2.099c-0.924,0-1.878,0.007-2.832-0.003
		c-0.433-0.004-0.868-0.077-1.298-0.053c-1.371,0.078-2.739,0.204-4.11,0.269c-0.201,0.01-0.532-0.164-0.597-0.332
		c-0.217-0.561-0.499-1.167-0.465-1.738c0.07-1.169-0.206-2.199-0.72-3.224c-0.159-0.318-0.057-0.76-0.118-1.137
		c-0.051-0.313-0.113-0.648-0.274-0.91c-0.092-0.15-0.477-0.297-0.58-0.227c-0.208,0.144-0.471,0.461-0.438,0.662
		c0.186,1.119,0.456,2.225,0.691,3.336c0.254,1.194,0.501,2.39,0.785,3.743c-1.127,0-2.193,0.229-3.108-0.047
		c-2.039-0.613-4.235,0.398-6.199-0.606c0.058-0.056,0.116-0.112,0.174-0.168c-0.078-0.353-0.098-0.732-0.247-1.052
		c-0.288-0.617-0.233-1.23-0.149-1.868c0.037-0.278,0.007-0.578-0.054-0.854c-0.253-1.148-0.524-2.293-0.799-3.436
		c-0.146-0.606-0.44-0.771-1.434-0.702c0.066,0.579,0.1,1.158,0.204,1.725c0.224,1.223,0.475,2.439,0.73,3.655
		c0.217,1.035,0.454,2.066,0.684,3.107c-1.333,0-2.59,0.067-3.836-0.019c-1.399-0.097-2.792-0.316-4.181-0.527
		c-0.233-0.036-0.496-0.261-0.634-0.472c-0.822-1.256-0.851-2.693-0.876-4.125c-0.015-0.854,0.015-1.71-0.046-2.56
		c-0.01-0.134-0.383-0.313-0.606-0.345c-0.389-0.055-0.708,0.066-0.68,0.577c0.043,0.785,0.017,1.577,0.103,2.356
		c0.125,1.121,0.315,2.235,0.501,3.349c0.04,0.24,0.18,0.463,0.336,0.848c-0.695,0.08-1.376,0.311-1.999,0.201
		c-1.961-0.343-3.931-0.51-5.914-0.58c-0.392-0.014-0.822,0.109-1.169-0.016c-0.792-0.284-1.071-1.025-1.004-2.131
		c0.028-0.464-0.068-0.935-0.126-1.614c0.29-0.422,0.267-0.853-0.357-3.146c0.356-0.095,0.708-0.249,1.07-0.273
		c1.282-0.087,2.569-0.113,3.852-0.194c2.247-0.142,4.49-0.339,6.738-0.454c2.054-0.105,4.112-0.148,6.169-0.189
		c1.725-0.033,3.451,0.005,5.175-0.045c1.151-0.032,2.3-0.164,3.45-0.249c1.754-0.128,3.507-0.263,5.262-0.379
		c1.392-0.093,2.785-0.155,4.177-0.243c1.813-0.113,3.624-0.256,5.438-0.352c1.501-0.078,3.008-0.067,4.508-0.166
		c2.301-0.15,4.597-0.375,6.898-0.539c1.37-0.097,2.744-0.129,4.116-0.206c0.634-0.035,1.265-0.121,1.898-0.157
		c1.567-0.087,3.137-0.129,4.702-0.242c1.789-0.13,3.574-0.33,5.362-0.477c0.854-0.07,1.728,0,2.563-0.15
		C124.101,113.019,125.264,113.331,126.227,113.027z"/>
	<path fill-rule="evenodd" clip-rule="evenodd" fill="#FFFFFF" d="M176.557,117.399c-1.021,0.137-1.896,0.258-2.772,0.369
		c-0.967,0.124-1.938,0.225-2.902,0.362c-0.738,0.105-1.468,0.271-2.206,0.374c-0.561,0.079-1.446-0.989-1.401-1.576
		c0.041-0.541,0.002-1.09-0.027-1.634c-0.092-1.726-0.173-3.453-0.309-5.176c-0.041-0.517-0.245-1.02-0.376-1.532
		c-0.994-0.079-1.258,0.216-1.132,1.401c0.182,1.706,0.381,3.409,0.612,5.108c0.161,1.188,0.389,2.365,0.594,3.587
		c-1.408,0.313-2.818,0.626-4.175,0.928c-0.421,0-0.936-0.159-1.195,0.03c-0.658,0.481-1.35,0.335-2.043,0.345
		c-0.352,0.005-0.739,0.23-0.994-0.27c-0.376-0.738-0.772-1.473-1.233-2.161c-0.85-1.271-0.826-2.828-1.438-4.173
		c-0.06-0.131-0.139-0.375-0.087-0.416c0.624-0.5,0.15-1.168,0.284-1.738c0.106-0.452,0.137-0.922,0.205-1.423
		c-1.227-0.512-1.997,0.139-1.792,1.783c0.182,1.461,0.495,2.906,0.789,4.35c0.035,0.17,0.315,0.29,0.544,0.486
		c-0.042,0.068-0.138,0.225-0.224,0.364c0.605,1.17,1.207,2.332,1.893,3.657c-0.849,0.129-1.715,0.258-2.58,0.394
		c-0.764,0.119-1.524,0.272-2.292,0.361c-0.759,0.088-1.525,0.099-2.286,0.171c-1.653,0.155-3.31,0.298-4.958,0.501
		c-1.394,0.173-2.772,0.461-4.166,0.628c-0.936,0.111-1.886,0.098-2.829,0.147c-1.099,0.06-2.199,0.114-3.297,0.195
		c-1.078,0.079-2.155,0.189-3.232,0.285c-0.2,0.018-0.409-0.004-0.599,0.05c-1.257,0.356-1.598,0.194-1.931-1.049
		c-0.406-1.518-0.829-3.033-1.138-4.571c-0.204-1.018-0.206-2.074-0.325-3.11c-0.055-0.468-0.174-0.929-0.26-1.378
		c2.707-0.403,5.506-0.819,8.374-1.247c-0.327,0.647-0.832,1.266-0.138,1.927c-0.226,1.409,0.487,2.664,0.676,4.008
		c0.14,0.995,0.454,1.97,0.736,2.939c0.19,0.653,0.738,0.935,1.261,0.798c-0.339-1.6-0.708-3.188-1.005-4.791
		c-0.194-1.051-0.221-2.134-0.441-3.178c-0.129-0.608-0.494-1.166-0.756-1.756c0.792-0.193,1.702-0.486,2.635-0.627
		c1.116-0.169,2.258-0.319,3.378-0.262c0.718,0.037,1.358,0.059,2.003-0.276c0.129-0.066,0.361-0.009,0.515,0.061
		c0.552,0.248,0.906,0.067,1.033-0.264c0.832,0,1.567,0.074,2.283-0.014c2.136-0.263,4.269-0.561,6.395-0.898
		c1.24-0.198,2.457-0.553,3.698-0.74c1.472-0.223,2.965-0.307,4.438-0.518c1.592-0.229,3.167-0.566,4.759-0.798
		c2.076-0.303,4.156-0.607,6.245-0.798c1.565-0.143,3.148-0.152,4.723-0.14c1.907,0.015,3.812,0.114,5.719,0.184
		c0.091,0.004,0.18,0.066,0.279,0.104c-1.307,1.763,0.576,6.735,2.056,8.174c0.184-0.249,0.362-0.493,0.497-0.677
		c-0.196-0.971-1.235-1.494-0.976-2.684c0.125-0.572-0.356-1.272-0.543-1.92c-0.068-0.238-0.15-0.51-0.102-0.739
		c0.187-0.878-0.121-1.558-0.771-2.149c2.321-0.298,4.679,0.589,6.839-0.37c0.913,2.679,1.696,5.335,4.172,7.351
		c-1.441,0.38-2.633,0.721-3.838,1.003c-1.033,0.242-2.106,0.336-3.119,0.638c-1.98,0.592-4.03,0.74-6.05,1.076
		c-1.352,0.225-2.709,0.42-4.052,0.687c-0.749,0.148-0.881-0.441-1.01-0.847c-0.379-1.193-0.77-2.405-0.926-3.639
		c-0.141-1.105,0.088-2.253,0.026-3.376c-0.033-0.618-0.295-1.236-0.533-1.823c-0.051-0.125-0.461-0.187-0.674-0.137
		c-0.168,0.038-0.378,0.274-0.41,0.452c-0.093,0.512-0.198,1.051-0.132,1.558c0.217,1.674,0.428,3.356,0.8,4.999
		C175.564,115.343,176.087,116.256,176.557,117.399z M144.2,111.447c-0.078,0.439-0.119,0.766-0.195,1.083
		c-0.224,0.929,0.544,1.625,0.588,2.464c0.08,1.535,0.649,2.894,1.291,4.247c0.683,1.44,0.812,1.56,2.039,1.415
		c-2.021-2.598-2.108-5.744-2.979-8.809C144.881,111.814,144.66,111.695,144.2,111.447z"/>
	<path fill-rule="evenodd" clip-rule="evenodd" fill="#FFFFFF" d="M84.998,17.479c-0.31,0-0.569-0.005-0.829,0.001
		c-1.193,0.023-2.388,0.014-3.579,0.085c-1.051,0.062-2.098,0.17-3.108-0.215c-0.121-0.046-0.272-0.3-0.241-0.409
		c0.277-0.967-0.311-1.512-1.12-2.109c0.339,0.017,0.5,0.023,0.66,0.031c-0.067-1.727-0.116-3.453-0.224-5.176
		c-0.016-0.253-0.265-0.618-0.49-0.7c-0.341-0.123-1.193,0.774-1.159,1.15c0.134,1.457,0.209,2.925,0.442,4.365
		c0.171,1.058,0.556,2.08,0.869,3.202c-0.807,0-1.588-0.003-2.368,0c-1.315,0.006-2.631,0.034-3.946,0.013
		c-0.595-0.01-1.224-0.021-1.768-0.22c-0.289-0.105-0.546-0.594-0.613-0.948c-0.14-0.743-0.069-1.527-0.225-2.265
		c-0.182-0.858-0.514-1.686-0.799-2.585c0.396-0.159,0.517-0.461,0.249-0.988c-0.119-0.234,0.062-0.621,0.235-1.15
		c-0.431-0.076-0.95-0.331-1.266-0.175c-0.269,0.133-0.464,0.76-0.415,1.132c0.18,1.346,0.469,2.678,0.733,4.012
		c0.2,1.009,0.423,2.014,0.643,3.05c-2.326,0.213-4.723,0.655-7.135,0.396c-0.191-1.069-0.357-2.137-0.582-3.192
		c-0.102-0.474-0.358-0.914-0.469-1.388c-0.046-0.196,0.176-0.447,0.153-0.66c-0.069-0.65-0.165-1.303-0.328-1.935
		c-0.035-0.132-0.409-0.264-0.614-0.246c-0.435,0.038-0.893,0.178-0.857,0.748c0.037,0.601,0.126,1.199,0.23,1.793
		c0.116,0.657,0.146,1.374,0.445,1.944c0.457,0.873,0.399,2.042,1.433,2.607c0.119,0.065,0.142,0.306,0.166,0.361
		c-1.878,0.042-3.778,0.112-5.679,0.113c-0.891,0.001-1.785-0.111-2.672-0.218c-0.189-0.022-0.432-0.207-0.518-0.383
		c-0.4-0.815-0.922-1.624-1.075-2.492c-0.149-0.843-0.202-1.684-0.628-2.448c-0.029-0.053,0.004-0.147,0.023-0.218
		c0.061-0.218,0.239-0.572,0.174-0.624c-0.193-0.153-0.537-0.314-0.72-0.235c-0.246,0.104-0.566,0.436-0.561,0.662
		c0.023,0.976,0.084,1.963,0.268,2.919c0.159,0.831,0.501,1.627,0.746,2.385c-2.337,0.226-4.703,0.454-7.035,0.68
		c-0.274-0.436-0.586-0.837-0.794-1.287c-0.193-0.416-0.671-0.833-0.181-1.359c0.041-0.043,0.04-0.152,0.019-0.22
		c-0.225-0.738-0.521-1.462-0.654-2.215c-0.052-0.293,0.198-0.876,0.42-0.938c1.047-0.296,2.135-0.449,3.205-0.668
		c0.633-0.13,1.26-0.289,1.89-0.434c0.069-0.016,0.154-0.046,0.209-0.021c1.016,0.451,1.945-0.253,2.934-0.221
		c0.563,0.019,1.13-0.101,1.695-0.159c2.002-0.209,4.051-0.224,5.992-0.688c1.524-0.364,3.036-0.366,4.552-0.512
		c1.89-0.181,3.791-0.25,5.687-0.346c1.117-0.056,2.24-0.022,3.353-0.113c1.97-0.162,3.934-0.397,5.902-0.584
		c1.087-0.104,2.177-0.21,3.268-0.245c2.17-0.07,4.345-0.041,6.513-0.155c1.122-0.059,2.23-0.341,3.347-0.514
		c1.115-0.173,2.231-0.338,3.347-0.504c0.728-0.108,1.454-0.252,2.187-0.309c0.762-0.058,1.531-0.003,2.295-0.043
		c1.423-0.075,2.844-0.214,4.268-0.268c1.222-0.046,2.446-0.01,3.582-0.01c0.129,3.076,0.261,6.232,0.397,9.462
		c-0.383,0.211-0.81,0.494-1.535,0.285c-0.748-0.215-1.62-0.042-2.432,0.024c-1.042,0.086-2.077,0.249-3.118,0.352
		c-0.725,0.072-1.335-0.656-1.327-1.384c0.015-1.334-0.029-2.67-0.093-4.004c-0.035-0.718-0.164-1.431-0.226-1.938
		c0.135-0.661,0.281-1.161,0.309-1.669c0.007-0.12-0.387-0.373-0.588-0.366c-0.267,0.011-0.638,0.149-0.764,0.355
		c-0.204,0.333-0.349,0.769-0.337,1.155c0.058,2.014,0.173,4.025,0.268,6.037c0.036,0.761,0.071,1.521,0.102,2.183
		c-1.064,0.074-1.955,0.085-2.831,0.208c-1.831,0.257-3.659,0.497-5.513,0.375c-0.57-0.038-1.257-0.732-1.249-1.301
		c0.013-0.904,0.092-1.81,0.079-2.713c-0.008-0.55-0.16-1.097-0.203-1.649c-0.029-0.37,0.071-0.754,0.019-1.119
		c-0.062-0.437-0.171-0.889-0.383-1.265C85,9.274,84.332,9.35,84.183,9.537c-0.232,0.291-0.39,0.755-0.356,1.125
		c0.154,1.689,0.361,3.375,0.602,5.054C84.502,16.228,84.745,16.715,84.998,17.479z"/>
	<path fill-rule="evenodd" clip-rule="evenodd" fill="#FFFFFF" d="M7.615,60.849c0.815-0.287,1.513-0.558,2.227-0.776
		c0.724-0.222,1.464-0.547,2.197-0.546c0.949,0.001,0.996-0.651,1.287-1.172c-0.03-0.09-0.06-0.18-0.09-0.27
		c-1.808,0.284-3.616,0.569-5.512,0.867c-0.307-2.563-0.636-5.31-0.966-8.062c2.015,0.586,3.825,0.163,5.571-0.7
		c0.14-0.069,0.2-0.301,0.297-0.457c-0.14-0.078-0.28-0.223-0.419-0.222c-0.372,0.001-0.776-0.017-1.109,0.117
		c-1.25,0.504-2.445-0.142-3.667-0.115c-0.219,0.004-0.439,0-0.718,0c-0.119-1.023,0.124-2.194-1.003-3.031
		c0.91,0.15,0.863-0.396,0.7-0.8c-0.438-1.089-0.458-2.206-0.412-3.344c0.01-0.251-0.042-0.505-0.053-0.622
		c0.513-0.149,0.994-0.294,1.477-0.427c0.1-0.026,0.215-0.029,0.318-0.011c0.839,0.148,1.674,0.322,2.517,0.45
		c0.556,0.085,1.145,0.027,1.676,0.181c0.695,0.2,1.08-0.08,1.414-0.661c-2.444-0.272-4.692-1.596-7.377-1.21
		c-0.032-0.614-0.037-1.206-0.103-1.79c-0.033-0.295-0.129-0.604-0.279-0.858c-0.364-0.618-0.312-1.235-0.168-1.9
		c0.068-0.314-0.082-0.671-0.091-1.01c-0.005-0.186,0.075-0.372,0.239-0.526c-0.04-0.559-0.107-1.117-0.111-1.677
		c-0.006-0.854,0.027-1.709,0.05-2.564c0.037-1.394,0.068-2.788,0.121-4.182c0.023-0.61,0.064-1.223,0.148-1.827
		c0.242-1.744,0.395-3.513,0.815-5.215c0.211-0.854,0.925-1.583,1.418-2.365c0.053-0.083,0.14-0.183,0.226-0.2
		c1.111-0.226,2.221-0.465,3.342-0.62c0.158-0.022,0.383,0.373,0.564,0.586c0.675,0.798,1.442,1.541,1.978,2.424
		c0.304,0.503,1.166,0.427,1.109,1.224c-0.008,0.116,0.282,0.276,0.456,0.38c0.554,0.331,1.089,0.736,1.689,0.933
		c0.373,0.122,0.852-0.083,1.4-0.157c0.334,0.42,1.386,0.496,1.874-0.035c0.061-0.066,0.138-0.216,0.112-0.245
		c-0.089-0.104-0.209-0.212-0.336-0.245c-0.981-0.261-1.979-0.466-2.945-0.774c-0.334-0.106-0.62-0.429-0.878-0.699
		c-1.049-1.099-2.081-2.215-3.112-3.331c-0.06-0.063-0.06-0.183-0.086-0.273c2.805-0.464,5.577-0.922,8.45-1.396
		c0.453,0.847,0.904,1.708,1.374,2.559c0.149,0.27,0.359,0.505,0.522,0.767c0.182,0.293,0.288,0.655,0.525,0.888
		c0.562,0.552,1.18,1.05,1.783,1.561c0.124,0.104,0.283,0.166,0.419,0.256c0.645,0.422,1.109,0.188,1.236-0.724
		c-1.124,0.039-1.701-0.811-2.331-1.535c-0.308-0.354-0.475-0.844-0.659-1.291c-0.376-0.914-0.722-1.842-1.087-2.781
		c2.469-0.955,4.932-1.099,7.354-1.113c0.199,2.474,1.075,4.775,1.94,7.181c-0.115,0.063-0.297,0.243-0.494,0.261
		c-1.611,0.139-3.228,0.226-4.838,0.377c-0.635,0.061-1.265,0.218-1.885,0.377c-0.972,0.249-1.925,0.577-2.903,0.797
		c-0.672,0.15-1.412,0.062-2.049,0.286c-0.601,0.212-1.308,0.175-1.814,0.719c-0.162,0.173-0.683-0.016-0.887,0.149
		c-0.844,0.685-1.621,1.396-1.881,2.578c-0.258,1.177-0.839,2.279-1.14,3.45c-0.264,1.03-0.387,2.104-0.48,3.167
		c-0.164,1.852-0.291,3.708-0.37,5.565c-0.072,1.68-0.052,3.362-0.086,5.044c-0.033,1.623-0.119,3.245-0.117,4.867
		c0.002,1.326,0.124,2.651,0.148,3.977c0.013,0.736-0.139,1.479-0.089,2.209c0.181,2.602,0.45,5.197,0.618,7.801
		c0.096,1.485,0.066,2.979,0.076,4.47c0.001,0.133-0.089,0.336-0.195,0.387c-0.739,0.353-1.438,0.78-2.337,0.707
		c-0.444-0.036-0.906,0.282-1.372,0.341c-0.591,0.073-1.196,0.021-1.792,0.07c-0.295,0.025-0.582,0.158-1.007,0.28
		c-0.089-0.66-0.176-1.296-0.262-1.932c0.062,0.021,0.124,0.04,0.186,0.061c0.099-0.252,0.31-0.519,0.278-0.753
		C8.055,63.386,7.816,62.066,7.615,60.849z M14.754,23.864c-0.741,0.745-1.534,0.791-2.402,0.346
		c-0.857-0.44-1.83-0.728-2.564-1.315c-0.595-0.476-1.36-0.908-1.533-1.84c-0.092-0.498-0.557-0.816-1.117-0.696
		c-0.406,0.088-0.466,0.764-0.179,1.342c0.661,1.33,1.638,2.371,2.926,3.092c0.455,0.255,1.075,0.245,1.485,0.542
		c0.965,0.699,1.904,0.419,2.797,0.007C14.653,25.116,15.321,24.745,14.754,23.864z M13.453,34.27
		c-0.443-0.185-0.819-0.45-1.215-0.485c-1.319-0.118-2.356-0.919-3.528-1.383c-0.455-0.181-0.79-0.653-1.196-0.971
		c-0.261-0.204-0.444-0.771-0.901-0.326c-0.355,0.346-0.521,0.84-0.093,1.213c0.591,0.516,1.24,0.976,1.908,1.387
		c1.247,0.768,2.646,1.1,4.086,1.245C12.986,34.997,13.539,35.019,13.453,34.27z"/>
	<path fill-rule="evenodd" clip-rule="evenodd" fill="#FFFFFF" d="M201.124,76.148c0.121,0.956,0.246,1.785,0.327,2.618
		c0.183,1.882,0.344,3.767,0.514,5.649c0.007,0.075,0.032,0.151,0.028,0.226c-0.079,1.766-0.556,1.888-2.45,0.885
		c-1.552-0.822-3.186-1.489-4.787-2.218c-0.158-0.072-0.339-0.095-0.54-0.148c-0.039,0.174-0.022,0.37-0.11,0.45
		c-0.548,0.496-0.555,0.875,0.131,1.179c1.863,0.825,3.754,1.59,5.638,2.371c0.273,0.113,0.559,0.223,0.849,0.269
		c1.385,0.218,1.411,0.207,1.511,1.62c0.132,1.858,0.206,3.721,0.33,5.579c0.035,0.524-0.123,0.722-0.673,0.746
		c-0.659,0.03-1.192-0.083-1.77-0.468c-0.588-0.393-1.354-0.509-2.021-0.796c-1.208-0.52-2.392-1.096-3.604-1.603
		c-0.243-0.103-0.743-0.103-0.824,0.031c-0.152,0.254-0.23,0.747-0.081,0.947c0.307,0.408,0.744,0.762,1.198,1.007
		c0.922,0.497,1.853,1.047,2.85,1.319c1.248,0.341,2.342,1.226,3.728,1.085c0.368-0.037,0.741-0.036,1.337-0.063
		c0,1.067,0.005,2.19-0.001,3.314c-0.012,1.958,0.113,3.931-0.094,5.869c-0.144,1.353-0.681,2.682-1.165,3.975
		c-0.276,0.737-0.772,1.399-1.228,2.056c-0.116,0.168-0.447,0.189-0.682,0.273c-0.361,0.131-0.716,0.298-1.089,0.377
		c-0.616,0.131-1.252,0.991-1.875-0.074c-0.132-0.225-0.686-0.16-0.961-0.351c-1.022-0.709-1.672-1.733-2.143-2.856
		c-0.454-1.081-0.848-2.189-1.227-3.299c-0.075-0.22-0.062-0.598,0.076-0.74c0.775-0.8,0.985-1.685,0.904-2.809
		c-0.093-1.291,0.17-2.604,0.19-3.908c0.011-0.68-0.168-1.363-0.373-1.999c0.079-0.328,0.26-0.669,0.222-0.982
		c-0.259-2.155-0.593-4.302-0.845-6.458c-0.189-1.617-0.269-3.246-0.444-4.864c-0.083-0.77-0.295-1.524-0.416-2.292
		c-0.041-0.257-0.073-0.583,0.047-0.785c0.31-0.519,0.209-1.019,0.026-1.506c-0.374-1-0.145-1.978,0.012-2.968
		c0.032-0.204-0.048-0.423-0.047-0.635c0.005-0.624,0.099-1.256,0.021-1.868c-0.133-1.059-0.382-2.103-0.55-3.158
		c-0.033-0.213,0.132-0.453,0.116-0.675c-0.102-1.49-0.219-2.979-0.358-4.466c-0.019-0.2-0.194-0.385-0.349-0.672
		c0.313,0.021,0.537,0.036,0.761,0.052c-0.044,0.062-0.088,0.123-0.132,0.185c0.301,0.243,0.565,0.585,0.908,0.712
		c2.119,0.779,4.298,0.722,6.491,0.384c0.528-0.082,1.065-0.113,1.728-0.181c0.229,2.735,0.463,5.515,0.71,8.454
		c-1.042-0.085-2.015-0.117-2.973-0.252c-1.614-0.228-3.126-0.764-4.521-1.63c-0.525-0.326-1.171-0.14-1.32,0.469
		c-0.078,0.319,0.212,0.859,0.499,1.114c1.011,0.896,2.334,1.215,3.592,1.463C197.78,76.41,199.396,76.76,201.124,76.148z
		 M194.309,100.19c-0.701,0.794-0.522,1.431,0.041,2.044c0.068,0.074,0.117,0.166,0.173,0.25c1.041,1.571,2.46,2.766,3.969,3.845
		c0.496,0.355,1.144,0.512,1.738,0.71c0.495,0.165,1.015,0.258,1.496,0.377c0.026-0.144,0.016-0.335,0.095-0.476
		c0.41-0.731,0.417-0.721-0.424-0.807c-0.102-0.011-0.183-0.155-0.286-0.215c-0.899-0.512-1.838-0.965-2.691-1.543
		c-0.779-0.528-1.761-1.053-2.123-1.827C195.819,101.53,195.046,100.949,194.309,100.19z"/>
	<path fill-rule="evenodd" clip-rule="evenodd" fill="#FFFFFF" d="M15.062,116.349c0.107,0.232,0.181,0.394,0.255,0.555
		c0.014-0.076,0.029-0.152,0.043-0.229c0.312-0.041,0.625-0.067,0.933-0.127c0.271-0.053,0.565-0.09,0.797-0.225
		c1.499-0.87,3.001-1.739,4.464-2.667c0.446-0.282,0.773-0.751,1.04-1.018c0.972,0.587,1.983,1.179,2.968,1.812
		c0.166,0.106,0.327,0.405,0.302,0.591c-0.083,0.623-0.193,1.256-0.401,1.846c-0.372,1.053-0.823,2.077-1.243,3.113
		c-0.037,0.092-0.064,0.202-0.132,0.265c-0.687,0.627-0.675,0.725,0.156,1.3c1.546-0.924,1.754-2.586,2.236-4.083
		c0.264-0.817,0.409-1.674,0.611-2.531c2.063,0.297,4.032,0.58,5.945,0.856c0.146,2.2,0.288,4.33,0.433,6.517
		c1.13-0.399,0.813-1.267,0.913-1.894c0.152-0.958,0.101-1.948,0.147-2.925c0.021-0.442,0.07-0.884,0.122-1.506
		c0.791,0.185,1.485,0.282,2.134,0.511c1.393,0.49,2.81,0.729,4.275,0.558c0.824-0.096,0.812,0.625,0.914,1.02
		c0.154,0.593-0.077,1.286,0.075,1.882c0.237,0.93-0.211,2.093,0.851,2.761c0.13,0.081,0.41,0.165,0.439,0.123
		c0.104-0.15,0.214-0.38,0.17-0.535c-0.427-1.488-0.29-2.976-0.08-4.475c0.061-0.431,0.265-0.532,0.613-0.461
		c1.696,0.349,3.392,0.241,5.095,0.063c0.37-0.038,0.755,0.07,1.167,0.115c0.178,1.542,0.331,3.049,0.538,4.549
		c0.06,0.436,0.247,0.861,0.422,1.272c0.265,0.623,0.086,0.936-0.573,0.924c-1.64-0.027-3.28-0.026-4.918-0.095
		c-1.39-0.059-2.781-0.164-4.165-0.309c-1.67-0.174-3.329-0.455-5-0.608c-1.544-0.142-3.106-0.307-4.645-0.211
		c-0.959,0.059-1.802-0.294-2.716-0.325c-0.923-0.032-1.84-0.202-2.763-0.275c-1.031-0.081-2.075-0.054-3.096-0.197
		c-1.515-0.211-3.104-0.309-4.493-0.872c-1.183-0.479-2.146-1.526-3.169-2.366c-0.494-0.405-0.913-0.905-1.344-1.383
		c-0.078-0.086-0.113-0.314-0.055-0.402C14.533,116.958,14.784,116.688,15.062,116.349z"/>
	<path fill-rule="evenodd" clip-rule="evenodd" fill="#FFFFFF" d="M170.793,4.619c2.382,0.335,4.994,0.701,7.681,1.078
		c-0.3,1.423-0.62,2.623-0.795,3.845c-0.248,1.736-0.923,3.427-0.604,5.236c0.023,0.134-0.29,0.465-0.458,0.474
		c-1.848,0.095-3.697,0.182-5.546,0.19c-1.479,0.007-2.956-0.122-4.435-0.146c-1.443-0.022-2.887,0.013-4.329,0.022
		c-0.478,0.003-0.956-0.016-1.432,0.012c-0.571,0.033-0.801-0.33-0.824-0.782c-0.054-1.063-0.03-2.131-0.055-3.196
		c-0.012-0.481-0.261-1.077-0.06-1.42c0.567-0.969,0.106-1.963,0.259-2.931c0.118-0.756,0.023-1.545,0.023-2.55
		c3.057,0,6.219,0,9.286,0c-0.191,0.331-0.468,0.637-0.558,0.99c-0.422,1.666-0.872,3.332-1.153,5.024
		c-0.191,1.152-0.138,2.349-0.149,3.525c-0.002,0.229,0.156,0.506,0.325,0.676c0.142,0.144,0.407,0.164,0.618,0.239
		c0.062-0.203,0.235-0.459,0.168-0.6c-0.375-0.782-0.148-1.537-0.072-2.334c0.158-1.66,1.133-3.16,0.911-4.887
		c-0.021-0.166,0.112-0.36,0.198-0.53C170.086,5.977,170.388,5.401,170.793,4.619z"/>
	<path fill-rule="evenodd" clip-rule="evenodd" fill="#FFFFFF" d="M11.272,93.102c-0.322-0.105-0.697-0.141-0.953-0.334
		c-0.308-0.233-0.647-0.565-0.738-0.916c-0.183-0.702-0.578-1.336-0.123-2.211c0.302-0.579,0.003-1.518-0.148-2.271
		c-0.12-0.6,0.046-0.868,0.613-0.972c1.299-0.237,2.602-0.459,3.893-0.736c0.659-0.142,1.297-0.385,1.943-0.586
		c0.587-0.184,0.759-0.605,0.664-1.256c-0.195,0.011-0.431-0.049-0.565,0.042c-0.838,0.565-1.764,0.573-2.727,0.575
		c-1.316,0.002-2.632,0.116-3.877,0.18c-0.262-0.945-0.529-1.809-0.726-2.688c-0.052-0.231,0.171-0.514,0.165-0.771
		c-0.025-1.009-0.09-2.017-0.142-3.037c1.772,0.42,3.427-0.376,5.117-0.772c0.623-0.146,1.113-0.862,1.664-1.317
		c-0.046-0.06-0.092-0.12-0.138-0.18c-0.069-0.009-0.165-0.052-0.203-0.021c-0.878,0.695-1.954,0.529-2.954,0.692
		c-0.391,0.063-0.773,0.205-1.166,0.234c-0.396,0.028-0.808-0.104-1.194-0.044c-0.429,0.067-0.835,0.274-1.274,0.428
		c0.069-0.373-0.477-0.909,0.173-1.354c0.021-0.015-0.003-0.097-0.01-0.146c-0.197-1.307-0.406-2.611-0.58-3.922
		c-0.027-0.206,0.169-0.438,0.153-0.649c-0.039-0.506-0.172-1.005-0.204-1.51c-0.011-0.187,0.111-0.507,0.248-0.556
		c0.904-0.326,1.819-0.636,2.751-0.869c0.645-0.161,1.337-0.135,1.98-0.301c0.405-0.105,0.756-0.416,1.136-0.626
		c0.193-0.106,0.398-0.192,0.597-0.287c0.072,0.188,0.19,0.369,0.21,0.562c0.204,1.979,0.359,3.965,0.592,5.941
		c0.211,1.796,0.523,3.58,0.751,5.375c0.229,1.796,0.363,3.604,0.626,5.396c0.154,1.046,0.527,2.058,0.716,3.101
		c0.138,0.761,0.118,1.548,0.201,2.319c0.063,0.592,0.194,1.176,0.257,1.768c0.014,0.134-0.092,0.373-0.2,0.414
		c-1.012,0.386-1.915,0.982-3.041,1.171c-1.073,0.18-2.113,0.309-3.193,0.214c-0.201-0.018-0.417,0.14-0.626,0.217
		C11.054,93.298,11.163,93.2,11.272,93.102z"/>
	<path fill-rule="evenodd" clip-rule="evenodd" fill="#FFFFFF" d="M21.186,107.681c0.343,1.341,0.669,2.613,1.022,3.992
		c-1.379,0.859-2.741,1.75-4.143,2.571c-1.402,0.822-2.824,1.641-4.505,1.442c-2.116-4.055-2.081-8.516-2.659-13.066
		c0.251,0.234,0.369,0.335,0.476,0.445c0.383,0.395,0.767,0.357,1.239,0.113c0.741-0.383,1.498-0.769,2.292-1.004
		c0.728-0.215,1.525-0.185,2.273-0.346c1.202-0.261,1.82-0.842,2.197-2.095c-0.641,0.13-1.19,0.204-1.717,0.355
		c-0.868,0.249-1.711,0.594-2.585,0.813c-1.059,0.266-2.159,0.377-3.2,0.691c-0.392,0.118-0.667,0.618-0.988,0.936
		c-0.082-0.522-0.182-1.092-0.257-1.664c-0.106-0.82-0.586-1.575-0.243-2.489c0.125-0.332-0.286-0.843-0.385-1.286
		c-0.107-0.478-0.197-0.974-0.182-1.457c0.019-0.611,0.25-0.786,1.011-0.851c0.804-0.068,1.639,0.005,2.453-0.169
		c1.31-0.28,2.548-0.691,3.648-1.463c0.444-0.312,0.863-0.66,1.114-0.854c0.264,1.312,0.58,2.924,0.914,4.532
		c0.551,2.651,1.113,5.301,1.673,7.95c0.058,0.274,0.122,0.549,0.203,0.817c0.287,0.942-0.147,1.395-0.916,1.957
		c-1.148,0.84-2.525,0.959-3.743,1.538c-0.706,0.336-1.546,0.379-2.305,0.621c-0.233,0.075-0.518,0.353-0.556,0.576
		c-0.043,0.249,0.099,0.709,0.279,0.781c0.326,0.131,0.768,0.132,1.112,0.027c0.74-0.226,1.495-0.473,2.155-0.861
		c0.549-0.323,1.198-0.153,1.699-0.505c0.584-0.411,1.155-0.839,1.722-1.273C20.562,108.246,20.817,108.001,21.186,107.681z"/>
	<path fill-rule="evenodd" clip-rule="evenodd" fill="#FFFFFF" d="M195.109,26.14c-2.495,0.887-5.05,1.794-7.512,2.668
		c-0.521-1.341-1.09-2.759-1.611-4.192c-0.081-0.223,0.046-0.521,0.07-0.725c1.104-0.413,2.203-0.723,3.057-1.577
		c0.357-0.356,0.882-0.54,1.267-0.876c1.138-0.994,2.264-2.006,3.344-3.062c0.176-0.173,0.094-0.609,0.132-0.924
		c-0.105-0.062-0.211-0.123-0.316-0.185c-0.655,0.562-1.28,1.167-1.973,1.679c-1.147,0.848-2.327,1.655-3.52,2.439
		c-0.44,0.289-0.942,0.5-1.44,0.682c-1.182,0.429-1.159,0.092-1.786-0.812c-0.58-0.837-1.066-1.738-1.502-2.459
		c0.46-0.541,1.02-1.128,1.494-1.778c0.439-0.603,0.765-1.288,1.182-1.908c0.41-0.608,0.913-1.157,1.304-1.777
		c0.504-0.799,0.821-1.744,1.434-2.438c0.563-0.639,0.716-1.295,0.734-2.03c0.498,0.089,1.101,0.029,1.459,0.297
		c0.617,0.46,1.233,1.046,1.579,1.719c0.639,1.239,1.14,2.561,1.584,3.886c0.294,0.879,0.404,1.821,0.566,2.74
		c0.152,0.867,0.282,1.738,0.388,2.612c0.06,0.49,0.062,0.988,0.064,1.482C195.114,23.143,195.109,24.685,195.109,26.14z"/>
	<path fill-rule="evenodd" clip-rule="evenodd" fill="#FFFFFF" d="M189.707,48.941c1.136-0.308,2.254-0.606,3.37-0.915
		c0.522-0.146,1.045-0.298,1.56-0.472c0.755-0.255,1.502-0.532,2.44-0.866c0.425,2.812,0.836,5.536,1.259,8.337
		c-0.853,0.159-1.661,0.788-2.647,0.343c-0.073-0.034-0.194,0.035-0.293,0.061c-1.271,0.332-2.547,0.013-3.819,0.042
		c-0.623,0.014-0.962,0.449-0.967,0.993c-0.005,0.453,0.062,0.91,0.842,0.912c1.729,0.005,3.415-0.146,5.07-0.656
		c0.678-0.208,1.374-0.358,2.215-0.574c0.415,3.104,0.82,6.141,1.242,9.305c-0.417-0.04-0.775-0.085-1.136-0.107
		c-1.416-0.087-2.84-0.11-4.247-0.27c-0.847-0.097-1.69-0.341-2.497-0.627c-0.712-0.253-0.724-0.308-1.155,0.533
		C190.239,59.478,189.889,54.109,189.707,48.941z"/>
	<path fill-rule="evenodd" clip-rule="evenodd" fill="#FFFFFF" d="M150.6,15.092c-0.685-0.913-0.463-1.98-0.509-2.994
		c-0.045-1.008-0.01-2.02-0.01-3.059c0.075-0.195,0.23-0.458,0.273-0.739c0.141-0.899,0.24-1.806,0.354-2.71
		c0.044-0.349,0.086-0.697,0.14-1.131c0.582,0,1.215,0,1.847,0c1.595,0.001,3.189,0.006,4.784,0
		c0.511-0.002,1.021-0.035,1.771-0.062c-0.915,0.872-0.575,1.672-0.414,2.498c0.125,0.641,0.075,1.317,0.083,1.979
		c0.016,1.254,0.018,2.509,0.022,3.764c0.002,0.813,0,1.628,0,2.66C156.212,14.878,153.397,15.087,150.6,15.092z"/>
	<path fill-rule="evenodd" clip-rule="evenodd" fill="#FFFFFF" d="M122.646,15.565c0.859-0.249,0.824-0.677,0.511-1.317
		c-0.163-0.334,0.065-0.838,0.008-1.249c-0.174-1.227-0.401-2.445-0.608-3.666c-0.02-0.12-0.102-0.306-0.054-0.348
		c0.738-0.659,0.299-1.425,0.232-2.165c-0.044-0.488-0.009-0.983-0.009-1.53c1.522-0.129,2.933-0.235,4.341-0.371
		c1.129-0.109,2.256-0.241,3.381-0.389c0.522-0.068,1.065,0.321,1.044,0.819c-0.085,1.878-0.313,3.762-0.223,5.63
		c0.071,1.464-0.071,3.041,1.064,4.501c-0.701,0.044-1.26,0.098-1.82,0.11c-1.764,0.042-3.528,0.08-5.294,0.095
		c-0.652,0.005-1.305-0.066-1.958-0.082c-0.146-0.004-0.294,0.08-0.44,0.124C122.762,15.674,122.704,15.62,122.646,15.565z"/>
	<path fill-rule="evenodd" clip-rule="evenodd" fill="#FFFFFF" d="M150.568,4.468c-0.416,0.032-0.833,0.064-1.257,0.098
		c-0.747,3.587-0.857,7.1-0.331,10.616c-2.546,0-5.163,0-7.976,0c-0.151-0.644-0.474-1.387-0.465-2.125
		c0.013-1.142,0.419-2.29,0.344-3.415c-0.059-0.875,0.477-1.555,0.413-2.374c-0.015-0.196,0.073-0.432-0.006-0.588
		c-0.363-0.717,0.17-1.362,0.138-2.051c-0.004-0.076,0.279-0.229,0.436-0.238c1.596-0.091,3.193-0.206,4.79-0.219
		c1.305-0.011,2.609,0.109,3.914,0.172C150.568,4.385,150.568,4.426,150.568,4.468z"/>
	<path fill-rule="evenodd" clip-rule="evenodd" fill="#FFFFFF" d="M178.375,15.539c0.044-1.246,0.021-2.413,0.15-3.563
		c0.078-0.686,0.4-1.344,0.605-2.017c0.126-0.409,0.255-0.818,0.351-1.235c0.158-0.684,0.267-1.379,0.452-2.054
		c0.041-0.151,0.324-0.355,0.477-0.341c2.959,0.301,5.846,0.92,8.714,1.998c-0.615,0.981-1.141,1.921-1.764,2.79
		c-1.167,1.627-2.376,3.225-3.6,4.809c-0.315,0.408-0.732,0.747-1.145,1.062c-0.104,0.08-0.467,0.016-0.547-0.099
		c-0.577-0.814-1.361-1.136-2.331-1.16C179.26,15.718,178.784,15.6,178.375,15.539z"/>
	<path fill-rule="evenodd" clip-rule="evenodd" fill="#FFFFFF" d="M139.988,4.538c-0.092,0.635-0.198,1.219-0.258,1.808
		c-0.222,2.206-0.477,4.411-0.613,6.623c-0.049,0.783,0.205,1.585,0.34,2.51c-1.208,0-2.485-0.005-3.763,0.001
		c-1.153,0.007-2.26-0.105-2.979-1.177c-0.092-0.137-0.16-0.359-0.117-0.507c0.388-1.321-0.14-2.642,0.015-3.957
		c0.115-0.98,0.267-1.956,0.393-2.935c0.06-0.467,0.137-0.937,0.134-1.404c-0.005-0.623-0.013-0.908,0.873-0.864
		c1.931,0.096,3.875-0.092,5.814-0.16C139.871,4.474,139.917,4.51,139.988,4.538z"/>
	<path fill-rule="evenodd" clip-rule="evenodd" fill="#FFFFFF" d="M188.891,39.42c1.105-0.01,1.849-0.868,2.786-1.319
		c0.897-0.432,1.838-0.773,2.764-1.144c0.518-0.207,1.044-0.391,1.456-0.543c0.189,1.315,0.394,2.579,0.545,3.85
		c0.076,0.639,0.036,1.29,0.086,1.933c0.079,1.01,0.191,2.017,0.287,3.024c0.041,0.433-0.805,0.947-1.417,0.746
		c-0.457-0.149-0.71-0.053-1.127,0.153c-0.561,0.276-1.28,0.215-1.921,0.35c-0.841,0.178-1.671,0.408-2.507,0.61
		c-0.14,0.034-0.299,0.082-0.426,0.045c-0.076-0.021-0.151-0.196-0.153-0.304c-0.014-1.004,0.031-2.01-0.024-3.01
		C189.159,42.348,189.011,40.888,188.891,39.42z"/>
	<path fill-rule="evenodd" clip-rule="evenodd" fill="#FFFFFF" d="M195.169,27.45c0.213,2.68,0.421,5.298,0.626,7.873
		c-2.484,0.162-4.681,1.325-7.074,2.242c-0.076-0.892-0.104-1.638-0.212-2.372c-0.105-0.72-0.324-1.423-0.431-2.143
		c-0.101-0.684-0.139-1.379-0.158-2.07c-0.003-0.124,0.194-0.304,0.34-0.373c2.011-0.955,4.026-1.898,6.045-2.837
		C194.571,27.646,194.856,27.564,195.169,27.45z"/>
	<path fill-rule="evenodd" clip-rule="evenodd" d="M144.2,111.447c0.46,0.248,0.681,0.367,0.743,0.4
		c0.871,3.064,0.959,6.211,2.979,8.809c-1.227,0.145-1.356,0.025-2.039-1.415c-0.642-1.354-1.211-2.712-1.291-4.247
		c-0.044-0.839-0.812-1.535-0.588-2.464C144.081,112.213,144.122,111.887,144.2,111.447z"/>
	<path fill-rule="evenodd" clip-rule="evenodd" d="M14.754,23.864c0.567,0.881-0.101,1.252-0.587,1.477
		c-0.893,0.412-1.832,0.692-2.797-0.007c-0.41-0.297-1.03-0.287-1.485-0.542C8.598,24.071,7.621,23.03,6.959,21.7
		c-0.287-0.578-0.227-1.254,0.179-1.342c0.56-0.12,1.024,0.198,1.117,0.696c0.173,0.932,0.938,1.364,1.533,1.84
		c0.735,0.588,1.707,0.875,2.564,1.315C13.221,24.655,14.013,24.609,14.754,23.864z"/>
	<path fill-rule="evenodd" clip-rule="evenodd" d="M13.453,34.27c0.085,0.749-0.467,0.728-0.94,0.68
		c-1.44-0.146-2.839-0.478-4.086-1.245c-0.668-0.411-1.317-0.871-1.908-1.387c-0.427-0.373-0.262-0.867,0.093-1.213
		c0.457-0.444,0.64,0.122,0.901,0.326c0.407,0.317,0.741,0.79,1.196,0.971c1.172,0.464,2.209,1.265,3.528,1.383
		C12.634,33.819,13.01,34.085,13.453,34.27z"/>
	<path fill-rule="evenodd" clip-rule="evenodd" d="M194.309,100.19c0.737,0.759,1.511,1.34,1.987,2.358
		c0.362,0.774,1.344,1.299,2.123,1.827c0.854,0.578,1.792,1.031,2.691,1.543c0.104,0.06,0.185,0.204,0.286,0.215
		c0.841,0.086,0.834,0.075,0.424,0.807c-0.079,0.141-0.068,0.332-0.095,0.476c-0.481-0.119-1.001-0.212-1.496-0.377
		c-0.595-0.198-1.242-0.354-1.738-0.71c-1.509-1.079-2.928-2.273-3.969-3.845c-0.056-0.084-0.104-0.176-0.173-0.25
		C193.786,101.621,193.607,100.984,194.309,100.19z"/>
</g>
<g>
	<text transform="matrix(0.9979 -0.0649 0.0649 0.9979 29.0454 63.1455)"><tspan x="0" y="0" fill="#010101" font-family="'ActionMan'" font-size="38">CASTING </tspan><tspan x="39.522" y="40.001" fill="#010101" font-family="'ActionMan'" font-size="38">CALL</tspan></text>
	<path fill="#804096" stroke="#231F20" stroke-width="2" stroke-miterlimit="10" d="M17.487,25.047
		c1.122-1.87,2.787-3.436,5.298-4.521c7.275-3.146,16.521-3.24,24.265-2.342c46,5.334,127.334-10.277,132.834-0.472
		s6.164,8.306,7.832,30.806s7.668,55,4.168,58.5s-16,2-27.5,2c-13.238,0-80.5,7-108,7.5s-32.5-3-34.5-9.001
		c-2.799-8.4-3.673-18.619-4.588-27.346c-0.835-7.977-1.051-16.001-1.744-23.987c-0.545-6.275-1.008-12.506-0.621-18.835
		C15.199,32.954,15.424,28.486,17.487,25.047z"/>
	<text transform="matrix(0.998 -0.0636 0.0636 0.998 26.3867 64.7939)"><tspan x="0" y="0" fill="#FFFFFF" font-family="'ActionMan'" font-size="40">CASTING</tspan><tspan x="34.101" y="37" fill="#FFFFFF" font-family="'ActionMan'" font-size="40">CALL</tspan></text>
</g>
</svg>
