<?xml version="1.0" encoding="utf-8"?>
<!-- Generator: Adobe Illustrator 16.0.0, SVG Export Plug-In . SVG Version: 6.00 Build 0)  -->
<!DOCTYPE svg PUBLIC "-//W3C//DTD SVG 1.1//EN" "http://www.w3.org/Graphics/SVG/1.1/DTD/svg11.dtd">
<svg version="1.1" id="Layer_1" xmlns="http://www.w3.org/2000/svg" xmlns:xlink="http://www.w3.org/1999/xlink" x="0px" y="0px"
	 width="672px" height="367.59px" viewBox="0 0 672 367.59" enable-background="new 0 0 672 367.59" xml:space="preserve">
<path fill="#ED1A75" d="M441.812,24.671c60.917,1.898,50.647,3.534,70.282,18.814c10.996,15.086,146.668,228.188,142.151,252.998
	s-35.188,27.847-35.188,27.847S176,358.919,151.729,357.834c-50.943-1.184-61.544-63.563-68.068-85.622l-17.912-61.873
	L31.873,95.421c0,0-11.374-41.059-12.299-45.398c-2.535-11.906-5.098-27.449,10.055-37.707c15.878-10.75,41.186-6.898,63.584-5.42
	c83.965,5.547,168.518,8.512,252.573,13.7C377.562,22.558,408.394,23.63,441.812,24.671z"/>
</svg>
