<?xml version="1.0" encoding="utf-8"?>
<!-- Generator: Adobe Illustrator 16.0.0, SVG Export Plug-In . SVG Version: 6.00 Build 0)  -->
<!DOCTYPE svg PUBLIC "-//W3C//DTD SVG 1.1//EN" "http://www.w3.org/Graphics/SVG/1.1/DTD/svg11.dtd">
<svg version="1.1" id="Layer_1" xmlns="http://www.w3.org/2000/svg" xmlns:xlink="http://www.w3.org/1999/xlink" x="0px" y="0px"
	 width="672px" height="367.59px" viewBox="0 0 672 367.59" enable-background="new 0 0 672 367.59" xml:space="preserve">
<path fill="#19A9E1" d="M-1423.646-868.379c60.917,3.833,50.647,7.135,70.282,37.984c10.996,30.455,146.668,460.671,142.151,510.76
	s-35.188,56.218-35.188,56.218s-443.057,69.829-467.329,67.639c-50.944-2.39-61.544-128.325-68.069-172.856l-17.912-124.911
	l-33.874-232c0,0-11.375-82.89-12.299-91.651c-2.536-24.038-5.098-55.416,10.054-76.125c15.878-21.703,41.186-13.929,63.585-10.941
	c83.964,11.198,168.517,17.182,252.573,27.657C-1487.896-872.646-1457.064-870.481-1423.646-868.379z"/>
<path fill="#19A9E1" d="M-546.188-884.42c60.917,1.898,50.647,3.534,70.282,18.814c10.996,15.086,146.668,228.188,142.151,252.998
	c-4.517,24.811-35.188,27.847-35.188,27.847S-812-550.172-836.271-551.257c-50.943-1.184-61.544-63.564-68.068-85.622
	l-17.912-61.873l-33.875-114.918c0,0-11.374-41.058-12.299-45.398c-2.535-11.906-5.098-27.449,10.055-37.707
	c15.878-10.75,41.186-6.899,63.584-5.42c83.965,5.547,168.518,8.511,252.573,13.7C-610.438-886.534-579.606-885.461-546.188-884.42z
	"/>
<path fill="#ED1A75" d="M-1423.646,40.712c60.917,3.833,50.647,7.135,70.282,37.984c10.996,30.455,146.668,460.671,142.151,510.76
	s-35.188,56.218-35.188,56.218s-443.057,69.829-467.329,67.639c-50.944-2.39-61.544-128.325-68.069-172.856l-17.912-124.911
	l-33.874-232c0,0-11.375-82.89-12.299-91.651c-2.536-24.037-5.098-55.415,10.054-76.125c15.878-21.703,41.186-13.928,63.585-10.941
	c83.964,11.199,168.517,17.183,252.573,27.658C-1487.896,36.444-1457.064,38.609-1423.646,40.712z"/>
<path fill="#F9ED32" d="M-1423.646,1006.809c60.917,3.833,50.647,7.135,70.282,37.983
	c10.996,30.455,146.668,460.672,142.151,510.761s-35.188,56.218-35.188,56.218s-443.057,69.829-467.329,67.639
	c-50.944-2.39-61.544-128.325-68.069-172.856l-17.912-124.911l-33.874-232c0,0-11.375-82.891-12.299-91.65
	c-2.536-24.038-5.098-55.416,10.054-76.125c15.878-21.703,41.186-13.93,63.585-10.941c83.964,11.197,168.517,17.182,252.573,27.656
	C-1487.896,1002.542-1457.064,1004.706-1423.646,1006.809z"/>
<path fill="#ED1A75" d="M-546.188,24.671c60.917,1.898,50.647,3.534,70.282,18.814c10.996,15.086,146.668,228.188,142.151,252.998
	s-35.188,27.847-35.188,27.847S-812,358.919-836.271,357.834c-50.943-1.184-61.544-63.563-68.068-85.622l-17.912-61.873
	l-33.875-114.918c0,0-11.374-41.059-12.299-45.398c-2.535-11.906-5.098-27.449,10.055-37.707c15.878-10.75,41.186-6.898,63.584-5.42
	c83.965,5.547,168.518,8.512,252.573,13.7C-610.438,22.558-579.606,23.63-546.188,24.671z"/>
<rect x="-907.571" y="128.565" fill="none" width="480.176" height="243.023"/>
<text transform="matrix(1 0 0 1 -896.793 216.1943)" fill="#FFFFFF" font-family="'ActionMan-Bold'" font-size="130">FEMALE</text>
<path fill="#ED1A75" d="M441.812,24.671c60.917,1.898,50.647,3.534,70.282,18.814c10.996,15.086,146.668,228.188,142.151,252.998
	s-35.188,27.847-35.188,27.847S176,358.919,151.729,357.834c-50.943-1.184-61.544-63.563-68.068-85.622l-17.912-61.873
	L31.873,95.421c0,0-11.374-41.059-12.299-45.398c-2.535-11.906-5.098-27.449,10.055-37.707c15.878-10.75,41.186-6.898,63.584-5.42
	c83.965,5.547,168.518,8.512,252.573,13.7C377.562,22.558,408.394,23.63,441.812,24.671z"/>
<rect x="-907.571" y="-780.525" fill="none" width="480.176" height="243.023"/>
<text transform="matrix(1 0 0 1 -828.0156 -692.8965)" fill="#FFFFFF" font-family="'ActionMan-Bold'" font-size="130">MALE</text>
<path fill="#19A9E1" d="M441.812-884.42c60.917,1.898,50.647,3.534,70.282,18.814c10.996,15.086,146.668,228.188,142.151,252.998
	c-4.517,24.811-35.188,27.847-35.188,27.847S176-550.172,151.729-551.257c-50.943-1.184-61.544-63.564-68.068-85.622l-17.912-61.873
	L31.873-813.67c0,0-11.374-41.058-12.299-45.398c-2.535-11.906-5.098-27.449,10.055-37.707c15.878-10.75,41.186-6.899,63.584-5.42
	c83.965,5.547,168.518,8.511,252.573,13.7C377.562-886.534,408.394-885.461,441.812-884.42z"/>
<rect x="-1786.08" y="1248.726" fill="none" width="480.176" height="243.023"/>
<text transform="matrix(1 0 0 1 -1774.6787 1376.7988)" font-family="'ActionMan-Bold'" font-size="190">PLAY!</text>
<path fill="#F9ED32" d="M-1423.646,1970.809c60.917,3.833,50.647,7.135,70.282,37.983
	c10.996,30.455,146.668,460.672,142.151,510.761s-35.188,56.218-35.188,56.218s-443.057,69.829-467.329,67.639
	c-50.944-2.39-61.544-128.325-68.069-172.856l-17.912-124.911l-33.874-232c0,0-11.375-82.891-12.299-91.65
	c-2.536-24.038-5.098-55.416,10.054-76.125c15.878-21.703,41.186-13.93,63.585-10.941c83.964,11.197,168.517,17.182,252.573,27.656
	C-1487.896,1966.542-1457.064,1968.706-1423.646,1970.809z"/>
<rect x="-1785.08" y="2212.726" fill="none" width="480.176" height="243.023"/>
<text transform="matrix(1 0 0 1 -1651.8672 2340.7988)" font-family="'ActionMan-Bold'" font-size="190">OK</text>
<path fill="#F9ED32" d="M-546.188,990.768c60.917,1.898,50.647,3.534,70.282,18.814c10.996,15.086,146.668,228.188,142.151,252.998
	s-35.188,27.847-35.188,27.847s-443.058,34.589-467.329,33.504c-50.943-1.184-61.544-63.563-68.068-85.622l-17.912-61.873
	l-33.875-114.918c0,0-11.374-41.059-12.299-45.398c-2.535-11.906-5.098-27.449,10.055-37.707c15.878-10.75,41.186-6.898,63.584-5.42
	c83.965,5.547,168.518,8.512,252.573,13.7C-610.438,988.654-579.606,989.727-546.188,990.768z"/>
<rect x="-907.571" y="1094.662" fill="none" width="480.176" height="243.023"/>
<text transform="matrix(1 0 0 1 -740.6084 1182.291)" font-family="'ActionMan-Bold'" font-size="130">OK</text>
</svg>
