<?xml version="1.0" encoding="utf-8"?>
<!-- Generator: Adobe Illustrator 16.0.0, SVG Export Plug-In . SVG Version: 6.00 Build 0)  -->
<!DOCTYPE svg PUBLIC "-//W3C//DTD SVG 1.1//EN" "http://www.w3.org/Graphics/SVG/1.1/DTD/svg11.dtd">
<svg version="1.1" id="Layer_1" xmlns="http://www.w3.org/2000/svg" xmlns:xlink="http://www.w3.org/1999/xlink" x="0px" y="0px"
	 width="672px" height="721.572px" viewBox="0 0 672 721.572" enable-background="new 0 0 672 721.572" xml:space="preserve">
<path fill="#19A9E1" d="M441.811,40.712c60.917,3.833,50.647,7.135,70.282,37.984c10.996,30.455,146.668,460.671,142.151,510.76
	s-35.188,56.218-35.188,56.218S176,715.503,151.728,713.312c-50.944-2.39-61.544-128.325-68.069-172.856L65.747,415.545l-33.874-232
	c0,0-11.375-82.89-12.299-91.651c-2.536-24.038-5.098-55.416,10.054-76.125C45.506-5.934,70.813,1.84,93.212,4.828
	c83.964,11.198,168.517,17.182,252.573,27.657C377.561,36.445,408.393,38.609,441.811,40.712z"/>
</svg>
