<?xml version="1.0" encoding="utf-8"?>
<!-- Generator: Adobe Illustrator 16.0.0, SVG Export Plug-In . SVG Version: 6.00 Build 0)  -->
<!DOCTYPE svg PUBLIC "-//W3C//DTD SVG 1.1//EN" "http://www.w3.org/Graphics/SVG/1.1/DTD/svg11.dtd">
<svg version="1.1" id="Layer_1" xmlns="http://www.w3.org/2000/svg" xmlns:xlink="http://www.w3.org/1999/xlink" x="0px" y="0px"
	 width="672px" height="721.572px" viewBox="0 0 672 721.572" enable-background="new 0 0 672 721.572" xml:space="preserve">
<path fill="#F9ED32" d="M441.811,40.712c60.917,3.833,50.647,7.135,70.282,37.983c10.996,30.455,146.668,460.672,142.151,510.761
	s-35.188,56.218-35.188,56.218S176,715.503,151.728,713.312c-50.944-2.39-61.544-128.325-68.069-172.856L65.747,415.545l-33.874-232
	c0,0-11.375-82.891-12.299-91.65c-2.536-24.038-5.098-55.416,10.054-76.125C45.506-5.934,70.813,1.84,93.212,4.828
	c83.964,11.197,168.517,17.182,252.573,27.656C377.561,36.445,408.393,38.609,441.811,40.712z"/>
<g>
	<path d="M235.572,239.146c0,2.393-0.379,4.736-1.136,7.031c-0.757,2.296-1.782,4.48-3.076,6.555
		c-1.294,2.076-2.808,4.018-4.541,5.823c-1.733,1.808-3.601,3.419-5.603,4.834c-4.347,3.126-8.972,5.566-13.88,7.324
		c-4.906,1.758-9.949,3.076-15.124,3.955c-0.099,0.538-0.159,1.111-0.183,1.722c-0.025,0.611-0.086,1.184-0.184,1.721
		c-0.099,1.71-0.172,3.418-0.22,5.127c-0.049,1.71-0.025,3.418,0.073,5.127c0,1.71,0.037,3.406,0.109,5.09
		c0.074,1.686,0.037,3.383-0.109,5.091c0.098,1.856-0.281,3.552-1.135,5.091c-0.855,1.537-1.979,2.809-3.369,3.809
		c-1.393,1.001-2.942,1.684-4.651,2.051c-1.71,0.365-3.395,0.279-5.054-0.257c-1.367-0.146-2.527-0.586-3.479-1.318
		c-0.953-0.732-1.722-1.647-2.308-2.747c-0.586-1.098-1.014-2.294-1.282-3.588c-0.269-1.293-0.378-2.575-0.329-3.846
		c0.293-1.855,0.513-3.723,0.659-5.604c0.146-1.879,0.414-3.746,0.806-5.603c0.586-3.223,1.062-6.396,1.429-9.521
		c0.365-3.124,0.597-6.299,0.695-9.521c0.391-3.662,0.537-7.263,0.439-10.804c-0.099-3.539-0.099-7.092,0-10.656
		c-0.099-3.369-0.135-6.75-0.109-10.145c0.023-3.393,0.304-6.774,0.842-10.144v-0.732c0-2.294,0.487-4.468,1.465-6.519
		c0.977-2.051,2.282-3.82,3.918-5.311c1.636-1.488,3.504-2.673,5.604-3.552c2.099-0.879,4.272-1.293,6.519-1.245
		c2.245-0.098,4.442-0.23,6.592-0.402c2.148-0.171,4.369-0.257,6.665-0.257c4.199-0.048,8.24,0.672,12.121,2.161
		c3.883,1.49,7.215,3.748,9.998,6.774c2.783,2.882,4.871,6.299,6.262,10.254C235.39,230.869,235.913,234.946,235.572,239.146z
		 M216.676,236.509c0.146-1.27,0.024-2.478-0.366-3.625c-0.392-1.146-0.806-2.282-1.245-3.406c-0.245-0.487-0.513-1-0.806-1.538
		c-0.293-0.536-0.635-1.036-1.025-1.501c-0.392-0.464-0.831-0.843-1.318-1.136c-0.488-0.293-1.051-0.439-1.685-0.439
		c-1.856-0.243-3.809-0.157-5.859,0.257c-2.051,0.415-3.955,1.135-5.713,2.16s-3.223,2.356-4.395,3.992
		c-1.172,1.637-1.783,3.552-1.831,5.749c-0.245,2.589-0.245,5.127,0,7.617c0.244,2.49,0.586,4.98,1.025,7.471
		c2.49-0.293,4.943-0.903,7.361-1.831c2.416-0.927,4.724-2.051,6.921-3.369c0.927-0.586,1.892-1.232,2.894-1.941
		c1-0.707,1.928-1.476,2.783-2.307c0.854-0.83,1.586-1.758,2.197-2.783C216.224,238.853,216.577,237.729,216.676,236.509z"/>
	<path d="M313.355,294.663c-0.146,0.831-0.488,1.527-1.025,2.088c-0.538,0.562-1.124,1.062-1.758,1.501
		c-1.758,1.222-3.564,2.271-5.42,3.149c-1.856,0.879-3.761,1.648-5.713,2.307c-1.953,0.66-3.931,1.271-5.933,1.832
		c-2.003,0.562-3.98,1.135-5.933,1.721c-3.955,0.978-7.923,1.771-11.901,2.381c-3.98,0.609-7.973,0.816-11.976,0.622
		c-2.003-0.146-3.834-0.659-5.493-1.538c-1.66-0.879-3.149-1.978-4.468-3.296s-2.466-2.819-3.442-4.505
		c-0.978-1.684-1.758-3.405-2.344-5.163c-1.367-3.516-2.259-7.165-2.674-10.95c-0.415-3.783-0.524-7.628-0.329-11.535
		c0-1.22,0.085-2.453,0.257-3.699c0.17-1.244,0.207-2.477,0.109-3.698c0.391-4.589,0.903-9.143,1.538-13.659
		c0.634-4.516,1.416-9.046,2.344-13.587c1.073-5.761,2.71-11.229,4.907-16.406c0.487-1.172,1-2.429,1.538-3.772
		c0.537-1.342,1.146-2.623,1.831-3.845c0.684-1.22,1.513-2.318,2.49-3.296c0.977-0.977,2.148-1.709,3.516-2.197
		c1.318-0.293,2.502-0.23,3.553,0.184c1.049,0.415,1.915,1.037,2.6,1.867c0.684,0.831,1.172,1.82,1.465,2.967
		c0.293,1.147,0.366,2.307,0.22,3.479c-0.099,3.076-0.269,6.115-0.513,9.119c-0.245,3.002-0.562,6.042-0.952,9.118
		c-0.195,2.735-0.501,5.433-0.915,8.093c-0.416,2.662-0.745,5.359-0.989,8.094c-0.392,2.686-0.685,5.383-0.879,8.094
		c-0.195,2.709-0.392,5.432-0.586,8.166c-0.099,1.807-0.195,3.65-0.293,5.529c-0.099,1.881-0.11,3.736-0.036,5.566
		c0.072,1.832,0.316,3.626,0.732,5.384c0.414,1.758,1.109,3.419,2.087,4.98c2.783-0.293,5.541-0.769,8.276-1.429
		c2.734-0.658,5.518-1.256,8.35-1.794c2.637-0.634,5.285-1.22,7.947-1.758c2.66-0.536,5.31-0.927,7.946-1.172
		c1.611-0.048,3.149,0.282,4.614,0.989c1.465,0.708,2.758,1.551,3.882,2.526c1.073,0.831,1.978,1.917,2.71,3.259
		C313.429,291.722,313.648,293.15,313.355,294.663z"/>
	<path d="M396.046,301.475c-0.392,1.904-1.307,3.541-2.746,4.907c-1.441,1.367-3.113,2.197-5.018,2.49
		c-1.563,0.245-3.162,0.232-4.797-0.037c-1.637-0.268-2.992-1.012-4.065-2.233c-0.831-1.415-1.38-2.966-1.647-4.651
		c-0.27-1.684-0.502-3.332-0.696-4.943c-0.195-1.562-0.392-3.124-0.586-4.688c-0.195-1.562-0.465-3.124-0.806-4.688
		c-0.781-0.293-1.587-0.537-2.417-0.732c-0.831-0.194-1.685-0.244-2.563-0.146c-2.344,0-4.64,0.146-6.885,0.439
		c-2.246,0.293-4.493,0.659-6.738,1.099c-2.149,0.489-4.297,1.001-6.445,1.538c-2.149,0.538-4.127,1.514-5.933,2.93
		c-0.978,0.831-1.624,1.807-1.94,2.93c-0.318,1.124-0.599,2.223-0.843,3.296c-0.195,1.271-0.392,2.54-0.586,3.809
		c-0.195,1.271-0.611,2.466-1.245,3.589c-0.685,1.271-1.697,2.1-3.039,2.49c-1.344,0.392-2.626,0.513-3.846,0.366
		c-1.758-0.293-3.321-0.989-4.688-2.087c-1.367-1.1-2.516-2.355-3.442-3.772c-0.879-1.415-1.563-2.94-2.051-4.577
		c-0.488-1.636-0.732-3.308-0.732-5.018c0.146-3.027,0.684-5.993,1.611-8.898c0.927-2.904,2.025-5.773,3.296-8.606
		c1.366-3.173,2.758-6.263,4.175-9.265c1.416-3.004,2.808-6.043,4.175-9.119c1.562-4.98,3.247-9.898,5.054-14.758
		c1.806-4.858,3.589-9.729,5.347-14.612c0.977-1.952,1.989-4.065,3.039-6.335c1.05-2.271,2.259-4.395,3.626-6.373
		c1.366-1.977,2.954-3.709,4.761-5.199c1.806-1.489,3.955-2.454,6.445-2.894c2.245,0,4.395,0.465,6.445,1.392
		c2.051,0.928,3.856,2.1,5.42,3.516c1.709,1.417,3.137,3.089,4.285,5.018c1.146,1.93,2.135,3.967,2.966,6.115
		c0.537,2.051,1,4.078,1.392,6.079c0.391,2.003,0.854,4.005,1.392,6.006c1.611,8.009,3.187,15.992,4.724,23.95
		c1.539,7.959,2.941,15.992,4.212,24.097c0.391,1.368,0.659,2.772,0.806,4.212c0.146,1.44,0.391,2.869,0.732,4.284
		c0.194,1.417,0.28,2.845,0.256,4.284c-0.024,1.441-0.158,2.894-0.402,4.358V301.475z M369.312,262.363
		c0.048-2.344-0.086-4.662-0.403-6.958c-0.317-2.295-0.732-4.564-1.244-6.812c-0.514-2.245-1.075-4.479-1.686-6.702
		c-0.61-2.221-1.208-4.431-1.794-6.628c-1.563,2.149-2.918,4.384-4.065,6.702c-1.147,2.319-2.209,4.699-3.186,7.141
		c-0.879,2.393-1.673,4.834-2.381,7.324s-1.16,4.98-1.354,7.471l-0.146,1.392v1.245v-0.293c1.27,0.099,2.563,0.146,3.882,0.146
		s2.611,0.049,3.882,0.146h2.124c0.634,0,1.318-0.061,2.051-0.184c0.732-0.121,1.416-0.354,2.051-0.695
		c0.634-0.341,1.172-0.78,1.611-1.318C369.093,263.804,369.312,263.146,369.312,262.363z"/>
	<path d="M473.097,221.128c-0.146,1.758-0.488,3.492-1.025,5.2c-0.538,1.71-1.185,3.369-1.941,4.98s-1.611,3.187-2.562,4.724
		c-0.953,1.539-1.894,3.065-2.82,4.578c-2.296,3.468-4.578,6.922-6.848,10.363c-2.271,3.443-4.407,6.947-6.409,10.511
		c-2.149,4.493-4.224,8.948-6.226,13.366c-2.003,4.42-3.857,8.925-5.566,13.514c-0.879,2.197-1.733,4.383-2.563,6.555
		c-0.831,2.174-1.71,4.358-2.637,6.556c-0.538,0.929-1.087,1.904-1.647,2.93c-0.562,1.025-1.197,1.978-1.904,2.856
		c-0.709,0.879-1.502,1.624-2.381,2.234c-0.879,0.609-1.904,0.939-3.076,0.988c-1.856,0.098-3.541-0.232-5.054-0.988
		c-1.514-0.757-2.783-1.782-3.809-3.076c-1.025-1.293-1.758-2.783-2.197-4.469c-0.439-1.684-0.513-3.405-0.22-5.163
		c0.194-2.538,0.671-5.028,1.428-7.471c0.757-2.44,1.66-4.858,2.711-7.251c1.049-2.392,2.197-4.735,3.441-7.031
		c1.246-2.295,2.502-4.589,3.772-6.885c-2.197-0.586-4.138-1.525-5.823-2.82c-1.684-1.293-3.138-2.819-4.357-4.577
		c-1.221-1.758-2.246-3.662-3.076-5.713c-0.831-2.051-1.514-4.102-2.051-6.152c-1.074-4.102-1.648-8.264-1.721-12.487
		c-0.074-4.223,0.23-8.484,0.915-12.781c0.146-1.416,0.487-2.82,1.025-4.211c0.537-1.393,1.282-2.661,2.233-3.809
		c0.953-1.146,2.062-2.088,3.333-2.82c1.27-0.732,2.71-1.146,4.321-1.245c1.22-0.194,2.282-0.061,3.186,0.403
		c0.903,0.465,1.673,1.123,2.308,1.977c0.634,0.855,1.136,1.832,1.501,2.93c0.367,1.1,0.623,2.161,0.77,3.187
		c0,3.028,0.024,6.042,0.073,9.046c0.048,3.002,0.146,6.018,0.293,9.045c0.098,0.928,0.22,1.953,0.366,3.076
		c0.146,1.124,0.414,2.16,0.806,3.113c0.391,0.951,0.939,1.77,1.647,2.453c0.708,0.685,1.648,1.051,2.82,1.099
		c0.83-0.194,1.538-0.55,2.124-1.062c0.586-0.514,1.099-1.1,1.538-1.758c0.439-0.66,0.854-1.343,1.245-2.051
		c0.391-0.707,0.83-1.379,1.318-2.015c0.732-1.513,1.452-3.026,2.161-4.541c0.707-1.513,1.452-3.026,2.233-4.541
		c0.977-1.854,1.892-3.735,2.747-5.64c0.854-1.904,1.721-3.809,2.6-5.713c0.977-1.659,1.904-3.369,2.783-5.127
		s2.075-3.271,3.589-4.541c0.879-0.634,1.855-1.123,2.93-1.465c1.073-0.341,2.148-0.391,3.223-0.146
		c1.416,0.245,2.758,0.709,4.028,1.392c1.27,0.685,2.368,1.551,3.296,2.601c0.927,1.051,1.672,2.246,2.233,3.588
		C472.742,218.187,473.048,219.615,473.097,221.128z"/>
</g>
<g>
	<path d="M206.395,485.829c-0.392,1.904-1.307,3.541-2.746,4.908c-1.441,1.367-3.113,2.197-5.018,2.49
		c-1.563,0.244-3.162,0.232-4.797-0.037c-1.637-0.268-2.992-1.013-4.065-2.234c-0.831-1.415-1.38-2.966-1.647-4.65
		c-0.27-1.685-0.502-3.332-0.696-4.943c-0.195-1.562-0.392-3.125-0.586-4.688c-0.195-1.562-0.465-3.125-0.806-4.688
		c-0.781-0.293-1.587-0.537-2.417-0.732c-0.831-0.195-1.685-0.244-2.563-0.146c-2.344,0-4.64,0.146-6.885,0.439
		c-2.246,0.293-4.493,0.658-6.738,1.098c-2.149,0.489-4.297,1.002-6.445,1.539c-2.149,0.537-4.127,1.514-5.933,2.93
		c-0.978,0.83-1.624,1.807-1.94,2.93c-0.318,1.123-0.599,2.223-0.843,3.295c-0.195,1.271-0.392,2.54-0.586,3.809
		c-0.195,1.271-0.611,2.467-1.245,3.59c-0.685,1.27-1.697,2.1-3.039,2.49c-1.344,0.391-2.626,0.512-3.846,0.365
		c-1.758-0.293-3.321-0.988-4.688-2.087c-1.367-1.099-2.516-2.354-3.442-3.772c-0.879-1.415-1.563-2.94-2.051-4.577
		c-0.488-1.636-0.732-3.308-0.732-5.017c0.146-3.027,0.684-5.994,1.611-8.899c0.927-2.904,2.025-5.773,3.296-8.606
		c1.366-3.173,2.758-6.262,4.175-9.265c1.416-3.003,2.808-6.042,4.175-9.118c1.562-4.98,3.247-9.899,5.054-14.759
		c1.806-4.858,3.589-9.729,5.347-14.612c0.977-1.951,1.989-4.064,3.039-6.335s2.259-4.395,3.626-6.372
		c1.366-1.978,2.954-3.71,4.761-5.2c1.806-1.489,3.955-2.454,6.445-2.894c2.245,0,4.395,0.465,6.445,1.393s3.856,2.1,5.42,3.516
		c1.709,1.416,3.137,3.088,4.285,5.017c1.146,1.93,2.135,3.968,2.966,6.116c0.537,2.051,1,4.077,1.392,6.078
		c0.391,2.004,0.854,4.005,1.392,6.006c1.611,8.01,3.187,15.992,4.724,23.951c1.539,7.959,2.941,15.992,4.212,24.096
		c0.391,1.368,0.659,2.772,0.806,4.212c0.146,1.44,0.391,2.869,0.732,4.284c0.194,1.418,0.28,2.846,0.256,4.285
		c-0.024,1.441-0.158,2.893-0.402,4.357V485.829z M179.661,446.718c0.048-2.344-0.086-4.662-0.403-6.957s-0.732-4.565-1.244-6.812
		c-0.514-2.244-1.075-4.479-1.686-6.701c-0.61-2.221-1.208-4.432-1.794-6.629c-1.563,2.15-2.918,4.384-4.065,6.702
		c-1.147,2.319-2.209,4.7-3.186,7.142c-0.879,2.393-1.673,4.834-2.381,7.324s-1.16,4.98-1.354,7.471l-0.146,1.391v1.246v-0.293
		c1.27,0.098,2.563,0.146,3.882,0.146s2.611,0.049,3.882,0.146h2.124c0.634,0,1.318-0.061,2.051-0.184
		c0.732-0.121,1.416-0.354,2.051-0.695c0.634-0.342,1.172-0.781,1.611-1.318S179.661,447.5,179.661,446.718z"/>
	<path d="M295.164,445.399c-0.099,1.271-0.257,2.516-0.476,3.736c-0.221,1.221-0.429,2.416-0.623,3.588
		c-0.978,5.08-2.662,9.975-5.054,14.686c-2.393,4.713-5.347,9.119-8.862,13.221c-1.66,2.002-3.479,3.895-5.457,5.676
		c-1.977,1.783-4.09,3.332-6.335,4.65c-2.246,1.318-4.603,2.369-7.067,3.15c-2.467,0.779-4.993,1.146-7.581,1.098
		c-3.223,0.098-6.238-0.391-9.046-1.465c-2.808-1.072-5.383-2.526-7.727-4.357s-4.456-3.942-6.336-6.336
		c-1.88-2.391-3.527-4.857-4.943-7.396c-3.125-5.127-5.457-10.657-6.994-16.59c-1.539-5.933-1.99-12.049-1.355-18.348
		c0.537-5.713,2.002-11.217,4.395-16.516c2.392-5.297,5.395-10.291,9.009-14.979c1.659-2.244,3.54-4.405,5.64-6.481
		c2.099-2.075,4.346-3.905,6.738-5.493c2.392-1.586,4.932-2.844,7.617-3.771c2.685-0.928,5.468-1.393,8.35-1.393
		c4.785-0.047,9.35,0.722,13.696,2.308c4.346,1.587,8.35,3.675,12.012,6.263c0.732,0.635,1.525,1.281,2.38,1.94
		s1.636,1.368,2.344,2.124c0.708,0.758,1.294,1.588,1.758,2.49c0.464,0.904,0.696,1.917,0.696,3.039
		c-0.146,0.879-0.488,1.686-1.025,2.418c-0.538,0.732-1.074,1.416-1.611,2.051c-0.635,0.684-1.344,1.294-2.124,1.83
		c-0.781,0.539-1.66,0.855-2.637,0.953c-1.71-0.098-3.345-0.488-4.907-1.172c-1.563-0.684-3.102-1.367-4.614-2.051
		c-1.417-0.684-2.832-1.355-4.248-2.015c-1.417-0.659-2.955-1.036-4.614-1.136c-2.003-0.146-3.991,0-5.97,0.439
		c-1.977,0.439-3.87,1.111-5.676,2.015c-1.807,0.904-3.504,2.026-5.09,3.369c-1.588,1.344-2.967,2.869-4.139,4.577
		c-2.589,3.322-4.541,6.959-5.859,10.914s-2.1,7.936-2.344,11.938c-0.245,3.469-0.256,6.91-0.037,10.328
		c0.221,3.418,1.087,6.641,2.601,9.668c0.586,1.562,1.379,3.016,2.38,4.357c1.001,1.344,2.161,2.49,3.479,3.442
		s2.783,1.685,4.395,2.197s3.296,0.722,5.054,0.622c1.318,0.05,2.611-0.133,3.882-0.549c1.27-0.414,2.478-0.988,3.626-1.721
		c1.146-0.732,2.208-1.575,3.186-2.527c0.977-0.952,1.831-1.988,2.563-3.113c1.465-2.244,2.611-4.613,3.442-7.104
		c0.83-2.49,1.366-5.029,1.611-7.617c0.146-0.83,0.184-1.623,0.109-2.381c-0.072-0.756-0.109-1.549-0.109-2.381
		c-1.611,0.343-3.223,0.746-4.834,1.209c-1.611,0.465-3.248,0.867-4.907,1.209c-1.71,0.439-3.369,0.794-4.98,1.062
		c-1.611,0.269-3.271,0.403-4.98,0.403c-1.417,0-2.771-0.342-4.065-1.025s-2.307-1.636-3.039-2.857
		c-0.781-1.122-1.294-2.38-1.538-3.771c-0.245-1.392-0.318-2.795-0.22-4.211c0.098-0.684,0.231-1.379,0.402-2.088
		c0.171-0.707,0.524-1.355,1.062-1.941c1.27-0.976,2.637-1.794,4.102-2.453s2.954-1.232,4.468-1.721
		c1.513-0.488,3.04-0.939,4.577-1.355c1.539-0.414,3.04-0.842,4.505-1.281c3.223-0.83,6.384-1.623,9.485-2.381
		c3.1-0.756,6.262-1.232,9.484-1.428c2.637,0,4.834,0.635,6.592,1.904s3.124,2.905,4.102,4.906c0.977,2.004,1.586,4.212,1.831,6.629
		C295.555,440.822,295.505,443.155,295.164,445.399z"/>
	<path d="M379.393,485.829c-0.392,1.904-1.307,3.541-2.746,4.908c-1.441,1.367-3.113,2.197-5.018,2.49
		c-1.563,0.244-3.162,0.232-4.797-0.037c-1.637-0.268-2.992-1.013-4.065-2.234c-0.831-1.415-1.38-2.966-1.647-4.65
		c-0.27-1.685-0.502-3.332-0.696-4.943c-0.195-1.562-0.392-3.125-0.586-4.688c-0.195-1.562-0.465-3.125-0.806-4.688
		c-0.781-0.293-1.587-0.537-2.417-0.732c-0.831-0.195-1.685-0.244-2.563-0.146c-2.344,0-4.64,0.146-6.885,0.439
		c-2.246,0.293-4.493,0.658-6.738,1.098c-2.149,0.489-4.297,1.002-6.445,1.539c-2.149,0.537-4.127,1.514-5.933,2.93
		c-0.978,0.83-1.624,1.807-1.94,2.93c-0.318,1.123-0.599,2.223-0.843,3.295c-0.195,1.271-0.392,2.54-0.586,3.809
		c-0.195,1.271-0.611,2.467-1.245,3.59c-0.685,1.27-1.697,2.1-3.039,2.49c-1.344,0.391-2.626,0.512-3.846,0.365
		c-1.758-0.293-3.321-0.988-4.688-2.087c-1.367-1.099-2.516-2.354-3.442-3.772c-0.879-1.415-1.563-2.94-2.051-4.577
		c-0.488-1.636-0.732-3.308-0.732-5.017c0.146-3.027,0.684-5.994,1.611-8.899c0.927-2.904,2.025-5.773,3.296-8.606
		c1.366-3.173,2.758-6.262,4.175-9.265c1.416-3.003,2.808-6.042,4.175-9.118c1.562-4.98,3.247-9.899,5.054-14.759
		c1.806-4.858,3.589-9.729,5.347-14.612c0.977-1.951,1.989-4.064,3.039-6.335s2.259-4.395,3.626-6.372
		c1.366-1.978,2.954-3.71,4.761-5.2c1.806-1.489,3.955-2.454,6.445-2.894c2.245,0,4.395,0.465,6.445,1.393s3.856,2.1,5.42,3.516
		c1.709,1.416,3.137,3.088,4.285,5.017c1.146,1.93,2.135,3.968,2.966,6.116c0.537,2.051,1,4.077,1.392,6.078
		c0.391,2.004,0.854,4.005,1.392,6.006c1.611,8.01,3.187,15.992,4.724,23.951c1.539,7.959,2.941,15.992,4.212,24.096
		c0.391,1.368,0.659,2.772,0.806,4.212c0.146,1.44,0.391,2.869,0.732,4.284c0.194,1.418,0.28,2.846,0.256,4.285
		c-0.024,1.441-0.158,2.893-0.402,4.357V485.829z M352.659,446.718c0.048-2.344-0.086-4.662-0.403-6.957s-0.732-4.565-1.244-6.812
		c-0.514-2.244-1.075-4.479-1.686-6.701c-0.61-2.221-1.208-4.432-1.794-6.629c-1.563,2.15-2.918,4.384-4.065,6.702
		c-1.147,2.319-2.209,4.7-3.186,7.142c-0.879,2.393-1.673,4.834-2.381,7.324s-1.16,4.98-1.354,7.471l-0.146,1.391v1.246v-0.293
		c1.27,0.098,2.563,0.146,3.882,0.146s2.611,0.049,3.882,0.146h2.124c0.634,0,1.318-0.061,2.051-0.184
		c0.732-0.121,1.416-0.354,2.051-0.695c0.634-0.342,1.172-0.781,1.611-1.318S352.659,447.5,352.659,446.718z"/>
	<path d="M460.032,487.147c-0.245,1.271-0.758,2.49-1.538,3.662c-0.781,1.172-1.904,1.857-3.369,2.051
		c-6.445,1.172-12.866,1.893-19.263,2.161c-6.397,0.268-12.843,0.183-19.336-0.257c-1.563-0.098-3.149-0.318-4.761-0.658
		c-1.611-0.343-3.138-0.867-4.577-1.575c-1.441-0.707-2.723-1.611-3.846-2.71c-1.124-1.099-1.978-2.428-2.563-3.992
		c-0.392-0.633-0.635-1.305-0.732-2.014c-0.099-0.707-0.146-1.402-0.146-2.088c0.048-0.779,0.293-1.451,0.732-2.014
		c0.439-0.561,0.952-1.037,1.538-1.428s1.232-0.684,1.941-0.879c0.707-0.195,1.379-0.342,2.014-0.439
		c1.562,0,3.149-0.074,4.761-0.221s3.197-0.268,4.761-0.365c0.098-0.244,0.171-0.5,0.22-0.77c0.048-0.268,0.024-0.523-0.073-0.77
		c0.439-4.148,0.891-8.275,1.355-12.377c0.463-4.102,1.013-8.228,1.647-12.379c0.537-4.295,1.099-8.557,1.685-12.78
		c0.586-4.223,1.073-8.483,1.465-12.78c0.194-1.758,0.33-3.54,0.402-5.348c0.074-1.805,0.012-3.588-0.183-5.346
		c-0.392,0.098-0.781,0.195-1.172,0.293c-0.392,0.098-0.781,0.146-1.172,0.146l-1.392,0.219l-1.245,0.221h-0.513
		c-1.71,0-3.431-0.024-5.164-0.074c-1.733-0.047-3.381-0.39-4.943-1.025c-0.732-0.146-1.428-0.414-2.088-0.805
		c-0.658-0.391-1.221-0.879-1.684-1.465c-0.465-0.586-0.795-1.246-0.989-1.979c-0.195-0.732-0.195-1.512,0-2.344
		c0.732-1.708,1.745-3.16,3.04-4.357c1.293-1.195,2.733-2.209,4.32-3.039s3.234-1.562,4.944-2.197
		c1.709-0.635,3.344-1.246,4.907-1.832c3.613-1.072,7.238-1.915,10.877-2.526c3.637-0.61,7.312-0.843,11.022-0.696
		c1.952,0,3.856,0.221,5.713,0.66c1.855,0.439,3.662,0.928,5.42,1.465c1.758,0.684,3.394,1.562,4.907,2.637
		c1.513,1.074,2.611,2.49,3.296,4.248c-0.392,1.709-1.099,3.345-2.124,4.906c-1.025,1.564-2.393,2.711-4.102,3.443
		c-1.953,0.391-3.87,0.758-5.75,1.098c-1.88,0.343-3.797,0.732-5.749,1.172c-0.245,1.611-0.428,3.212-0.55,4.798
		c-0.122,1.587-0.354,3.187-0.695,4.798c-0.195,1.709-0.402,3.395-0.623,5.053c-0.219,1.661-0.378,3.346-0.476,5.055
		c-0.146,2.051-0.281,4.041-0.403,5.969c-0.122,1.93-0.256,3.918-0.402,5.969c-0.099,1.954-0.208,3.908-0.33,5.859
		c-0.122,1.954-0.281,3.908-0.476,5.859c-0.099,1.758-0.232,3.553-0.403,5.384s-0.329,3.662-0.476,5.493s-0.208,3.65-0.183,5.457
		c0.023,1.807,0.207,3.564,0.549,5.273l1.245,0.146l0.952-0.146c0.684,0.098,1.392,0.109,2.124,0.036s1.439-0.11,2.124-0.11
		c0.684-0.146,1.392-0.23,2.124-0.256c0.732-0.023,1.439-0.084,2.124-0.184c1.513-0.097,3.051-0.047,4.614,0.146
		c1.562,0.196,3.003,0.611,4.321,1.246c1.513,1.465,2.344,3.016,2.49,4.65C460.325,484.134,460.276,485.683,460.032,487.147z"/>
	<path d="M549.168,476.235c-0.245,1.709-0.685,3.381-1.318,5.017c-0.635,1.637-1.44,3.212-2.417,4.724
		c-0.978,1.515-2.137,2.919-3.479,4.212c-1.344,1.294-2.894,2.112-4.651,2.454c-2.637,0-4.944-0.586-6.921-1.758
		c-1.979-1.172-3.761-2.648-5.348-4.432c-1.587-1.781-3.027-3.71-4.32-5.786c-1.295-2.075-2.527-4.04-3.699-5.896
		c-2.344-4.98-4.65-9.949-6.922-14.905c-2.27-4.955-4.577-9.925-6.921-14.905c-0.538,1.418-0.94,2.833-1.208,4.248
		c-0.27,1.418-0.452,2.833-0.55,4.248c-0.099,2.297-0.208,4.555-0.329,6.775c-0.123,2.223-0.184,4.48-0.184,6.775
		c0,2.197-0.013,4.383-0.037,6.555c-0.024,2.174-0.085,4.357-0.183,6.555c-0.146,1.271-0.318,2.699-0.513,4.285
		c-0.195,1.588-0.549,3.089-1.062,4.504c-0.512,1.418-1.27,2.601-2.27,3.553c-1.002,0.952-2.381,1.428-4.139,1.428
		c-1.318-0.098-2.539-0.439-3.662-1.025c-1.124-0.586-2.149-1.293-3.076-2.123c-0.685-1.074-1.281-2.148-1.795-3.223
		c-0.512-1.074-0.891-2.246-1.135-3.516c-1.318-4.639-2.014-9.412-2.088-14.319c-0.072-4.907,0.012-9.802,0.257-14.685
		c0.098-1.709,0.22-3.394,0.366-5.055c0.146-1.658,0.341-3.344,0.586-5.053c0.537-4.883,1.306-9.668,2.307-14.355
		s2.161-9.399,3.479-14.137c0.732-1.904,1.379-3.918,1.94-6.042s1.221-4.212,1.979-6.263c0.756-2.051,1.684-3.979,2.783-5.785
		c1.098-1.807,2.526-3.369,4.284-4.688c2.099,0.342,3.942,1.001,5.53,1.977c1.586,0.979,2.99,2.187,4.211,3.626
		c1.22,1.44,2.307,3.052,3.26,4.834c0.951,1.783,1.818,3.614,2.6,5.493c0.78,1.881,1.538,3.761,2.271,5.64
		c0.732,1.88,1.489,3.651,2.271,5.31c0.977,2.687,1.916,5.384,2.82,8.094c0.902,2.71,1.842,5.433,2.819,8.166
		c0.927,2.687,1.952,5.359,3.076,8.021c1.123,2.662,2.368,5.237,3.735,7.728c0.244-0.684,0.378-1.416,0.402-2.197
		s0.062-1.514,0.11-2.197c0.244-3.125,0.403-6.25,0.476-9.375c0.074-3.125,0.037-6.25-0.109-9.375c0-3.076-0.025-6.164-0.073-9.266
		c-0.049-3.1,0.024-6.189,0.22-9.266c0.194-1.805,0.464-3.637,0.806-5.492c0.341-1.855,0.952-3.637,1.831-5.348
		c0.244-0.779,0.61-1.537,1.099-2.27c0.487-0.732,1.062-1.355,1.722-1.868c0.658-0.513,1.391-0.903,2.197-1.172
		c0.805-0.268,1.622-0.329,2.453-0.183c2.245,0.244,4.126,0.965,5.64,2.16c1.513,1.197,2.722,2.674,3.626,4.432
		c0.902,1.758,1.513,3.688,1.83,5.785c0.317,2.101,0.428,4.127,0.33,6.08c-0.146,2.393-0.256,4.797-0.33,7.214
		c-0.072,2.417-0.231,4.823-0.476,7.214c-0.099,2.394-0.232,4.762-0.403,7.105s-0.354,4.76-0.549,7.25
		c-0.195,2.93-0.428,5.859-0.695,8.789c-0.27,2.93-0.502,5.885-0.696,8.863c-0.195,2.783-0.428,5.578-0.696,8.386
		C549.961,470.584,549.607,473.403,549.168,476.235z"/>
</g>
</svg>
