<?xml version="1.0" encoding="utf-8"?>
<!-- Generator: Adobe Illustrator 16.0.0, SVG Export Plug-In . SVG Version: 6.00 Build 0)  -->
<!DOCTYPE svg PUBLIC "-//W3C//DTD SVG 1.1//EN" "http://www.w3.org/Graphics/SVG/1.1/DTD/svg11.dtd">
<svg version="1.1" id="Layer_1" xmlns="http://www.w3.org/2000/svg" xmlns:xlink="http://www.w3.org/1999/xlink" x="0px" y="0px"
	 width="672px" height="367.59px" viewBox="0 0 672 367.59" enable-background="new 0 0 672 367.59" xml:space="preserve">
<path fill="#ED1A75" d="M441.812,24.671c60.917,1.898,50.647,3.534,70.282,18.814c10.996,15.086,146.668,228.188,142.151,252.998
	s-35.188,27.847-35.188,27.847S176,358.919,151.729,357.834c-50.943-1.184-61.544-63.563-68.068-85.622l-17.912-61.873
	L31.873,95.421c0,0-11.374-41.059-12.299-45.398c-2.535-11.906-5.098-27.449,10.055-37.707c15.878-10.75,41.186-6.898,63.584-5.42
	c83.965,5.547,168.518,8.512,252.573,13.7C377.562,22.558,408.394,23.63,441.812,24.671z"/>
<g>
	<path fill="#FFFFFF" d="M158.048,167.762c-0.127,1.016-0.455,1.915-0.983,2.698c-0.53,0.783-1.175,1.471-1.937,2.062
		c-0.762,0.594-1.598,1.09-2.507,1.492c-0.911,0.402-1.81,0.729-2.698,0.983c-2.624,0.889-5.269,1.514-7.935,1.872
		c-2.666,0.36-5.332,0.689-7.998,0.984c-2.285,0.34-4.539,0.635-6.76,0.889c-2.223,0.254-4.412,0.825-6.57,1.714
		c-0.085,1.228-0.127,2.454-0.127,3.682s-0.063,2.454-0.19,3.682c-0.085,1.692-0.138,3.386-0.159,5.078s-0.074,3.386-0.158,5.078
		c-0.212,2.031-0.487,4.053-0.825,6.062c-0.339,2.011-0.932,3.968-1.777,5.872c-0.254,0.804-0.625,1.618-1.11,2.444
		c-0.487,0.824-1.048,1.555-1.683,2.189s-1.354,1.121-2.158,1.46c-0.805,0.339-1.672,0.444-2.603,0.317
		c-1.143-0.168-2.201-0.549-3.174-1.143c-0.974-0.592-1.693-1.418-2.158-2.476c-0.974-2.962-1.555-6.04-1.746-9.235
		c-0.189-3.195-0.434-6.357-0.729-9.49c-0.127-3.428-0.201-6.824-0.222-10.188c-0.022-3.365,0.073-6.761,0.285-10.188
		c0.508-5.501,1.375-10.95,2.603-16.345c1.227-5.396,2.856-10.738,4.888-16.028c0.677-1.777,1.64-3.428,2.889-4.951
		c1.247-1.523,2.739-2.771,4.475-3.745c2.073-0.549,4.146-1.079,6.221-1.587c2.073-0.508,4.189-0.866,6.348-1.079
		c2.285-0.508,4.56-0.825,6.824-0.952c2.263-0.127,4.538-0.254,6.823-0.381c1.65,0.085,3.279,0.392,4.888,0.921
		c1.607,0.529,3.036,1.291,4.285,2.285c1.247,0.994,2.221,2.189,2.92,3.586c0.697,1.396,0.962,3.006,0.793,4.824
		c0.042,0.932-0.148,1.756-0.571,2.476c-0.424,0.72-0.974,1.354-1.65,1.904c-0.678,0.55-1.429,1.016-2.253,1.396
		c-0.826,0.381-1.641,0.657-2.444,0.825c-1.904,0.467-3.819,0.783-5.745,0.952s-3.84,0.212-5.744,0.127
		c-1.396-0.085-2.804-0.137-4.221-0.159c-1.419-0.021-2.825-0.072-4.222-0.158c-0.254,0-0.551,0-0.889,0
		c-0.297,0-0.571,0.043-0.825,0.127c-0.974,1.482-1.619,3.101-1.936,4.855c-0.318,1.757-0.583,3.523-0.794,5.301l-0.127,1.396
		c1.861-0.084,3.691-0.2,5.491-0.35c1.798-0.147,3.649-0.307,5.554-0.476c1.819-0.127,3.618-0.274,5.396-0.444
		c1.777-0.168,3.555-0.211,5.332-0.127c1.27-0.041,2.496,0.105,3.682,0.444c1.185,0.339,2.285,0.836,3.301,1.491
		c1.016,0.657,1.883,1.461,2.603,2.412c0.719,0.953,1.248,2.043,1.587,3.27c0.127,0.381,0.254,0.752,0.381,1.111
		S158.132,167.296,158.048,167.762z"/>
	<path fill="#FFFFFF" d="M225.46,193.216c-0.297,1.229-0.688,2.391-1.175,3.491s-1.153,2.116-1.999,3.047
		c-1.439,1.438-2.983,2.708-4.634,3.809s-3.375,2.116-5.174,3.047s-3.629,1.788-5.49,2.571c-1.862,0.783-3.703,1.576-5.522,2.38
		c-1.82,0.635-3.649,1.28-5.491,1.937c-1.84,0.656-3.692,1.248-5.554,1.777c-1.862,0.529-3.725,0.941-5.586,1.237
		c-1.862,0.296-3.745,0.423-5.649,0.381c-1.523-0.296-3.037-0.688-4.539-1.175c-1.502-0.485-2.74-1.322-3.713-2.507
		c-1.143-1.143-1.989-2.454-2.539-3.936c-0.551-1.481-1.079-2.962-1.587-4.443c-0.72-3.428-1.069-6.919-1.048-10.474
		s0.096-7.131,0.223-10.728c0.465-4.316,0.898-8.696,1.301-13.14s0.984-8.844,1.746-13.203c0.762-4.357,1.819-8.643,3.174-12.854
		c1.354-4.211,3.237-8.262,5.649-12.156c2.92-1.057,5.86-1.787,8.823-2.189c2.962-0.402,5.945-0.688,8.95-0.857
		c3.428-0.381,6.812-0.561,10.156-0.539c3.343,0.021,6.644,0.158,9.902,0.412c1.354,0.043,2.634,0.34,3.841,0.889
		c1.205,0.551,2.231,1.291,3.078,2.222c0.846,0.931,1.48,2.011,1.904,3.237c0.423,1.229,0.55,2.539,0.381,3.936
		c0.127,1.863-0.339,3.491-1.396,4.888c-0.339,0.847-0.92,1.471-1.746,1.872c-0.824,0.403-1.661,0.604-2.507,0.604
		c-4.782-0.381-9.564-0.624-14.346-0.73c-4.782-0.104-9.606-0.072-14.473,0.096c-0.551,1.355-1.059,2.729-1.523,4.126
		c-0.466,1.396-0.741,2.835-0.825,4.316v0.889c2.285-0.169,4.57-0.317,6.855-0.444s4.57-0.275,6.855-0.444s4.527-0.286,6.729-0.349
		c2.2-0.064,4.443-0.053,6.729,0.031c1.396-0.084,2.762,0.105,4.094,0.571c1.334,0.466,2.477,1.153,3.428,2.063
		c0.953,0.91,1.661,1.999,2.127,3.269c0.465,1.27,0.571,2.666,0.317,4.189c-0.043,1.312-0.424,2.423-1.143,3.333
		c-0.72,0.91-1.608,1.65-2.666,2.221c-1.059,0.572-2.19,1.006-3.396,1.302c-1.207,0.296-2.339,0.508-3.396,0.635
		c-3.301,0.339-6.602,0.646-9.902,0.921s-6.602,0.645-9.902,1.11c-1.481,0.254-2.92,0.752-4.316,1.491
		c-1.396,0.741-2.635,1.662-3.713,2.762c-1.08,1.102-1.947,2.349-2.604,3.745s-0.983,2.878-0.983,4.443
		c-0.212,1.904-0.148,3.745,0.19,5.522c0.338,1.777,0.74,3.555,1.206,5.332c3.004-0.338,5.893-1.132,8.665-2.381
		c2.771-1.247,5.511-2.592,8.22-4.03c2.793-1.523,5.681-2.846,8.665-3.968c2.982-1.12,6.019-1.809,9.108-2.062
		c1.227-0.168,2.285-0.021,3.174,0.444s1.597,1.122,2.126,1.968c0.529,0.848,0.878,1.809,1.048,2.889
		C225.756,191.089,225.714,192.159,225.46,193.216z"/>
	<path fill="#FFFFFF" d="M320.865,210.101c-0.381,0.889-0.879,1.661-1.491,2.316c-0.614,0.657-1.312,1.217-2.096,1.683
		s-1.629,0.836-2.539,1.11c-0.91,0.276-1.809,0.455-2.697,0.54c-1.101,0.085-2.201,0.138-3.301,0.159
		c-1.101,0.021-2.158-0.137-3.174-0.477c-0.932-0.719-1.598-1.619-2-2.697c-0.402-1.08-0.772-2.168-1.11-3.27
		c-1.523-6.051-2.38-12.229-2.571-18.535c-0.189-6.305-0.138-12.652,0.159-19.043c0.169-1.777,0.243-3.501,0.222-5.174
		c-0.021-1.671,0.011-3.373,0.096-5.109c-3.217,4.951-6.052,10.04-8.506,15.266c-2.455,5.228-4.677,10.611-6.665,16.155
		c-0.593,1.354-1.164,2.751-1.714,4.189c-0.551,1.438-1.059,2.856-1.523,4.253c-0.297,0.594-0.625,1.206-0.984,1.841
		s-0.772,1.228-1.237,1.777c-0.466,0.55-0.995,1.016-1.587,1.396c-0.593,0.381-1.27,0.593-2.031,0.635
		c-1.312,0.127-2.55,0.022-3.713-0.317c-1.165-0.338-2.233-0.846-3.206-1.523c-0.974-0.676-1.831-1.492-2.571-2.443
		c-0.74-0.953-1.344-1.979-1.809-3.079c-0.805-1.989-1.45-3.978-1.936-5.967c-0.487-1.989-0.921-4.062-1.302-6.221
		c-0.254-2.116-0.562-4.231-0.921-6.348s-0.729-4.253-1.11-6.411v0.889c-0.17,0.932-0.275,1.863-0.317,2.793
		c-0.043,0.932-0.17,1.863-0.381,2.793c-0.043,0.932-0.106,1.841-0.19,2.729c-0.085,0.889-0.127,1.8-0.127,2.729
		c-0.085,1.186-0.17,2.391-0.254,3.618c-0.085,1.228-0.106,2.435-0.063,3.618c0,1.059,0.073,2.095,0.223,3.11
		c0.147,1.016,0.264,2.031,0.349,3.047c0.084,1.058,0.18,2.095,0.286,3.11c0.104,1.016,0.115,2.053,0.031,3.11
		c0.042,1.101-0.074,2.265-0.35,3.491c-0.275,1.229-0.729,2.349-1.364,3.364s-1.439,1.8-2.412,2.349
		c-0.974,0.551-2.158,0.698-3.555,0.444c-1.904-0.212-3.64-0.804-5.205-1.777c-1.566-0.974-2.729-2.263-3.491-3.872
		c-1.566-3.342-2.349-6.812-2.349-10.41c-0.381-4.23-0.54-8.495-0.476-12.791c0.062-4.294,0.285-8.578,0.666-12.854
		c0.296-3.936,0.782-7.828,1.46-11.68c0.677-3.85,1.523-7.701,2.539-11.553c0.592-2.115,1.259-4.211,1.999-6.284
		s1.661-4.083,2.762-6.03c0.508-0.93,1.047-1.894,1.619-2.889c0.57-0.993,1.205-1.925,1.904-2.793
		c0.697-0.866,1.48-1.618,2.348-2.253s1.873-1.058,3.016-1.27c1.692-0.254,3.216-0.095,4.57,0.476
		c1.354,0.572,2.539,1.396,3.555,2.477c1.016,1.078,1.873,2.307,2.57,3.682c0.699,1.375,1.217,2.761,1.556,4.157
		c0.677,3.386,1.322,6.729,1.937,10.029c0.612,3.301,1.301,6.602,2.062,9.902c0.169,0.847,0.434,1.673,0.793,2.476
		c0.359,0.805,0.646,1.609,0.857,2.412c2.115-3.639,4.253-7.258,6.411-10.854s4.358-7.194,6.602-10.791
		c1.058-1.396,2.104-2.888,3.142-4.476c1.037-1.586,2.158-3.088,3.365-4.506c1.205-1.418,2.527-2.666,3.967-3.746
		c1.438-1.078,3.067-1.787,4.888-2.126c2.327,0.212,4.358,0.804,6.094,1.777c1.734,0.974,3.216,2.222,4.443,3.745
		c1.227,1.523,2.211,3.248,2.952,5.174c0.739,1.926,1.301,3.936,1.682,6.029c0.381,2.096,0.613,4.222,0.698,6.38
		c0.084,2.158,0.063,4.212-0.063,6.157c0,1.355-0.085,2.688-0.254,3.999c-0.17,1.312-0.339,2.646-0.508,3.999
		c-0.254,1.355-0.466,2.709-0.635,4.062c-0.17,1.355-0.317,2.709-0.444,4.062c-0.254,3.217-0.233,6.369,0.063,9.458
		c0.296,3.089,0.635,6.179,1.016,9.268c0.381,2.92,0.719,5.808,1.016,8.665C320.844,204.292,320.949,207.181,320.865,210.101z"/>
	<path fill="#FFFFFF" d="M400.147,209.339c-0.339,1.65-1.133,3.068-2.381,4.253s-2.697,1.904-4.348,2.158
		c-1.354,0.212-2.74,0.201-4.158-0.032c-1.418-0.231-2.592-0.877-3.522-1.936c-0.72-1.227-1.196-2.57-1.429-4.031
		c-0.232-1.459-0.434-2.888-0.603-4.284c-0.17-1.354-0.339-2.708-0.508-4.062c-0.17-1.354-0.402-2.708-0.698-4.062
		c-0.678-0.254-1.376-0.466-2.095-0.635c-0.72-0.169-1.46-0.212-2.222-0.127c-2.031,0-4.021,0.127-5.967,0.381
		c-1.947,0.254-3.894,0.571-5.84,0.952c-1.862,0.424-3.725,0.867-5.586,1.333c-1.862,0.466-3.576,1.312-5.142,2.539
		c-0.847,0.72-1.407,1.565-1.683,2.539s-0.519,1.927-0.729,2.856c-0.17,1.102-0.339,2.201-0.508,3.301
		c-0.17,1.102-0.529,2.137-1.079,3.11c-0.593,1.101-1.471,1.819-2.635,2.158s-2.274,0.444-3.332,0.317
		c-1.523-0.254-2.878-0.857-4.062-1.809c-1.186-0.953-2.18-2.041-2.983-3.27c-0.762-1.227-1.354-2.549-1.777-3.967
		c-0.424-1.418-0.635-2.867-0.635-4.349c0.127-2.624,0.592-5.194,1.396-7.712c0.804-2.518,1.756-5.004,2.856-7.459
		c1.185-2.75,2.391-5.428,3.618-8.029c1.227-2.604,2.433-5.237,3.618-7.903c1.354-4.316,2.813-8.579,4.38-12.79
		c1.565-4.211,3.11-8.432,4.634-12.664c0.846-1.691,1.724-3.523,2.635-5.49c0.909-1.969,1.956-3.809,3.142-5.523
		c1.185-1.713,2.56-3.215,4.126-4.506c1.565-1.291,3.428-2.127,5.586-2.508c1.946,0,3.809,0.402,5.586,1.206
		s3.343,1.819,4.697,3.047c1.48,1.228,2.719,2.677,3.713,4.349s1.852,3.438,2.571,5.3c0.465,1.777,0.867,3.534,1.206,5.269
		c0.338,1.736,0.74,3.471,1.206,5.205c1.396,6.941,2.761,13.859,4.095,20.757c1.332,6.897,2.549,13.86,3.649,20.884
		c0.338,1.186,0.571,2.402,0.698,3.65s0.338,2.486,0.635,3.713c0.169,1.229,0.243,2.466,0.223,3.713
		c-0.022,1.249-0.139,2.508-0.35,3.777V209.339z M376.979,175.442c0.042-2.031-0.074-4.041-0.349-6.03
		c-0.276-1.989-0.635-3.956-1.08-5.903c-0.443-1.945-0.931-3.882-1.459-5.809c-0.53-1.925-1.048-3.84-1.556-5.744
		c-1.354,1.863-2.529,3.799-3.522,5.809c-0.995,2.01-1.916,4.072-2.762,6.188c-0.762,2.073-1.45,4.189-2.062,6.348
		c-0.614,2.158-1.006,4.316-1.175,6.475l-0.127,1.206v1.079v-0.254c1.1,0.085,2.222,0.127,3.364,0.127s2.264,0.042,3.364,0.127
		h1.841c0.55,0,1.143-0.053,1.777-0.159c0.635-0.104,1.227-0.307,1.777-0.603c0.55-0.296,1.016-0.677,1.396-1.143
		S376.979,176.12,376.979,175.442z"/>
	<path fill="#FFFFFF" d="M475.685,203.436c-0.127,0.72-0.424,1.323-0.889,1.81c-0.466,0.486-0.974,0.92-1.523,1.301
		c-1.523,1.059-3.09,1.968-4.697,2.729c-1.608,0.762-3.259,1.429-4.951,1.999c-1.693,0.572-3.407,1.102-5.142,1.588
		c-1.735,0.486-3.449,0.983-5.142,1.491c-3.428,0.847-6.866,1.534-10.315,2.063c-3.449,0.528-6.908,0.707-10.378,0.539
		c-1.735-0.127-3.322-0.571-4.761-1.333c-1.439-0.762-2.729-1.714-3.872-2.856s-2.138-2.443-2.983-3.904
		c-0.847-1.459-1.523-2.951-2.031-4.475c-1.186-3.047-1.958-6.21-2.316-9.49c-0.36-3.278-0.456-6.611-0.286-9.997
		c0-1.058,0.073-2.126,0.222-3.206c0.148-1.078,0.18-2.146,0.096-3.205c0.338-3.977,0.782-7.924,1.333-11.838
		c0.55-3.914,1.227-7.84,2.031-11.775c0.931-4.992,2.349-9.732,4.253-14.219c0.423-1.016,0.867-2.104,1.333-3.27
		c0.465-1.163,0.994-2.273,1.587-3.332c0.592-1.057,1.312-2.01,2.158-2.856c0.846-0.847,1.861-1.481,3.047-1.904
		c1.143-0.254,2.168-0.2,3.078,0.159s1.661,0.898,2.254,1.618c0.592,0.72,1.016,1.577,1.27,2.571s0.317,1.999,0.19,3.015
		c-0.085,2.666-0.233,5.3-0.444,7.903c-0.212,2.602-0.487,5.236-0.825,7.902c-0.17,2.371-0.435,4.708-0.794,7.014
		c-0.359,2.308-0.646,4.645-0.856,7.015c-0.339,2.327-0.593,4.665-0.762,7.015c-0.17,2.348-0.339,4.707-0.508,7.077
		c-0.085,1.565-0.17,3.164-0.254,4.792c-0.085,1.63-0.095,3.238-0.032,4.824c0.064,1.588,0.275,3.143,0.635,4.666
		s0.963,2.963,1.81,4.316c2.412-0.254,4.803-0.666,7.173-1.238c2.369-0.57,4.781-1.088,7.236-1.555
		c2.285-0.549,4.58-1.057,6.887-1.523c2.307-0.465,4.603-0.803,6.888-1.016c1.396-0.041,2.729,0.244,3.999,0.857
		s2.391,1.344,3.364,2.189c0.931,0.721,1.714,1.661,2.349,2.824C475.748,200.887,475.938,202.124,475.685,203.436z"/>
	<path fill="#FFFFFF" d="M546.524,193.216c-0.297,1.229-0.688,2.391-1.175,3.491s-1.153,2.116-1.999,3.047
		c-1.439,1.438-2.983,2.708-4.634,3.809s-3.375,2.116-5.174,3.047s-3.629,1.788-5.49,2.571c-1.862,0.783-3.703,1.576-5.522,2.38
		c-1.82,0.635-3.649,1.28-5.491,1.937c-1.84,0.656-3.692,1.248-5.554,1.777c-1.862,0.529-3.725,0.941-5.586,1.237
		c-1.862,0.296-3.745,0.423-5.649,0.381c-1.523-0.296-3.037-0.688-4.539-1.175c-1.502-0.485-2.74-1.322-3.713-2.507
		c-1.143-1.143-1.989-2.454-2.539-3.936c-0.551-1.481-1.079-2.962-1.587-4.443c-0.72-3.428-1.069-6.919-1.048-10.474
		s0.096-7.131,0.223-10.728c0.465-4.316,0.898-8.696,1.301-13.14s0.984-8.844,1.746-13.203c0.762-4.357,1.819-8.643,3.174-12.854
		c1.354-4.211,3.237-8.262,5.649-12.156c2.92-1.057,5.86-1.787,8.823-2.189c2.962-0.402,5.945-0.688,8.95-0.857
		c3.428-0.381,6.812-0.561,10.156-0.539c3.343,0.021,6.644,0.158,9.902,0.412c1.354,0.043,2.634,0.34,3.841,0.889
		c1.205,0.551,2.231,1.291,3.078,2.222c0.846,0.931,1.48,2.011,1.904,3.237c0.423,1.229,0.55,2.539,0.381,3.936
		c0.127,1.863-0.339,3.491-1.396,4.888c-0.339,0.847-0.92,1.471-1.746,1.872c-0.824,0.403-1.661,0.604-2.507,0.604
		c-4.782-0.381-9.564-0.624-14.346-0.73c-4.782-0.104-9.606-0.072-14.473,0.096c-0.551,1.355-1.059,2.729-1.523,4.126
		c-0.466,1.396-0.741,2.835-0.825,4.316v0.889c2.285-0.169,4.57-0.317,6.855-0.444s4.57-0.275,6.855-0.444s4.527-0.286,6.729-0.349
		c2.2-0.064,4.443-0.053,6.729,0.031c1.396-0.084,2.762,0.105,4.094,0.571c1.334,0.466,2.477,1.153,3.428,2.063
		c0.953,0.91,1.661,1.999,2.127,3.269c0.465,1.27,0.571,2.666,0.317,4.189c-0.043,1.312-0.424,2.423-1.143,3.333
		c-0.72,0.91-1.608,1.65-2.666,2.221c-1.059,0.572-2.19,1.006-3.396,1.302c-1.207,0.296-2.339,0.508-3.396,0.635
		c-3.301,0.339-6.602,0.646-9.902,0.921s-6.602,0.645-9.902,1.11c-1.481,0.254-2.92,0.752-4.316,1.491
		c-1.396,0.741-2.635,1.662-3.713,2.762c-1.08,1.102-1.947,2.349-2.604,3.745s-0.983,2.878-0.983,4.443
		c-0.212,1.904-0.148,3.745,0.19,5.522c0.338,1.777,0.74,3.555,1.206,5.332c3.004-0.338,5.893-1.132,8.665-2.381
		c2.771-1.247,5.511-2.592,8.22-4.03c2.793-1.523,5.681-2.846,8.665-3.968c2.982-1.12,6.019-1.809,9.108-2.062
		c1.227-0.168,2.285-0.021,3.174,0.444s1.597,1.122,2.126,1.968c0.529,0.848,0.878,1.809,1.048,2.889
		C546.82,191.089,546.778,192.159,546.524,193.216z"/>
</g>
</svg>
