<?xml version="1.0" encoding="utf-8"?>
<!-- Generator: Adobe Illustrator 16.0.0, SVG Export Plug-In . SVG Version: 6.00 Build 0)  -->
<!DOCTYPE svg PUBLIC "-//W3C//DTD SVG 1.1//EN" "http://www.w3.org/Graphics/SVG/1.1/DTD/svg11.dtd">
<svg version="1.1" id="Layer_1" xmlns="http://www.w3.org/2000/svg" xmlns:xlink="http://www.w3.org/1999/xlink" x="0px" y="0px"
	 width="672px" height="367.59px" viewBox="0 0 672 367.59" enable-background="new 0 0 672 367.59" xml:space="preserve">
<g>
	<path fill="#ED1A75" d="M651.076,290.456c0.488-0.043,0.977-0.086,1.465-0.127c-2.178-6.092-3.361-12.326-6.688-18.252
		C612.633,212.88,579.156,153.721,545.52,94.585c-8.82-15.51-18.105-30.956-27.842-46.322c-4.58-7.229-11.439-14.019-20.916-20.012
		c-7.078-4.477-15.525-7.629-27.707-6.994c-1.465,0.076-2.984-0.093-4.475-0.17c-15.047-0.778-30.092-1.568-45.141-2.34
		c-17.865-0.917-35.736-1.812-53.604-2.729c-18.357-0.94-36.711-1.904-55.07-2.845c-14.551-0.745-29.107-1.459-43.658-2.203
		c-18.521-0.946-37.037-1.914-55.557-2.864c-17.697-0.908-35.398-1.798-53.096-2.707c-18.357-0.945-36.711-1.901-55.065-2.857
		c-15.049-0.785-30.12-1.477-45.133-2.41c-7.124-0.442-13.588,0.164-18.345,2.795c-4.43,2.449-8.801,5.158-11.469,8.15
		c-9.886,11.081-10.581,22.821-7.634,34.66c2.14,8.592,4.922,17.141,7.383,25.712c4.135,14.396,8.211,28.795,12.367,43.188
		c3.866,13.395,7.816,26.783,11.707,40.176c3.479,11.979,6.914,23.961,10.388,35.939c3.859,13.309,7.753,26.615,11.608,39.924
		c3.807,13.143,7.58,26.29,11.381,39.434c3.537,12.231,7.016,24.467,10.664,36.689c2.775,9.301,4.591,18.703,10.932,27.646
		c5.679,8.006,12.903,15.531,25.583,21.398c7.729,3.574,16.643,5.094,27.102,4.25c12.461-1.008,24.938-1.971,37.426-2.891
		c32.877-2.422,65.771-4.775,98.643-7.219c35.162-2.613,70.293-5.328,105.453-7.941c35.33-2.623,70.686-5.16,106.02-7.768
		c33.695-2.484,67.283-5.439,101.104-7.35c19.102-1.08,29.822-6.051,35.912-14.623C649.496,305.239,651.184,297.917,651.076,290.456
		z"/>
	<path fill-rule="evenodd" clip-rule="evenodd" fill="#ED1A75" d="M651.076,290.456c0.107,7.461-1.58,14.783-6.596,21.848
		c-6.09,8.572-16.811,13.543-35.912,14.623c-33.82,1.91-67.408,4.865-101.104,7.35c-35.334,2.607-70.689,5.145-106.02,7.768
		c-35.16,2.613-70.291,5.328-105.453,7.941c-32.871,2.443-65.766,4.797-98.643,7.219c-12.488,0.92-24.965,1.883-37.426,2.891
		c-10.459,0.844-19.373-0.676-27.102-4.25c-12.68-5.867-19.904-13.393-25.583-21.398c-6.341-8.943-8.156-18.346-10.932-27.646
		c-3.648-12.223-7.127-24.458-10.664-36.689c-3.801-13.144-7.574-26.291-11.381-39.434c-3.855-13.309-7.749-26.615-11.608-39.924
		c-3.474-11.979-6.909-23.961-10.388-35.939c-3.891-13.393-7.841-26.781-11.707-40.176c-4.156-14.394-8.232-28.793-12.367-43.188
		c-2.461-8.571-5.243-17.12-7.383-25.712c-2.947-11.839-2.252-23.579,7.634-34.66c2.668-2.992,7.039-5.701,11.469-8.15
		c4.757-2.631,11.221-3.237,18.345-2.795c15.013,0.934,30.084,1.625,45.133,2.41c18.354,0.956,36.708,1.912,55.065,2.857
		c17.697,0.909,35.398,1.799,53.096,2.707c18.52,0.95,37.035,1.918,55.557,2.864c14.551,0.744,29.107,1.458,43.658,2.203
		c18.359,0.94,36.713,1.904,55.07,2.845c17.867,0.917,35.738,1.812,53.604,2.729c15.049,0.771,30.094,1.562,45.141,2.34
		c1.49,0.077,3.01,0.246,4.475,0.17c12.182-0.635,20.629,2.518,27.707,6.994c9.477,5.993,16.336,12.783,20.916,20.012
		c9.736,15.366,19.021,30.812,27.842,46.322c33.637,59.136,67.113,118.295,100.334,177.492c3.326,5.926,4.51,12.16,6.688,18.252
		C652.053,290.37,651.564,290.413,651.076,290.456z"/>
</g>
</svg>
