<?xml version="1.0" encoding="utf-8"?>
<!-- Generator: Adobe Illustrator 16.0.0, SVG Export Plug-In . SVG Version: 6.00 Build 0)  -->
<!DOCTYPE svg PUBLIC "-//W3C//DTD SVG 1.1//EN" "http://www.w3.org/Graphics/SVG/1.1/DTD/svg11.dtd">
<svg version="1.1" id="Layer_1" xmlns="http://www.w3.org/2000/svg" xmlns:xlink="http://www.w3.org/1999/xlink" x="0px" y="0px"
	 width="672px" height="721.572px" viewBox="0 0 672 721.572" enable-background="new 0 0 672 721.572" xml:space="preserve">
<path fill="#F9ED32" d="M441.811,40.712c60.917,3.833,50.647,7.135,70.282,37.983c10.996,30.455,146.668,460.672,142.151,510.761
	s-35.188,56.218-35.188,56.218S176,715.503,151.728,713.312c-50.944-2.39-61.544-128.325-68.069-172.856L65.747,415.545l-33.874-232
	c0,0-11.375-82.891-12.299-91.65c-2.536-24.038-5.098-55.416,10.054-76.125C45.506-5.934,70.813,1.84,93.212,4.828
	c83.964,11.197,168.517,17.182,252.573,27.656C377.561,36.445,408.393,38.609,441.811,40.712z"/>
<rect x="73.377" y="208.274" fill="none" width="480.176" height="243.023"/>
<text transform="matrix(1 0 0 1 152.4785 309.3848)" font-family="'ActionMan-Bold'" font-size="150">PLAY</text>
<rect x="59.377" y="392.629" fill="none" width="564.079" height="243.023"/>
<text transform="matrix(1 0 0 1 121.2871 493.7393)" font-family="'ActionMan-Bold'" font-size="150">AGAIN</text>
</svg>
